<?xml version="1.0" encoding="UTF-8"?><svg id="a" xmlns="http://www.w3.org/2000/svg" width="432.41" height="332.37" viewBox="0 0 432.41 332.37"><path d="M184.71,296.08c-23.59-5.34-42.32-16.63-46.64-28.79-4-11.27,7.55-15.67,6.95-31.76-.39-10.41-5.61-18.85-9.92-24.32,18.52,7.46,25.17,14.62,27.79,19.85,4.88,9.75-2.24,16.82,7.94,27.66,2.37,2.52,8.47,9.03,15.04,8.74,8.81-.38,17.55-12.94,14.73-24.55-3.05-12.53-17.49-15.44-17.12-23.28.3-6.28,10.07-15.42,57.8-26.3-7.44,4.78-15.6,11.76-13.85,19.63,1.8,8.07,12.41,9.73,17.7,17.7,10.98,16.55-19.84,31.88-11.79,35.13,5.82,2.35,28.7-2.92,35.72-11.91,6.91-8.85-6.71-14.67-1.98-23.82,2.61-5.06,11.18-11.81,39.36-17.79-6.12,7.53-12.12,18.32-8.6,30.65,3.73,13.03,15.09,17.28,11.52,26.63-4.96,12.99-32.83,20.31-43.27,23.05-10.21,2.68-44.74,11.76-81.37,3.47Z" style="fill:#d84f19;"/><line x1="117.07" y1="296.89" x2="173.89" y2="175.95" style="fill:none; stroke:#898685; stroke-miterlimit:10; stroke-width:10px;"/><line x1="318.13" y1="303.97" x2="261.95" y2="169.65" style="fill:none; stroke:#898685; stroke-miterlimit:10; stroke-width:10px;"/><rect y="289.49" width="432.41" height="42.88" style="fill:#93705f;"/><path d="M339.1,189.47c-21.48,30.28-62.73,30.4-120.75,30.56-58.42.17-101.53.29-122.35-30.56-23.46-34.76-2.35-84.7,2.06-94.63h243.1c4.29,10.98,22.31,60.27-2.06,94.63Z" style="fill:#4f3d38;"/><path d="M155.67,82.17c.36-5.46,4.22-9.93,6.79-14.51,2.77-4.93,4-10.25,1.76-15.66s-6.57-9.44-9.93-14.09c-3.5-4.83-5.51-10.53-5.83-16.49-.36-6.8,1.39-13.57,5.21-19.23,1.08-1.6-1.51-3.11-2.59-1.51-6.85,10.13-7.48,23.89-1.88,34.72,2.79,5.39,7.4,9.49,10.61,14.6,1.5,2.38,2.64,5.03,2.66,7.89.01,2.6-.9,5.06-2.1,7.34-2.91,5.52-7.27,10.44-7.7,16.94-.13,1.93,2.87,1.92,3,0h0Z" style="fill:#e2dad7;"/><path d="M218.43,82.17c.36-5.46,4.22-9.93,6.79-14.51,2.77-4.93,4-10.25,1.76-15.66s-6.57-9.44-9.93-14.09-5.51-10.53-5.83-16.49c-.36-6.8,1.39-13.57,5.21-19.23,1.08-1.6-1.51-3.11-2.59-1.51-6.85,10.13-7.48,23.89-1.88,34.72,2.79,5.39,7.4,9.49,10.61,14.6,1.5,2.38,2.64,5.03,2.66,7.89.01,2.6-.9,5.06-2.1,7.34-2.91,5.52-7.27,10.44-7.7,16.94-.13,1.93,2.87,1.92,3,0h0Z" style="fill:#e2dad7;"/><path d="M280.8,82.17c.36-5.46,4.22-9.93,6.79-14.51,2.77-4.93,4-10.25,1.76-15.66s-6.57-9.44-9.93-14.09c-3.5-4.83-5.51-10.53-5.83-16.49-.36-6.8,1.39-13.57,5.21-19.23,1.08-1.6-1.51-3.11-2.59-1.51-6.85,10.13-7.48,23.89-1.88,34.72,2.79,5.39,7.4,9.49,10.61,14.6,1.5,2.38,2.64,5.03,2.66,7.89.01,2.6-.9,5.06-2.1,7.34-2.91,5.52-7.27,10.44-7.7,16.94-.13,1.93,2.87,1.92,3,0h0Z" style="fill:#e2dad7;"/></svg>