<?xml version="1.0" encoding="UTF-8"?><svg id="a" xmlns="http://www.w3.org/2000/svg" viewBox="0 0 1917.39 676.58"><rect x="-1920.46" y="478.66" width="1925.02" height="199.06" style="fill:#47433d;"/><path d="M501.12,192.66c226.24-7.72,303.41,202.16,548.02,170.23,182.52-23.82,206.85-175.59,394.26-178.06,141.38-1.86,298.44,82.25,300.91,165.3,2.37,79.71-137.34,170.67-344.3,207.5-466.67,0-933.34,0-1400.02,0-.05-61.5-.1-123.01-.15-184.51,31.64-1.46,78.33-5.39,133.46-16.99,205.71-43.28,245.67-159.3,367.8-163.47Z" style="fill:#7b8267;"/><path d="M876.66,237.67c130.82-.88,244.96,51.64,301.38,78.92,171.54,82.95,200.31,174.32,286.33,162.06,109.53-15.62,118.41-170.72,266.61-222,73.61-25.47,144.56-12.47,189.02.28,0,140.26,0,280.52,0,420.78H0V192.03c36.28-4.18,95.67-6.07,157.91,19.63,133.34,55.06,125.65,173.09,218.43,209.18,138.93,54.05,241.15-181.43,500.33-183.17Z" style="fill:#5b6046;"/><rect x="0" y="478.66" width="1920" height="199.06" style="fill:#47433d;"/><path d="M1289.02,566.89c-138.9-39.45-222.01,66.35-366.67,24.74-75.67-21.77-169.06-84.11-169.35-160.23-.22-56.03,49.97-117.48,105.24-131.69,68.18-17.52,124.94,41.39,182.54,8.43,17.4-9.95,28.07-24.38,34.36-34.96,10.1,3.75,20.2,7.49,30.3,11.24-7.71,17.33-21.87,41.62-47.88,55.66-57.97,31.29-115.89-20.47-166.05,12.83-24.71,16.4-42.05,49.61-36,75.77,12.03,52.02,114.03,64.62,133.47,67.02,102.37,12.65,126.74-32.25,233.18-42.07,23.75-2.19,181.41-14.4,299.8,88.93,56.07,48.94,83.7,106.66,97.27,142.53h-169.22c-31.7-41.72-83.98-96.34-160.98-118.21Z" style="fill:#1a3047;"/><rect x="348.03" y="273.94" width="235.3" height="131.41" style="fill:#fff;"/><rect x="1225.02" y="63.79" width="235.3" height="131.41" style="fill:#fff;"/><line x1="350.03" y1="406.72" x2="350.03" y2="570.32" style="fill:none; stroke:#000; stroke-miterlimit:10; stroke-width:5px;"/><line x1="1456.32" y1="195.2" x2="1456.32" y2="358.79" style="fill:none; stroke:#000; stroke-miterlimit:10; stroke-width:5px;"/><rect x="1383.01" y="63.79" width="77.32" height="131.41" style="fill:#1b5b1b;"/><rect x="1225.02" y="63.79" width="77.32" height="131.41" style="fill:#1b5b1b;"/><rect x="348.03" y="269.97" width="235.3" height="29.64" style="fill:#e09214;"/><rect x="348.03" y="376.62" width="235.3" height="29.64" style="fill:#1b5b1b;"/><circle cx="465.68" cy="338.12" r="21.67" style="fill:#e09214;"/><path d="M1497.69,706.74c80.56,62.64,113.22,161.73,83.98,243.57-18.58,52-62.68,98.52-118.64,115.81-96.65,29.86-191.31-39.04-251.06-73.06-252.35-143.71-665.74-111.77-815.38,72.63-94.58,116.55-112.64,329.55-19.81,455.56,192.7,261.57,888.18,182.25,1168.61-36.31,28.61-22.3,98.37-81.48,204.67-99.03,136.63-22.56,259.92,35.77,340.02,85.83" style="fill:none; stroke:#1a3047; stroke-miterlimit:10; stroke-width:160px;"/></svg>