<?xml version="1.0" encoding="UTF-8"?><svg id="a" xmlns="http://www.w3.org/2000/svg" viewBox="0 0 1914.07 698.65"><rect x="-1923.96" y="506.27" width="1925.02" height="199.06" style="fill:#47433d;"/><path d="M497.62,220.27c226.24-7.72,303.41,202.16,548.02,170.23,182.52-23.82,206.85-175.59,394.26-178.06,141.38-1.86,298.44,82.25,300.91,165.3,2.37,79.71-137.34,170.67-344.3,207.5-466.67,0-933.34,0-1400.02,0-.05-61.5-.1-123.01-.15-184.51,31.64-1.46,78.33-5.39,133.46-16.99,205.71-43.28,245.67-159.3,367.8-163.47Z" style="fill:#7b8267;"/><path d="M873.16,265.28c130.82-.88,244.96,51.64,301.38,78.92,171.54,82.95,200.31,174.32,286.33,162.06,109.53-15.62,118.41-170.72,266.61-222,73.61-25.47,144.56-12.47,189.02.28,0,140.26,0,280.52,0,420.78H-3.5V219.64c36.28-4.18,95.67-6.07,157.91,19.63,133.34,55.06,125.65,173.09,218.43,209.18,138.93,54.05,241.15-181.43,500.33-183.17Z" style="fill:#5b6046;"/><rect x="-3.5" y="506.27" width="1920" height="199.06" style="fill:#47433d;"/><path d="M1283.53,594.5c-138.9-39.45-222.01,66.35-366.67,24.74-75.67-21.77-169.06-84.11-169.35-160.23-.22-56.03,49.97-117.48,105.24-131.69,67.87-17.45,123.81,41.04,182.54,8.43,17.97-9.98,29.15-24.55,35.73-35.18,9.93,3.55,19.86,7.09,29.8,10.64-7.92,17.76-22.35,42.36-48.74,56.47-58.21,31.12-115.9-20.46-166.05,12.83-24.71,16.4-42.05,49.61-36,75.77,12.03,52.02,114.03,64.62,133.47,67.02,102.37,12.65,126.74-32.25,233.18-42.07,23.75-2.19,181.41-14.4,299.8,88.93,56.07,48.94,83.7,106.66,97.27,142.53h-169.22c-31.7-41.72-83.98-96.34-160.98-118.21Z" style="fill:#1a3047;"/><rect x="344.54" y="301.55" width="235.3" height="131.41" style="fill:#fff;"/><rect x="1570.71" y="18.69" width="235.3" height="131.41" style="fill:#fff;"/><line x1="346.54" y1="434.33" x2="346.54" y2="597.93" style="fill:none; stroke:#000; stroke-miterlimit:10; stroke-width:5px;"/><line x1="1802.01" y1="150.1" x2="1802.01" y2="313.7" style="fill:none; stroke:#000; stroke-miterlimit:10; stroke-width:5px;"/><rect x="1728.69" y="18.69" width="77.32" height="131.41" style="fill:#1b5b1b;"/><rect x="1570.71" y="18.69" width="77.32" height="131.41" style="fill:#1b5b1b;"/><rect x="344.54" y="297.57" width="235.3" height="29.64" style="fill:#e09214;"/><rect x="344.54" y="404.23" width="235.3" height="29.64" style="fill:#1b5b1b;"/><circle cx="462.18" cy="365.72" r="21.67" style="fill:#e09214;"/><path d="M1494.2,734.35c80.56,62.64,113.22,161.73,83.98,243.57-18.58,52-62.68,98.52-118.64,115.81-96.65,29.86-191.31-39.04-251.06-73.06-252.35-143.71-665.74-111.77-815.38,72.63-94.58,116.55-112.64,329.55-19.81,455.56,192.7,261.57,888.18,182.25,1168.61-36.31,28.61-22.3,98.37-81.48,204.67-99.03,136.63-22.56,259.92,35.77,340.02,85.83" style="fill:none; stroke:#1a3047; stroke-miterlimit:10; stroke-width:160px;"/></svg>