<?xml version="1.0" encoding="UTF-8"?><svg id="a" xmlns="http://www.w3.org/2000/svg" width="1928.81" height="274.2" viewBox="0 0 1928.81 274.2"><rect y="-24.86" width="1926.5" height="301.75" style="fill:#897e75;"/><path d="M51.95-18.45c-.17,10.34-.34,20.69-.52,31.03-.07,4.45-.65,9.41,1.74,13.41,1.7,2.84,4.53,4.85,7.47,6.25,16.21,7.72,35.13,1.56,51.57,8.3,13.12,5.38,20.6,17.86,31.12,26.65,12.73,10.63,29.45,13.62,45.61,14.08,9.28.26,18.44-.62,27.69-1.19,4.91-.3,9.95-.44,14.81.48,3.78.71,7.84,2.01,10.79,4.59,1.17,1.02,2.14,2.21,2.58,3.71.55,1.85,3.44,1.06,2.89-.8-2.21-7.46-11.95-10.11-18.72-10.87-9.6-1.07-19.31.63-28.91,1-8.75.33-17.59.14-26.24-1.26-7.98-1.29-15.94-3.57-22.85-7.86-11.76-7.29-18.91-19.83-30.41-27.46-6.93-4.59-14.83-6.62-23.04-7.3-9.06-.76-18.27-.14-27.22-2.05-3.66-.78-7.34-1.9-10.52-3.91s-5.15-4.94-5.38-8.84c-.29-4.92.08-9.94.16-14.87s.17-10.26.26-15.39l.13-7.7c.03-1.93-2.97-1.93-3,0h0Z" style="fill:#c9c3c1;"/><path d="M14.91,276.55c-.45-7.98.09-16,1.68-23.84.81-4.01,1.88-7.96,3.18-11.83,1.21-3.61,2.52-7.32,4.34-10.68,1.65-3.04,4.07-4.97,7.42-5.85,3.88-1.02,7.99-1.19,11.95-1.79,8.22-1.24,16.35-3.11,24.26-5.66,3.01-.97,6.78-2.11,8.42-5.08,1.84-3.33-.16-7-1.68-10.01-3.92-7.77-7.85-15.54-11.77-23.31-7.87-15.58-15.96-31.07-23.61-46.76-.51-1.04-1.16-2.43-.81-3.61.46-1.54,2.66-1.78,3.99-1.87,4.16-.29,8.39-.15,12.56-.2,8.81-.11,17.63-.22,26.44-.33,2.16-.03,4.32-.05,6.49-.08,1.93-.02,1.93-3.02,0-3-8.98.11-17.96.22-26.94.34-4.49.06-8.98.11-13.47.17-3.39.04-8.1-.53-10.75,2.11-2.25,2.24-1.32,5.49-.1,7.99,1.95,4,4.01,7.94,6.01,11.91,4.04,7.99,8.07,15.98,12.11,23.98,4.04,7.99,8.07,15.98,12.11,23.98,1.97,3.89,3.97,7.77,5.9,11.68.72,1.46,1.65,3.33,1.15,4.99s-2.26,2.48-3.7,3.1c-3.69,1.58-7.74,2.57-11.61,3.57-4.12,1.06-8.29,1.95-12.48,2.67s-8.33,1.08-12.48,1.75c-3.6.58-7.15,1.75-9.68,4.51-2.32,2.53-3.58,5.82-4.84,8.96-1.54,3.82-2.86,7.74-3.93,11.73-2.12,7.92-3.26,16.13-3.32,24.33-.01,2.04.04,4.09.16,6.13.11,1.92,3.11,1.93,3,0h0Z" style="fill:#c9c3c1;"/><path d="M158.67,165.54c4.99,7.95,10.64,15.47,16.81,22.54,3.19,3.65,6.51,7.18,9.96,10.58,1.76,1.74,3.54,3.44,5.36,5.11,1.56,1.44,3.18,2.85,5.29,3.36,4.58,1.1,9.26-1.49,13.46-2.98,4.49-1.59,9.04-2.99,13.63-4.23,9.31-2.51,18.81-4.34,28.38-5.5,9.73-1.18,19.55-1.7,29.35-1.55,4.85.07,9.75.22,14.58.74,2.12.23,4.37.66,6,2.14,1.36,1.24,2.15,2.91,2.98,4.51,3.93,7.55,9.67,14.09,16.26,19.44,3.41,2.78,7.13,5.71,11.19,7.48,4.51,1.97,9.43,1.51,14.22,1.25,21.21-1.15,42.41-2.29,63.62-3.44,2.65-.14,5.3-.29,7.95-.43,1.92-.1,1.93-3.1,0-3-21.04,1.14-42.08,2.27-63.12,3.41-5.02.27-10.11.8-15.14.7-2.34-.05-4.64-.39-6.77-1.43-2-.97-3.86-2.27-5.68-3.54-7.03-4.93-13.34-11.08-17.9-18.39-1.94-3.12-3.2-6.98-6.2-9.29-3.53-2.72-8.56-2.59-12.8-2.83-9.73-.57-19.49-.47-29.21.28-18.88,1.46-37.67,5.28-55.41,11.95-2.13.8-4.32,1.78-6.62,1.93-2.44.15-4.08-.99-5.79-2.57-3.62-3.32-7.12-6.77-10.49-10.34-6.39-6.78-12.31-14.01-17.58-21.7-1.29-1.89-2.55-3.8-3.77-5.74-1.02-1.63-3.62-.13-2.59,1.51h0Z" style="fill:#c9c3c1;"/><path d="M405.11,13.21c-10.73,6.06-21.01,12.9-30.62,20.61-4.47,3.58-8.82,7.34-12.94,11.33-1.9,1.85-3.94,4.03-4.05,6.84s1.97,5.28,3.72,7.32c7.96,9.29,15.01,19.29,20.69,30.14.67,1.29,1.33,2.58,1.96,3.89.31.65.63,1.3.93,1.96.24.52.74,1.32.51,1.89-.4.94-2.63,1.31-3.46,1.58-1.74.56-3.47,1.12-5.21,1.67-6.39,2.05-12.78,4.11-19.17,6.16-14.43,4.64-28.87,9.28-43.3,13.93-1.83.59-1.05,3.49.8,2.89,12.94-4.16,25.87-8.32,38.81-12.48,6.47-2.08,12.94-4.16,19.4-6.24,3.16-1.01,6.31-2.03,9.47-3.04,2.46-.79,5.85-1.71,5.72-4.92-.05-1.25-.73-2.44-1.25-3.54-.65-1.37-1.32-2.74-2.01-4.09-1.37-2.67-2.82-5.3-4.35-7.89-3.1-5.23-6.51-10.28-10.19-15.12-1.94-2.56-3.95-5.06-6.03-7.51-1.54-1.82-4.57-4.43-3.97-7.11.29-1.29,1.3-2.37,2.18-3.29,1.08-1.13,2.24-2.18,3.39-3.24,2.1-1.94,4.25-3.84,6.43-5.69,10.55-8.91,22.03-16.68,34.05-23.46,1.68-.95.17-3.54-1.51-2.59h0Z" style="fill:#c9c3c1;"/><path d="M513.68-24.4c-10.82,13.15-22.63,25.45-35.19,36.93-.85.77-.39,2.21.66,2.51,15.73,4.39,30.93,10.81,44.69,19.66,6.33,4.07,12.57,8.64,17.89,13.98,1.38,1.39,2.77,2.93,3.55,4.76.87,2.07.62,4.25-.04,6.34-.71,2.27-1.81,4.4-2.8,6.55s-1.96,4.23-2.94,6.35c-4.55,9.83-9.1,19.66-13.65,29.49-.81,1.74,1.78,3.27,2.59,1.51,4.24-9.15,8.47-18.3,12.71-27.45,2.07-4.46,4.28-8.89,6.16-13.44,1.72-4.16,2.25-8.47-.28-12.42-2.18-3.4-5.47-6.08-8.54-8.64s-6.21-4.94-9.47-7.19c-6.76-4.66-13.93-8.7-21.36-12.18-8.92-4.18-18.21-7.56-27.69-10.21l.66,2.51c12.57-11.48,24.38-23.78,35.19-36.93,1.22-1.48-.89-3.61-2.12-2.12h0Z" style="fill:#c9c3c1;"/><path d="M588.81,279.36c-7.63-13.76-17.75-26.07-29.29-36.74-2.65-2.45-5.35-4.96-8.71-6.4-3.84-1.65-8.06-1.64-12.16-1.55-8.55.19-17.08-.32-25.51-1.83-4.06-.72-8.08-1.65-12.05-2.8-3.72-1.08-7.68-2.19-11.11-4.01-1.53-.81-3.08-1.94-3.3-3.8-.21-1.71.54-3.49,1.23-5.01,1.73-3.78,3.49-7.51,4.94-11.4,2.91-7.83,4.88-15.98,5.85-24.28.46-3.9.93-8.04.62-11.96-.13-1.65-.58-3.21-1.66-4.49s-2.73-2.06-4.32-2.65c-4.09-1.5-8.41-2.52-12.59-3.74-4.31-1.26-8.63-2.52-12.94-3.77-8.71-2.54-17.41-5.08-26.12-7.62-2.16-.63-4.31-1.26-6.47-1.89-1.86-.54-2.65,2.35-.8,2.89,17.25,5.03,34.51,10.06,51.76,15.09,1.93.56,3.88,1.08,5.79,1.72,1.54.52,3.31,1.22,3.99,2.83.64,1.52.42,3.38.37,4.98-.06,2.04-.18,4.08-.37,6.11-.76,8.25-2.62,16.4-5.37,24.21-1.41,4.01-3.1,7.88-4.93,11.72-1.47,3.08-2.91,6.66-1.22,9.95s5.52,4.49,8.63,5.64c3.8,1.4,7.68,2.58,11.62,3.55,8.11,2.01,16.45,3.16,24.8,3.51,4.23.18,8.45-.05,12.68.02s7.66.93,10.94,3.37c3.08,2.29,5.84,5.12,8.56,7.81s5.48,5.63,8.06,8.6c5.06,5.82,9.67,12.04,13.69,18.62.97,1.59,1.91,3.2,2.81,4.84s3.53.18,2.59-1.51h0Z" style="fill:#c9c3c1;"/><path d="M606.27,168.45c7.15-12.83,17.44-23.73,29.05-32.66,13.25-10.19,28.31-18.01,44.02-23.65,2.13-.76,4.27-1.47,6.41-2.17,1.76-.57,3.74-1.23,4.83-2.84,2.68-3.97-2.97-8.28-5.36-10.75-7.01-7.29-13.91-14.67-20.71-22.16-3.34-3.69-6.66-7.4-9.95-11.13-1.64-1.86-3.27-3.73-4.89-5.6s-3.46-3.67-4.79-5.74c-.49-.76-1.05-1.72-.69-2.64.32-.83,1.21-1.33,1.95-1.72,1.99-1.05,4.26-1.6,6.39-2.29,4.98-1.61,9.96-3.22,14.93-4.83,8.43-2.73,17.36-5.26,24.76-10.3,5.85-3.99,11.56-11.21,8.59-18.68-.69-1.73-1.78-3.23-3.14-4.5s-3.53.8-2.12,2.12c2.62,2.45,3.64,5.74,2.64,9.22s-3.7,6.53-6.68,8.69c-7.12,5.16-15.87,7.66-24.13,10.33-4.9,1.59-9.8,3.17-14.7,4.76-2.22.72-4.48,1.36-6.64,2.25-1.67.7-3.44,1.63-4.37,3.26-2.3,4.04,2.42,8.19,4.78,10.93,3.24,3.75,6.52,7.48,9.81,11.19,6.6,7.41,13.3,14.71,20.11,21.92,3.42,3.62,7.02,7.12,10.35,10.82.57.64,1.34,1.47,1.5,2.35.17.96-.72,1.44-1.47,1.79-1.9.89-4.03,1.38-6.01,2.06-15.63,5.39-30.66,12.82-44.05,22.57-11.88,8.65-22.6,19.14-30.47,31.61-.89,1.4-1.73,2.83-2.54,4.28-.94,1.69,1.65,3.2,2.59,1.51h0Z" style="fill:#c9c3c1;"/><path d="M781.85,275.02c-8.41-14.37-20.5-26.23-34.08-35.73v2.59c19.07-10.25,37.93-20.88,56.56-31.9,18.33-10.85,36.43-22.08,54.28-33.7,2.11-1.37,4.28-2.69,6.28-4.23,1.62-1.25,3.28-2.75,3.9-4.77,1.41-4.62-4.06-7.3-7.19-9.27-8.36-5.25-16.39-11.02-23.95-17.36-7.25-6.08-14.08-12.68-20.32-19.79-1.46-1.67-2.89-3.36-4.29-5.09-1.47-1.82-3.07-3.65-4.18-5.72-.48-.9-.91-1.98-.66-3.02s1.16-1.75,2.04-2.28c1.91-1.15,4.09-1.78,6.17-2.54,17.54-6.35,34.29-15.47,48.25-27.93,1.61-1.44,3.18-2.92,4.71-4.45,1.37-1.37-.75-3.49-2.12-2.12-13.03,13.04-29.22,22.74-46.27,29.57-2.25.9-4.52,1.75-6.81,2.56-2.06.73-4.25,1.44-6.05,2.72-1.68,1.19-2.97,2.87-2.99,5.02-.03,2.37,1.34,4.55,2.7,6.38,5.48,7.35,11.75,14.16,18.37,20.49,7,6.68,14.51,12.82,22.37,18.45,4.06,2.91,8.23,5.69,12.48,8.32,1.57.98,4.05,2.1,4.81,3.92s-1.55,3.63-2.8,4.59c-4.11,3.15-8.71,5.78-13.06,8.57s-8.87,5.67-13.33,8.47c-9.04,5.68-18.14,11.25-27.3,16.74-18.47,11.06-37.17,21.72-56.08,32-2.34,1.27-4.68,2.54-7.03,3.8-1.06.57-.88,1.98,0,2.59,13.16,9.2,24.85,20.74,33,34.65.98,1.66,3.57.16,2.59-1.51h0Z" style="fill:#c9c3c1;"/><path d="M786.96-20.69c-2.72,8-.62,16.48,1.23,24.42,1.7,7.31,3.8,15.7-.06,22.71-4.42,8.03-14.14,10.85-20.76,16.61-2.92,2.54-5.15,5.83-5.78,9.7-.59,3.63.08,7.29,1.08,10.78,2.15,7.48,7.06,16.35,2.75,23.94-.95,1.68,1.64,3.2,2.59,1.51,3.97-7,1.34-14.74-1.03-21.79-1.17-3.48-2.44-7.08-2.61-10.78s1.04-7.12,3.63-9.83c6.26-6.54,15.72-8.99,21.26-16.38,5.04-6.74,4.41-15.17,2.78-22.96-1.84-8.8-5.23-18.2-2.19-27.12.62-1.83-2.27-2.62-2.89-.8h0Z" style="fill:#c9c3c1;"/><path d="M919.06-19.01c10.22,11.2,22.25,20.68,35.17,28.57,6.7,4.09,13.75,7.41,20.64,11.14,2.96,1.6,5.96,3.36,8.28,5.84,2.44,2.61,2.97,5.61,1.83,9-.66,1.97-1.66,3.82-2.51,5.71s-1.7,3.98-2.4,6.03c-1.34,3.9-2.28,7.93-2.83,12.02-.28,2.09-.46,4.19-.52,6.29-.05,1.81-.19,3.8.29,5.57.91,3.36,4.32,4.72,7.44,5.25,3.83.65,7.76.6,11.63.87,4.22.29,8.43.71,12.62,1.26,8.43,1.09,16.81,2.71,25.04,4.83,7.85,2.03,15.65,4.49,23.15,7.57,3.24,1.33,6.95,3.01,7.48,6.88.26,1.94.1,3.97.09,5.92,0,2.31-.01,4.62-.02,6.92s-.01,4.45-.02,6.68c0,1.93,2.99,1.93,3,0,.01-4.53.03-9.07.04-13.6.01-3.81.45-7.96-2.19-11.06-2.34-2.75-6.11-4.07-9.37-5.34-3.8-1.48-7.66-2.83-11.56-4.06-16.31-5.13-33.32-8.11-50.38-9.14-3.64-.22-7.51-.04-11.01-1.17-1.51-.49-2.82-1.32-3.13-2.98-.35-1.84-.14-3.9-.05-5.76.22-4.27.94-8.5,2.09-12.62s2.87-8.06,4.67-11.98c1.56-3.4,2.92-7.21,1.51-10.9-1.11-2.91-3.35-5.11-5.79-6.95-2.91-2.19-6.17-3.87-9.41-5.5-3.56-1.79-7.12-3.58-10.61-5.52-13.57-7.57-26.29-16.78-37.23-27.86-1.3-1.32-2.57-2.66-3.81-4.02s-3.42.7-2.12,2.12h0Z" style="fill:#c9c3c1;"/><path d="M948.2,149.87c-1.09,8.83-.38,17.84,2.02,26.4.62,2.19,1.34,4.35,2.16,6.48.64,1.64,1.24,3.41,2.5,4.7,2.96,3.03,7.86,1.87,11.58,1.51,18.75-1.8,37.65-2.06,56.44-.79,4.7.32,9.4.73,14.09,1.24,4.27.47,9.06.66,12.86,2.88,3.25,1.89,5.55,5.11,8.16,7.75,2.96,2.98,6.13,5.75,9.44,8.32,6.52,5.06,13.62,9.62,21.33,12.65,8.45,3.32,17.35,3.88,26.33,3.24,9.52-.68,19.01-1.93,28.5-2.95s19.04-2.05,28.55-3.07c2.4-.26,4.8-.52,7.2-.78,1.9-.2,1.92-3.21,0-3-18.77,2.02-37.54,4.06-56.32,6.06-8.9.95-18.06,1.82-26.87-.3-7.93-1.91-15.13-5.93-21.81-10.5-3.44-2.35-6.75-4.91-9.87-7.67-2.96-2.62-5.63-5.48-8.34-8.36s-5.86-4.97-9.77-5.91c-4.24-1.02-8.71-1.31-13.03-1.74-18.42-1.81-36.99-2.13-55.46-.98-4.63.29-9.25.67-13.86,1.15-1.86.19-4.04.6-5.84-.1-1.65-.64-2.24-2.42-2.83-3.93-3.23-8.24-4.9-17.04-4.66-25.9.06-2.14.23-4.28.49-6.41.24-1.91-2.77-1.89-3,0h0Z" style="fill:#c9c3c1;"/><path d="M1141.89,63.14c11.23-11.38,22.47-22.76,33.7-34.14l4.21-4.27c1.09-1.11,2.16-2.29,3.4-3.23,2.96-2.25,6.48-2.05,10-1.86,7.96.42,15.91.85,23.87,1.28,7.75.41,15.53,1.08,23.3,1.06,6.82-.02,14.02-.75,20.04-4.22,2.31-1.33,4.58-3.16,5.82-5.57s1.2-4.78.76-7.27-1.31-4.83-1.76-7.29c-.38-2.07-.24-4.16,1.54-5.54,2.99-2.3,7.63-2.14,11.18-2.59,4.22-.53,8.42-1.19,12.6-1.99,8.22-1.58,16.32-3.7,24.24-6.39,1.82-.62,1.04-3.52-.8-2.89-7.18,2.44-14.5,4.41-21.93,5.93-3.71.76-7.45,1.41-11.2,1.95-3.62.52-7.35.68-10.93,1.47-2.69.59-5.57,1.87-6.97,4.38-1.18,2.13-1.02,4.6-.55,6.91.94,4.61,3.63,9.77-.21,13.78-4.5,4.71-11.91,5.91-18.11,6.24-7.83.41-15.74-.36-23.56-.78-7.96-.43-15.91-.85-23.87-1.28-3.64-.19-7.62-.8-11.19.2-3.07.86-5.28,3.03-7.46,5.23-12.75,12.92-25.51,25.84-38.26,38.76-1.36,1.38.76,3.5,2.12,2.12h0Z" style="fill:#c9c3c1;"/><path d="M1255.57,95.26c-3.56,12.98-5.69,26.35-6.23,39.8-.12,3.08-.38,6.3-.06,9.38.28,2.67,1.66,4.77,4.11,5.94,2.61,1.24,5.55,1.52,8.37,1.93,3.32.49,6.63,1.03,9.93,1.6,13.04,2.27,25.97,5.19,38.72,8.78,6.24,1.76,12.44,3.68,18.58,5.77,5.21,1.78,11.39,3.48,15.28,7.62,2.28,2.43,3.14,5.67,4.06,8.78,1.11,3.74,2.21,7.49,3.32,11.23,2.24,7.57,4.48,15.13,6.71,22.7.55,1.85,3.44,1.06,2.89-.8-1.98-6.69-3.96-13.38-5.94-20.07-.99-3.34-1.98-6.69-2.97-10.03-.85-2.88-1.57-5.85-2.7-8.64-1.02-2.52-2.47-4.78-4.58-6.53s-4.62-3.06-7.18-4.16c-5.75-2.45-11.8-4.29-17.76-6.14-12.42-3.84-25.05-7.02-37.79-9.57-6.56-1.31-13.16-2.46-19.78-3.44-2.67-.4-5.72-.56-8.13-1.88-2.56-1.4-2.23-4.21-2.22-6.74.1-15.12,2.27-30.16,6.26-44.74.51-1.86-2.38-2.66-2.89-.8h0Z" style="fill:#c9c3c1;"/><path d="M1257.37,279.04c1.96-4.4.43-8.88-.93-13.21-.62-1.99-1.28-4.06-1.19-6.16s1.31-3.73,3.04-4.84c2.5-1.59,5.45-2.32,8.14-3.52s4.89-2.85,6.55-5.16c2.97-4.14,2.78-9.47-.33-13.46-3.98-5.12-10.77-7.45-16.99-8.18-1.91-.23-1.9,2.78,0,3,5.19.61,10.85,2.59,14.35,6.66,3,3.48,2.67,8.18-.47,11.46-3.91,4.08-10.14,4.11-14.32,7.78-3.28,2.87-3.36,7.03-2.33,10.97s3.74,8.99,1.89,13.15c-.78,1.75,1.81,3.28,2.59,1.51h0Z" style="fill:#c9c3c1;"/><path d="M1429.71,81.08c-.04-6.83-.08-13.67-.12-20.5l-.06-10-.03-5c0-1.29-.35-3.14.19-4.36.99-2.22,5.39-1.52,7.28-1.44,3.31.14,6.63.28,9.94.41,6.8.28,13.59.57,20.39.85,13.42.56,26.85,1.12,40.27,1.68,6.8.28,13.59.57,20.39.85,3.31.14,6.63.28,9.94.41,2.85.12,5.87.45,8.65-.3s4.57-2.8,4.74-5.7c.1-1.62-.22-3.3-.39-4.91-.19-1.8-.38-3.6-.57-5.4-.8-7.52-1.59-15.05-2.39-22.57-.2-1.9-3.2-1.92-3,0,.71,6.71,1.42,13.41,2.13,20.12.35,3.27.69,6.54,1.04,9.81.12,1.14.35,2.38.11,3.52-.28,1.34-1.39,1.97-2.64,2.28-2.76.69-5.87.22-8.67.1-3.31-.14-6.63-.28-9.94-.41-6.8-.28-13.59-.57-20.39-.85-13.42-.56-26.85-1.12-40.27-1.68-6.8-.28-13.59-.57-20.39-.85-3.31-.14-6.63-.29-9.94-.41-2.5-.1-5.49-.19-7.58,1.43-2.53,1.96-1.91,5.6-1.9,8.41l.07,11.5.14,23c.01,1.93,3.01,1.93,3,0h0Z" style="fill:#c9c3c1;"/><path d="M1487.49,160.73c-.03,8.1-.05,16.2-.08,24.29-.01,3.97-.03,7.93-.04,11.9,0,3.08-.17,6.38,2.8,8.21,2.63,1.62,6.11,1.33,9.05,1.11,3.75-.28,7.51-.5,11.26-.64,7.69-.28,15.38-.24,23.07.12,15.08.7,30.1,2.61,44.85,5.81,7.23,1.57,14.46,3.37,21.49,5.68,3.17,1.04,6.5,2.3,8.92,4.7s3.69,5.63,5.08,8.66c3.73,8.09,7.45,16.17,11.18,24.26,1.46,3.16,2.45,6.56,5.55,8.48,2.1,1.3,5.53,2.22,7.03-.42.95-1.68-1.64-3.2-2.59-1.51-.72,1.26-4.05-1.4-4.53-2.04-.91-1.2-1.4-2.87-2.03-4.23-.83-1.8-1.66-3.59-2.48-5.39-3.24-7.04-6.49-14.08-9.73-21.11-1.28-2.78-2.52-5.58-4.52-7.93-2.12-2.49-4.98-4.04-7.97-5.24-6.42-2.59-13.38-4.2-20.11-5.79-14.15-3.33-28.58-5.48-43.08-6.52-7.2-.52-14.42-.75-21.63-.71s-14.49.65-21.74.94c-1.62.07-3.44.12-4.96-.53s-1.84-1.82-1.88-3.3c-.12-4.17.02-8.36.03-12.53.03-8.76.06-17.52.08-26.28,0-1.93-2.99-1.93-3,0h0Z" style="fill:#c9c3c1;"/><path d="M1597.59,116.05c7.28-6.3,15.81-11.14,24.74-14.67,2.2-.87,5-2.37,7.43-1.95,2.01.35,3.16,2.3,4.32,3.78,2.83,3.64,5.82,7.16,8.95,10.54,6.45,6.97,13.5,13.38,20.95,19.26,3.88,3.05,7.86,5.98,11.94,8.75,2.09,1.42,4.2,2.81,6.34,4.15,1.08.68,2.17,1.35,3.26,2.01.5.3.93.61,1.54.53s1.34-.5,1.93-.74c18.66-7.45,39.16-9.05,59.04-9.92,5.12-.22,10.24-.42,15.36-.54s9.58.26,13.42,3.59c3.3,2.87,6.02,6.45,9.08,9.57,3.25,3.32,6.64,6.5,10.15,9.55,7.36,6.4,15.21,12.24,23.41,17.52,4.24,2.73,8.58,5.32,13,7.76,3.44,1.9,7.21,3.95,11.29,3.59,1.68-.14,3.15-.76,4.12-2.18,1.09-1.6-1.51-3.1-2.59-1.51-.96,1.41-3.99.62-5.28.27-2.59-.7-4.89-2.12-7.21-3.42-5.28-2.96-10.45-6.13-15.48-9.51-9.68-6.52-18.82-13.85-27.14-22.04-2.01-1.98-3.97-4.01-5.88-6.08-1.71-1.86-3.31-3.84-5.21-5.52-2.01-1.78-4.32-3.16-6.93-3.87-2.98-.81-6.14-.8-9.2-.71-12.51.34-25.04.78-37.49,2.14-13.29,1.45-26.62,3.93-39,9.13l1.16.15c-13.3-8.03-25.81-17.41-36.9-28.32-5.19-5.1-10.07-10.53-14.52-16.28-2.16-2.79-4.37-5.12-8.23-4.63-2.01.25-3.93,1.06-5.81,1.79-1.77.69-3.53,1.42-5.27,2.2-7.73,3.47-15.01,7.94-21.42,13.49-1.46,1.27.67,3.38,2.12,2.12h0Z" style="fill:#c9c3c1;"/><path d="M1675.22-22.07c-.04,4.96-.08,9.92-.12,14.88-.02,2.18-.21,4.43,0,6.6.16,1.64.8,3.15,2.22,4.08,1.67,1.1,3.77,1.02,5.66.73,2.17-.33,4.32-.87,6.48-1.26,4.44-.8,8.91-1.4,13.4-1.81,17.78-1.61,35.91-.39,53.23,3.95,4.16,1.04,8.43,2.12,12.36,3.86,3.59,1.58,6.75,3.8,7.15,8,.19,1.94.01,3.91.05,5.85s.2,3.78.45,5.66c.51,3.8,1.43,7.53,2.75,11.13,2.79,7.6,7.15,14.52,12.5,20.58s11.77,11.93,20.25,13.11c4.53.63,9.09.31,13.64.22s9.45,0,14.16.29c9.42.57,18.79,1.91,27.98,4.05,2.26.53,4.51,1.11,6.75,1.73,1.86.52,2.66-2.37.8-2.89-8.9-2.48-18-4.18-27.19-5.18-9.28-1.01-18.5-1.04-27.82-.85-4.31.09-8.74.02-12.82-1.55-3.7-1.43-6.75-4.07-9.57-6.79-5.86-5.66-10.82-12.27-14.23-19.69-3.13-6.8-4.78-14.21-4.67-21.7.06-3.93-.07-7.81-2.97-10.81-2.7-2.8-6.62-4.27-10.23-5.45-16.48-5.41-34.23-7.51-51.52-7.12-8.84.2-17.68,1.1-26.37,2.74-2.06.39-4.17,1.04-6.27,1.14-1.75.08-3.05-.44-3.22-2.29-.21-2.23,0-4.57.03-6.81.02-2.4.04-4.8.06-7.19l.06-7.19c.02-1.93-2.98-1.93-3,0h0Z" style="fill:#c9c3c1;"/><path d="M1754.39,220.99c2.1,5.2-1.13,10.61-.16,15.95.77,4.27,3.88,7.68,8.01,8.94,2.82.86,5.84.67,8.73.34,3.2-.37,6.39-.78,9.59-1.14,6.48-.72,12.98-1.32,19.48-1.82,12.97-.99,25.98-1.54,38.99-1.67,6.47-.06,12.94-.02,19.41.14,3.27.08,6.55.18,9.82.31,3.02.12,6.3-.04,9.26.62,3.23.72,4.04,3.61,5.27,6.32,1.53,3.38,3.07,6.76,4.6,10.13,3.07,6.76,6.13,13.51,9.2,20.27.8,1.76,3.38.23,2.59-1.51-2.73-6.01-5.45-12.01-8.18-18.02-1.36-3-2.73-6.01-4.09-9.01-1.17-2.58-2.13-5.52-3.73-7.87-1.49-2.18-3.74-3.11-6.29-3.44-3.01-.39-6.09-.39-9.12-.51-6.55-.26-13.1-.41-19.65-.45-12.94-.08-25.88.27-38.79,1.05s-25.89,2.21-38.82,3.64c-3,.33-6.3.55-9.05-.92-1.92-1.03-3.34-2.74-4-4.82-.78-2.44-.38-4.88.04-7.35.57-3.34,1.09-6.74-.23-9.99-.72-1.77-3.62-.99-2.89.8h0Z" style="fill:#c9c3c1;"/><path d="M1856.65,146.21c.55-7.25,3.1-14.19,6.99-20.31.76-1.2,1.56-2.49,2.95-3.01s2.89-.12,4.15.6c2.39,1.38,4.21,3.56,6.68,4.82,5.17,2.65,11.47,2.14,16.9.62,2.79-.78,5.52-1.89,8.06-3.29s4.95-3.28,7.28-5.11c5.54-4.33,11.04-8.55,18.07-10.02,1.89-.4,1.09-3.29-.8-2.89-6.51,1.37-11.91,4.95-17.07,8.98-2.42,1.89-4.79,3.87-7.39,5.51s-5.34,2.85-8.23,3.72c-5.35,1.62-11.97,2.38-16.81-1.03-2.41-1.69-4.45-4.03-7.37-4.87-3.17-.91-6.15.42-8.04,3-4.9,6.65-7.75,15.08-8.37,23.27-.15,1.93,2.85,1.92,3,0h0Z" style="fill:#c9c3c1;"/><path d="M1881.46,12.72c2.24,7.52,7.29,13.81,13.44,18.57.53.41,1.2.61,1.82.23,8.87-5.37,17.74-10.73,26.6-16.1,1.65-1,.14-3.59-1.51-2.59-8.87,5.37-17.74,10.73-26.6,16.1l1.82.23c-5.74-4.44-10.57-10.2-12.67-17.24-.55-1.85-3.45-1.06-2.89.8h0Z" style="fill:#c9c3c1;"/></svg>