<?xml version="1.0" encoding="UTF-8"?><svg id="a" xmlns="http://www.w3.org/2000/svg" width="1358.14" height="1358.14" viewBox="0 0 1358.14 1358.14"><path d="M1358.14,679.07c0,372.53-306.54,679.07-679.07,679.07S0,1051.6,0,679.07h1358.14Z" style="fill:#7c6e60;"/><path d="M1358.14,679.07H0C0,306.54,306.54,0,679.07,0s679.07,306.54,679.07,679.07Z" style="fill:#09557e;"/><path d="M124.24,283.33c-25.92,36.32-43.97,70.97-56.6,99.93,76.14,9.23,109.69,36.31,126.01,60.82,19.52,29.31,17.97,46.74,40.82,91.5,15.21,29.79,43.51,57.58,76.88,55.16,19.33-1.4,36.31-12.63,52.95-22.56,45.83-27.36,96.12-47.23,148.28-58.58,23.24-5.06,51.68-12.81,56.78-36.04,5.78-26.32-24.92-46.32-51.67-49.55-26.75-3.23-56.36.76-78.38-14.77-42.06-29.65-21.32-101.49-55.06-140.34-20.2-23.26-70.54-31.62-167.96-51.42-12.92-2.62-23.64-4.6-30.93-5.9-19.16,18.94-40.38,42.69-61.13,71.76Z" style="fill:#0d3d20;"/><path d="M544.9,112.82c-10.02,1.69-30.93.42-49.94,1.06-1.65.06-5.63.31-8.63,3.04-2.65,2.42-3.35,6.28-3.57,9.87-.76,12.4,2.44,25.01,9.02,35.55,7.75,12.42,19.91,21.82,26.54,34.88,8.17,16.11,6.73,35.14,6.9,53.2.17,18.06,3.1,38.02,16.91,49.67,18.31,15.46,46.85,8.71,66.68-4.74,19.83-13.45,35.77-32.61,57.31-43.11,14.17-6.92,30.04-9.7,44.38-16.25,14.34-6.56,27.9-18.63,29.22-34.35,1.32-15.81-10.14-29.99-23.15-39.08s-28.14-15.02-40.31-25.19c-19.95-16.66-15.69-25.55-35.54-42.16-10.54-8.82-29.07-24.33-48.26-20.83-24.24,4.41-22.39,34.2-47.53,38.43Z" style="fill:#0d3d20;"/><path d="M769.27,51.2c12.39,8.83,21.97,4.29,44.92,8.06,22.84,3.75,43.9,17.35,56.72,36.62,11.78,17.7,17.38,40.38,34.44,53.07,18.97,14.11,45.63,10.89,68.06,3.41,20.58-6.86,37.03-13.34,46.34-19.46,12.69-8.33,21.82-17.34,27.9-24.26-33.87-22.08-79.02-47.14-135.03-67.64-62.2-22.77-118.13-32.74-161.11-37.17.25,16.42,3.34,37.1,17.77,47.38Z" style="fill:#0d3d20;"/><path d="M1115.45,158.75c-38.32,52.04-76.02,70.83-103.73,78.25-43.99,11.79-64.56-.89-110.43,15.24-31.21,10.98-56.35,35.26-74.29,63.05-17.94,27.8-29.43,59.17-40.47,90.35-2.17,6.12-4.34,12.33-4.81,18.8-1.98,27.38,27.94,48.07,55.39,48.02,27.45-.05,52.61-14.05,77.56-25.48,24.96-11.43,53.7-20.65,79.39-10.99,29.63,11.13,45.52,43.51,72.03,60.81,21.13,13.78,48.83,16.86,72.54,8.25,23.71-8.61,42.94-28.64,50.78-52.62,7.86-24.05,4.56-50.1,5.71-75.38.87-19.1,12.14-22.61,30.53-66.07,4-9.46,7.13-17.35,9.22-22.72-13.1-18.79-28.63-38.95-46.96-59.61-24.98-28.15-49.84-51.23-72.48-69.91Z" style="fill:#0d3d20;"/><path d="M1233.84,1074.21c25.92-36.32,43.97-70.97,56.6-99.93-76.14-9.23-109.69-36.31-126.01-60.82-19.52-29.31-17.97-46.74-40.82-91.5-15.21-29.79-43.51-57.58-76.88-55.16-19.33,1.4-36.31,12.63-52.95,22.56-45.83,27.36-96.12,47.23-148.28,58.58-23.24,5.06-51.68,12.81-56.78,36.04-5.78,26.32,24.92,46.32,51.67,49.55,26.75,3.23,56.36-.76,78.38,14.77,42.06,29.65,21.32,101.49,55.06,140.34,20.2,23.26,70.54,31.62,167.96,51.42,12.92,2.62,23.64,4.6,30.93,5.9,19.16-18.94,40.38-42.69,61.13-71.76Z" style="fill:#544726;"/><path d="M813.18,1244.73c10.02-1.69,30.93-.42,49.94-1.06,1.65-.06,5.63-.31,8.63-3.04,2.65-2.42,3.35-6.28,3.57-9.87.76-12.4-2.44-25.01-9.02-35.55-7.75-12.42-19.91-21.82-26.54-34.88-8.17-16.11-6.73-35.14-6.9-53.2-.17-18.06-3.1-38.02-16.91-49.67-18.31-15.46-46.85-8.71-66.68,4.74-19.83,13.45-35.77,32.61-57.31,43.11-14.17,6.92-30.04,9.7-44.38,16.25-14.34,6.56-27.9,18.63-29.22,34.35-1.32,15.81,10.14,29.99,23.15,39.08s28.14,15.02,40.31,25.19c19.95,16.66,15.69,25.55,35.54,42.16,10.54,8.82,29.07,24.33,48.26,20.83,24.24-4.41,22.39-34.2,47.53-38.43Z" style="fill:#544726;"/><path d="M588.81,1306.34c-12.39-8.83-21.97-4.29-44.92-8.06-22.84-3.75-43.9-17.35-56.72-36.62-11.78-17.7-17.38-40.38-34.44-53.07-18.97-14.11-45.63-10.89-68.06-3.41-20.58,6.86-37.03,13.34-46.34,19.46-12.69,8.33-21.82,17.34-27.9,24.26,33.87,22.08,79.02,47.14,135.03,67.64,62.2,22.77,118.13,32.74,161.11,37.17-.25-16.42-3.34-37.1-17.77-47.38Z" style="fill:#544726;"/><path d="M242.63,1198.79c38.32-52.04,76.02-70.83,103.73-78.25,43.99-11.79,64.56.89,110.43-15.24,31.21-10.98,56.35-35.26,74.29-63.05,17.94-27.8,29.43-59.17,40.47-90.35,2.17-6.12,4.34-12.33,4.81-18.8,1.98-27.38-27.94-48.07-55.39-48.02-27.45.05-52.61,14.05-77.56,25.48-24.96,11.43-53.7,20.65-79.39,10.99-29.63-11.13-45.52-43.51-72.03-60.81-21.13-13.78-48.83-16.86-72.54-8.25-23.71,8.61-42.94,28.64-50.78,52.62-7.86,24.05-4.56,50.1-5.71,75.38-.87,19.1-12.14,22.61-30.53,66.07-4,9.46-7.13,17.35-9.22,22.72,13.1,18.79,28.63,38.95,46.96,59.61,24.98,28.15,49.84,51.23,72.48,69.91Z" style="fill:#544726;"/><path d="M121.17,599.91c-8.32,6.42-11.21,14.99-14.1,23.3-3.32,9.52-5.77,19.87-3.19,29.61,1.71,6.43,5.48,12.09,7.93,18.27,8.01,20.2,1.14,42.81-4.2,63.87s-8.36,45.64,5.29,62.54c4.35,5.38,10.61,9.69,17.52,9.83,4.39.09,8.64-1.48,12.6-3.36,21.66-10.25,37.43-29.45,54.39-46.38,16.95-16.94,37.73-32.84,61.69-33.24,4.96-.08,10.05.5,14.78-1.01,8.65-2.76,13.84-12.02,14.79-21.04,2.25-21.31-14.24-40.2-32.34-51.67s-39.01-18.74-54.96-33.05c-12.22-10.97-13.64-20.09-26.08-24.68-12.33-4.55-25.48-2.08-33.3-.6-8.19,1.54-14.47,2.72-20.82,7.62Z" style="fill:#0d3d20;"/><path d="M1160.22,580.18c-8.32,6.42-11.21,14.99-14.1,23.3-3.32,9.52-5.77,19.87-3.19,29.61,1.71,6.43,5.48,12.09,7.93,18.27,8.01,20.2,1.14,42.81-4.2,63.87s-8.36,45.64,5.29,62.54c4.35,5.38,10.61,9.69,17.52,9.83,4.39.09,8.64-1.48,12.6-3.36,21.66-10.25,37.43-29.45,54.39-46.38,16.95-16.94,37.73-32.84,61.69-33.24,4.96-.08,10.05.5,14.78-1.01,8.65-2.76,13.84-12.02,14.79-21.04,2.25-21.31-14.24-40.2-32.34-51.67s-39.01-18.74-54.96-33.05c-12.22-10.97-13.64-20.09-26.08-24.68-12.33-4.55-25.48-2.08-33.3-.6-8.19,1.54-14.47,2.72-20.82,7.62Z" style="fill:#0d3d20;"/><path d="M114.32,679.57c-.15,15.47-1.74,27.82-3.11,36.05-4.11,24.73-9.62,32.72-8.41,52.19,1.12,17.97,6.73,25.91,10.1,29.68,2.01,2.25,8.31,9.64,17.52,9.83,4.39.09,8.64-1.48,12.6-3.36,21.66-10.25,37.43-29.45,54.39-46.38,16.95-16.94,37.73-32.84,61.69-33.24,4.96-.08,10.05.5,14.78-1.01,12.13-3.87,14.61-20.04,14.79-21.04,2.11-11.55-3.12-20.61-4.68-23.11-56.56.13-113.11.26-169.67.38Z" style="fill:#544726;"/><path d="M1154.18,679.07c-.99,4.05-2.38,9.84-3.99,16.81-8.79,38.18-8.78,46.26-8.41,52.19,1.12,17.97,6.73,25.91,10.1,29.68,1.77,1.98,8.06,8.38,17.52,9.83,8.72,1.34,17.81-1.92,35.46-16.15,18.89-15.21,18.21-19.31,33.43-32.47,16.6-14.35,40.67-35.16,61.97-34.15,3.03.14,11.69,1,18.28-4.21,4.23-3.34,6.41-8.24,7.06-9.73,2.12-4.88,2.37-9.28,2.32-11.82h-173.74Z" style="fill:#544726;"/><path d="M454.55,679.68c5.92-11.78,12.72-18.93,17.18-22.96,22.39-20.21,59.86-25.07,114.37-38.88,6.57-1.67,13.41-3.95,17.82-9.1,4.48-5.23,5.63-12.43,7.17-19.15,6.85-29.87,35.28-60.63,63.9-49.66,10.91,4.18,18.83,13.51,27.72,21.08,24.45,20.83,59.17,28.97,90.33,21.18,27.81-6.95,54.87-25.77,82.63-18.6,25.9,6.69,44.02,50,30.45,82.22-9.2,21.86-29.71,31.15-35.61,33.58-138.65.1-277.3.19-415.95.29Z" style="fill:#0d3d20;"/><path d="M455.73,763.54c-20.89-38.9-3.23-78.8-.94-83.75,138.85-.07,277.7-.14,416.54-.21-21.91,10.87-38.52,12.54-49.88,11.92-6.15-.34-15.85-1.49-24.69,4.12-5.43,3.45-8.83,9.3-11.5,15.15-8.72,19.12-11.77,40.31-18.67,60.17s-19.13,39.63-38.75,47.18c-44.51,17.11-87.77-45.92-142.45-27.03-18.37,6.35-17.08,14.95-35.72,18.82-31.79,6.61-74.53-10.23-93.94-46.36Z" style="fill:#544726;"/></svg>