<?xml version="1.0" encoding="UTF-8"?><svg id="a" xmlns="http://www.w3.org/2000/svg" viewBox="0 0 1922.87 533.79"><path d="M501.86,30.47c226.51-7.72,303.77,202.16,548.68,170.23,191.16-24.92,228.18-173.33,394.73-178.06,163-4.63,308.48,137.45,426.58,308.17-156.67,21.54-313.35,43.08-470.02,64.63H6.14L0,210.94c31.66-1.46,78.41-5.39,133.62-16.99C339.55,150.67,379.61,34.64,501.86,30.47Z" style="fill:#3d4230;"/><path d="M878.89,88.98c130.82-.88,244.96,51.64,301.38,78.92,182.54,88.27,194.44,168.82,286.33,162.06,130.17-9.58,180.18-115.92,348.62-208.71,23.43-12.91,61.71-32.31,112.82-50.21-1.94,152.66-3.87,305.31-5.81,457.97H2.23c1.32-118.5,2.64-237.01,3.95-355.51,24.71-.63,61.55-.21,105.55,5.7,144.04,19.37,187.51,89.99,266.83,92.94,216.24,8.05,249.5-181.49,500.33-183.17Z" style="fill:#555947;"/><rect x="8.04" y="330.82" width="1920" height="199.06" style="fill:#47433d;"/><path d="M584.61,128.19c-.88,3.92-2.6,9.48-6.31,15.21-5.1,7.88-9.28,9.11-9.82,13.93-.85,7.58,6.31,13.72,13.44,16.42,8,3.03,16.9,3.64,25.25,1.75,5.44-1.24,10.6-3.5,15.58-6.01,7-3.53,14.45-8.6,15.56-16.36-2.07-.57-10.64-3.16-16.26-11.92-5.99-9.32-4.27-18.85-3.88-20.79-11.19,2.59-22.37,5.18-33.56,7.77Z" style="fill:#a86e39;"/><rect x="530.23" y="212.18" width="23.36" height="61.31" transform="translate(7.51 -16.11) rotate(1.72)" style="fill:#a86e39;"/><rect x="662.59" y="184.9" width="25.96" height="74.2" transform="translate(-35.38 206.72) rotate(-16.96)" style="fill:#a86e39;"/><rect x="576.56" y="385.25" width="23.28" height="63.9" style="fill:#a86e39;"/><rect x="623.17" y="385.25" width="23.28" height="63.9" style="fill:#a86e39;"/><path d="M560.86,72.63c-4.84-1.99-9.74.84-10.19,1.1-2.7,1.61-4.15,3.93-6.33,8.73-3.56,7.85-5.64,12.45-7.04,20.4-1.94,11.11.34,12.27-1.45,18.36-1.5,5.09-5.4,12.07-16.63,18.78,1.18,1.5,7.4,9.17,17.56,9.81,9.18.58,15.61-4.95,19.05-7.92,9.89-8.52,12.26-19.9,14.08-28.62.41-1.97,3.54-17.86-2.33-32.4-1.6-3.97-3.5-6.92-6.74-8.25Z" style="fill:#422913;"/><path d="M648.93,77.66c-.49,22.64-17.76,37.87-23.3,42.76-5.78,5.1-13.95,12.31-25.56,12.42-10.32.1-17.84-5.48-23.46-9.77-6.5-4.96-29.5-22.52-28.29-49.69,1.1-24.69,21.94-51.76,50.74-51.54,30.45.23,50.41,30.85,49.87,55.82Z" style="fill:#a86e39; stroke:#7c4d27; stroke-miterlimit:10;"/><path d="M549.06,90.42c.04-1.02.13-2.53.37-4.33.27-2.05,1.99-19.91,15.62-29.77,6.77-4.9,12.06-4.32,18.69-9.69,8.96-7.26,12.03-18.29,13.23-26.33.52,5.66,5.62,9.84,10.88,11.99,7.44,3.03,11.2,4.46,16.11,5.48,6.43,1.34,15.16,9.74,25.32,40.61,1.54-5.2,3.49-14.38,1.23-25.03-5.09-24.01-29.2-44.45-55.57-43.92-19.76.4-32.76,12.42-34.86,14.41-17.39,16.58-16.38,39.4-16.16,44.52.42,9.54,3.01,17.16,5.12,22.06Z" style="fill:#422913;"/><path d="M571.48,149.15c-4.29,1.18-28.68,8.34-41.57,34.73-7.42,15.2-7.59,29.73-7.23,36.72,12.8.67,25.6,1.33,38.4,2,2.47-27.07,4.28-38.64,5.56-38.59,1.29.05,2.2,12.03,2.54,39.93-10.23,24.31-20.92,54.67-29.16,90.49-7.59,32.99-11.33,62.89-13.06,88.06,55.11-1.64,110.22-3.28,165.33-4.91-2.54-24.77-7.01-53.09-14.71-83.89-8.51-34.02-19.1-63.62-29.6-88.36-5.81-28.43-8.07-42.85-6.76-43.27,1.12-.36,4.86,9.58,11.22,29.81,13.28-2.85,26.56-5.7,39.83-8.54-2.79-7.82-8.29-20.24-18.93-32-14.66-16.21-30.95-22.21-38.84-24.49-.68,1.41-9.8,19.5-28.72,21.51-13.63,1.45-26.96-6.01-34.31-19.2Z" style="fill:#7c3d21;"/><rect x="553.45" y="449.16" width="46.41" height="15.93" style="fill:#a86e39;"/><rect x="623.17" y="449.16" width="47.78" height="15.93" style="fill:#a86e39;"/><path d="M571.45,69.4c1.59-.51,2.76-.5,5.79-.58,2.12-.06,5.25-.16,9.15-.37-.12-.7-.23-1.39-.35-2.09-3.56-.91-6.5-.96-8.39-.86-3.74.19-8.58.43-11,3.86-1.17,1.65-1.38,3.48-1.4,4.59,1.19-1.51,3.2-3.57,6.21-4.54Z" style="fill:#381f07;"/><path d="M625.59,68.35c-1.59-.51-2.76-.5-5.79-.58-2.12-.06-5.25-.16-9.15-.37.12-.7.23-1.39.35-2.09,3.56-.91,6.5-.96,8.39-.86,3.74.19,8.58.43,11,3.86,1.17,1.65,1.38,3.48,1.4,4.59-1.19-1.51-3.2-3.57-6.21-4.54Z" style="fill:#381f07;"/><path d="M567.38,79.34c1.55-1.45,4.36-3.67,8.44-4.85,2.69-.78,7.59-2.2,10.01.43,1.59,1.72,1.79,4.84.56,6.83-2.37,3.84-9.97,3.43-14.78.92-1.98-1.03-3.36-2.35-4.22-3.33Z" style="fill:#e5cbb5;"/><path d="M611.32,78.14c1.55-1.45,4.36-3.67,8.44-4.85,2.69-.78,7.59-2.2,10.01.43,1.59,1.72,1.79,4.84.56,6.83-2.37,3.84-9.97,3.43-14.78.92-1.98-1.03-3.36-2.35-4.22-3.33Z" style="fill:#e5cbb5;"/><circle cx="582.02" cy="79.86" r="4.74" transform="translate(370.58 627.96) rotate(-76.72)" style="fill:#2d190b;"/><circle cx="625.63" cy="78.37" r="4.85" style="fill:#2d190b;"/><path d="M567.57,79.32c2.35-1.65,4.87-3.06,7.53-4.15,2.05-.84,4.31-1.7,6.56-1.44,1.43.16,2.79.72,3.99,1.51.4.27.78-.38.38-.65-1.95-1.29-4.26-1.9-6.58-1.54-2.59.4-5.14,1.55-7.47,2.74-1.66.85-3.25,1.82-4.78,2.88-.39.27-.02.93.38.65h0Z"/><path d="M611.82,78.23c1.7-1.77,3.71-3.22,5.96-4.2,2.44-1.06,5.12-1.8,7.8-1.39,1.51.23,2.94.78,4.24,1.57.41.25.79-.4.38-.65-2.53-1.54-5.51-2.11-8.43-1.58-2.67.48-5.33,1.64-7.53,3.19-1.06.74-2.04,1.59-2.94,2.53-.33.35.2.88.53.53h0Z"/><path d="M595.15,115.2c4.04-1.46,8.39-1.86,12.62-1.07.94.18,1.35-1.27.4-1.45-4.49-.83-9.12-.48-13.42,1.07-.9.33-.51,1.78.4,1.45h0Z" style="fill:#381f07;"/><path d="M601.47,86.29c.85,2.12,2.04,4.09,3.62,5.75.57.61,1.24,1.12,1.8,1.74.33.37.42.64.4.95-.01.2-.1.54-.25.83-.25.47-.58.88-.94,1.26-1.44,1.52-3.25,2.68-5.02,3.76-.82.5-.07,1.8.76,1.3,1.88-1.15,3.81-2.39,5.33-3.99.77-.81,1.51-1.8,1.62-2.95.12-1.32-.77-2.17-1.67-3-1.82-1.69-3.26-3.72-4.19-6.04-.36-.88-1.81-.5-1.45.4h0Z" style="fill:#381f07;"/><path d="M815.24,133.78c-.88,3.92-2.6,9.48-6.31,15.21-5.1,7.88-9.28,9.11-9.82,13.93-.85,7.58,6.31,13.72,13.44,16.42,8,3.03,16.9,3.64,25.25,1.75,5.44-1.24,10.6-3.5,15.58-6.01,7-3.53,14.45-8.6,15.56-16.36-2.07-.57-10.64-3.16-16.26-11.92-5.99-9.32-4.27-18.85-3.88-20.79-11.19,2.59-22.37,5.18-33.56,7.77Z"/><path d="M813.8,133.38c-.93,4.08-2.33,8.04-4.32,11.73s-4.69,7.15-7.66,10.31c-1.87,1.99-3.69,4.05-4.13,6.84-.6,3.8.72,7.52,3.04,10.5,5.41,6.97,14.73,9.89,23.19,10.69,9.91.94,19.27-1.79,28.12-6.06,7.7-3.71,16.89-9,18.33-18.28.12-.8-.19-1.61-1.05-1.85-11.08-3.05-19.1-13.1-19.54-24.61-.08-2.11.04-4.2.45-6.25.23-1.13-.68-2.11-1.85-1.85-11.19,2.59-22.37,5.18-33.56,7.77-1.88.44-1.08,3.33.8,2.89,11.19-2.59,22.37-5.18,33.56-7.77l-1.85-1.85c-2.57,12.81,3.65,26.13,15.26,32.19,1.88.98,3.87,1.79,5.92,2.36l-1.05-1.85c-1.15,7.43-8.03,11.93-14.22,15.13-8.2,4.23-16.85,7.42-26.2,7.2-7.95-.19-16.92-2.38-22.67-8.22-2.43-2.47-4.22-5.77-3.81-9.33.27-2.4,1.98-4.08,3.55-5.76,6.18-6.59,10.53-14.32,12.55-23.16.43-1.88-2.46-2.68-2.89-.8Z"/><rect x="760.86" y="217.77" width="23.36" height="61.31" transform="translate(7.78 -23.01) rotate(1.72)" style="stroke:#000; stroke-miterlimit:10;"/><rect x="893.22" y="190.48" width="25.96" height="74.2" transform="translate(-26.98 274.23) rotate(-16.96)" style="stroke:#000; stroke-miterlimit:10;"/><rect x="807.19" y="390.84" width="23.28" height="63.9" style="stroke:#000; stroke-miterlimit:10;"/><rect x="853.81" y="390.84" width="23.28" height="63.9" style="stroke:#000; stroke-miterlimit:10;"/><path d="M791.5,78.22c-4.84-1.99-9.74.84-10.19,1.1-2.7,1.61-4.15,3.93-6.33,8.73-3.56,7.85-5.64,12.45-7.04,20.4-1.94,11.11.34,12.27-1.45,18.36-1.5,5.09-5.4,12.07-16.63,18.78,1.18,1.5,7.4,9.17,17.56,9.81,9.18.58,15.61-4.95,19.05-7.92,9.89-8.52,12.26-19.9,14.08-28.62.41-1.97,3.54-17.86-2.33-32.4-1.6-3.97-3.5-6.92-6.74-8.25Z"/><path d="M791.9,76.77c-5.02-1.92-11.36-.03-14.66,4.18-2.16,2.76-3.46,6.12-4.88,9.29s-2.81,6.38-3.88,9.7c-1.95,6.04-3.06,12.56-2.83,18.92.06,1.76.22,3.53-.06,5.28-.31,1.94-.96,3.85-1.81,5.61-3.08,6.35-8.72,10.97-14.65,14.55-.91.55-.9,1.6-.3,2.36,3.97,5.07,9.88,8.99,16.29,9.99,4.72.74,9.4-.01,13.71-2.04,3.23-1.52,6.05-3.72,8.73-6.05,7.07-6.15,10.99-14.56,13.19-23.52,1.51-6.16,2.53-12.36,2.53-18.73,0-5.66-.69-11.38-2.36-16.8-1.49-4.81-3.69-10.44-8.65-12.59-1.75-.76-3.28,1.82-1.51,2.59,4.05,1.75,5.79,6.22,7.06,10.15,1.51,4.65,2.26,9.51,2.42,14.39.2,5.9-.48,11.64-1.74,17.38-1.74,7.95-4.37,15.8-9.93,21.94-5.01,5.53-11.93,10.53-19.66,10.57-7.13.04-13.65-3.91-17.96-9.41l-.3,2.36c8.65-5.22,17.79-13.6,18.1-24.49.05-1.87-.14-3.73-.13-5.6.02-3.26.47-6.5,1.12-9.69,1.4-6.97,4.24-13.51,7.3-19.89,1.22-2.55,2.6-5.19,5.13-6.65,2.71-1.56,6-2.02,8.94-.9,1.81.69,2.59-2.21.8-2.89Z"/><path d="M879.56,83.25c-.49,22.64-17.76,37.87-23.3,42.76-5.78,5.1-13.95,12.31-25.56,12.42-10.32.1-17.84-5.48-23.46-9.77-6.5-4.96-29.5-22.52-28.29-49.69,1.1-24.69,21.94-51.76,50.74-51.54,30.45.23,50.41,30.85,49.87,55.82Z" style="stroke:#000; stroke-miterlimit:10;"/><path d="M779.69,96c.04-1.02.13-2.53.37-4.33.27-2.05,1.99-19.91,15.62-29.77,6.77-4.9,12.06-4.32,18.69-9.69,8.96-7.26,12.03-18.29,13.23-26.33.52,5.66,5.62,9.84,10.88,11.99,7.44,3.03,11.2,4.46,16.11,5.48,6.43,1.34,15.16,9.74,25.32,40.61,1.54-5.2,3.49-14.38,1.23-25.03-5.09-24.01-29.2-44.45-55.57-43.92-19.76.4-32.76,12.42-34.86,14.41-17.39,16.58-16.38,39.4-16.16,44.52.42,9.54,3.01,17.16,5.12,22.06Z"/><path d="M781.19,96c.06-1.5.2-3,.39-4.49.02-.17.04-.33.06-.5.01-.12.03-.23.05-.35-.04.33,0,0,.02-.13.24-1.64.55-3.28.94-4.89,1.24-5.15,3.24-10.12,6.22-14.52,1.78-2.64,3.94-5.01,6.41-7.03,2.9-2.36,6.21-3.9,9.68-5.21s6.82-2.78,9.79-5.07,5.25-4.84,7.23-7.81c3.93-5.87,6.02-12.79,7.07-19.72l-2.95-.4c.38,3.48,2.07,6.5,4.63,8.88,2.76,2.57,6.07,4.04,9.52,5.44,3.12,1.26,6.25,2.51,9.47,3.47,1.91.57,3.91.84,5.79,1.5.12.04.24.09.36.13.33.12-.13-.07.12.05s.51.23.75.36c.56.29,1.1.62,1.61.98,1.03.72,2.17,1.77,3.19,2.87,3.05,3.29,5.36,7.24,7.42,11.21,3.9,7.54,6.85,15.55,9.51,23.59.46,1.39,2.46,1.46,2.89,0,2.33-7.9,2.97-16.26,1.51-24.39-1.36-7.57-4.6-14.8-9.04-21.06-9.02-12.73-23.08-22.12-38.56-24.67-14.6-2.41-29.57,1.59-41.32,10.51-10.27,7.79-16.98,19.28-19.59,31.84-2.44,11.76-1.76,24.31,2.23,35.64.54,1.53,1.15,3.04,1.79,4.53.76,1.77,3.34.24,2.59-1.51-4.52-10.53-5.97-22.29-4.44-33.63,1.67-12.46,7.28-24.39,16.92-32.65,9.73-8.33,22.6-13,35.43-12.42,14.95.69,29.08,8.28,38.86,19.45,4.79,5.47,8.57,11.89,10.76,18.83,2.5,7.9,2.78,16.35,1.05,24.44-.31,1.45-.68,2.88-1.09,4.29h2.89c-2.43-7.34-5.11-14.63-8.46-21.61-2.16-4.49-4.6-8.88-7.73-12.77-1.9-2.37-4.15-4.61-6.86-6.04-1.02-.54-2.1-.96-3.22-1.22-2.71-.63-5.36-1.34-7.98-2.28-3.86-1.38-7.99-2.73-11.48-4.9-3.17-1.97-6.1-4.99-6.53-8.86-.17-1.52-2.67-2.22-2.95-.4-.93,6.08-2.61,12.12-5.78,17.44-1.83,3.07-4.14,5.83-6.91,8.1-2.93,2.4-6.32,3.82-9.82,5.16s-6.89,2.97-9.91,5.33c-2.6,2.04-4.85,4.46-6.78,7.13-3.23,4.46-5.46,9.64-6.87,14.94-1.08,4.03-1.71,8.25-1.89,12.42-.08,1.93,2.92,1.93,3,0Z"/><path d="M802.11,154.74c-4.29,1.18-28.68,8.34-41.57,34.73-7.42,15.2-7.59,29.73-7.23,36.72,12.8.67,25.6,1.33,38.4,2,2.47-27.07,4.28-38.64,5.56-38.59,1.29.05,2.2,12.03,2.54,39.93-10.23,24.31-20.92,54.67-29.16,90.49-7.59,32.99-11.33,62.89-13.06,88.06,55.11-1.64,110.22-3.28,165.33-4.91-2.54-24.77-7.01-53.09-14.71-83.89-8.51-34.02-19.1-63.62-29.6-88.36-5.81-28.43-8.07-42.85-6.76-43.27,1.12-.36,4.86,9.58,11.22,29.81,13.28-2.85,26.56-5.7,39.83-8.54-2.79-7.82-8.29-20.24-18.93-32-14.66-16.21-30.95-22.21-38.84-24.49-.68,1.41-9.8,19.5-28.72,21.51-13.63,1.45-26.96-6.01-34.31-19.2Z" style="stroke:#000; stroke-miterlimit:10;"/><rect x="784.09" y="454.74" width="46.41" height="15.93" style="stroke:#000; stroke-miterlimit:10;"/><rect x="853.81" y="454.74" width="47.78" height="15.93" style="stroke:#000; stroke-miterlimit:10;"/><path d="M802.09,74.99c1.59-.51,2.76-.5,5.79-.58,2.12-.06,5.25-.16,9.15-.37-.12-.7-.23-1.39-.35-2.09-3.56-.91-6.5-.96-8.39-.86-3.74.19-8.58.43-11,3.86-1.17,1.65-1.38,3.48-1.4,4.59,1.19-1.51,3.2-3.57,6.21-4.54Z"/><path d="M802.49,76.44c2-.62,4.16-.49,6.24-.55,2.77-.08,5.54-.2,8.3-.35,1.05-.06,1.61-.91,1.45-1.9-.12-.7-.23-1.39-.35-2.09-.08-.49-.58-.93-1.05-1.05-4.57-1.13-9.43-1.25-14.06-.39-2.17.4-4.34,1.24-5.95,2.8-1.8,1.74-2.6,4.16-2.68,6.62-.04,1.21,1.74,2.1,2.56,1.06,1.48-1.86,3.27-3.38,5.55-4.16,1.82-.62,1.04-3.52-.8-2.89-2.75.94-5.06,2.66-6.87,4.93l2.56,1.06c.06-1.87.72-3.71,2.24-4.89,1.4-1.09,3.26-1.53,4.98-1.77,3.89-.54,7.86-.42,11.67.52l-1.05-1.05c.12.7.23,1.39.35,2.09l1.45-1.9c-2.85.15-5.7.28-8.55.36-2.26.06-4.6-.03-6.78.65-1.84.57-1.05,3.47.8,2.89Z"/><path d="M856.23,73.93c-1.59-.51-2.76-.5-5.79-.58-2.12-.06-5.25-.16-9.15-.37.12-.7.23-1.39.35-2.09,3.56-.91,6.5-.96,8.39-.86,3.74.19,8.58.43,11,3.86,1.17,1.65,1.38,3.48,1.4,4.59-1.19-1.51-3.2-3.57-6.21-4.54Z"/><path d="M856.63,72.49c-2.18-.68-4.52-.59-6.78-.65-2.85-.08-5.7-.2-8.55-.36l1.45,1.9c.12-.7.23-1.39.35-2.09l-1.05,1.05c3.82-.95,7.78-1.06,11.67-.52,1.72.24,3.58.68,4.98,1.77,1.52,1.18,2.18,3.02,2.24,4.89l2.56-1.06c-1.81-2.27-4.12-3.99-6.87-4.93-1.83-.62-2.62,2.27-.8,2.89,2.27.77,4.07,2.3,5.55,4.16.82,1.03,2.6.16,2.56-1.06-.08-2.41-.85-4.78-2.58-6.52-1.61-1.62-3.84-2.49-6.05-2.9-4.63-.86-9.5-.74-14.06.39-.46.11-.97.56-1.05,1.05-.12.7-.23,1.39-.35,2.09-.16.99.4,1.84,1.45,1.9,2.77.15,5.53.27,8.3.35,2.08.06,4.23-.07,6.24.55,1.85.58,2.64-2.32.8-2.89Z"/><path d="M798.02,84.93c1.55-1.45,4.36-3.67,8.44-4.85,2.69-.78,7.59-2.2,10.01.43,1.59,1.72,1.79,4.84.56,6.83-2.37,3.84-9.97,3.43-14.78.92-1.98-1.03-3.36-2.35-4.22-3.33Z"/><path d="M799.08,85.99c2.22-2.06,4.86-3.61,7.77-4.47,2.27-.67,5.35-1.71,7.64-.64s2.41,4.88.59,6.44-4.9,1.53-7.16,1.18c-3.43-.53-6.51-2.04-8.84-4.64-1.29-1.44-3.41.69-2.12,2.12,2.59,2.88,6.11,4.71,9.91,5.37,3.33.58,7.26.55,10.03-1.66s3.21-7.02.96-9.87c-2.42-3.06-6.79-2.52-10.13-1.66-4.05,1.04-7.68,2.84-10.76,5.7-1.42,1.32.71,3.43,2.12,2.12Z"/><path d="M841.96,83.72c1.55-1.45,4.36-3.67,8.44-4.85,2.69-.78,7.59-2.2,10.01.43,1.59,1.72,1.79,4.84.56,6.83-2.37,3.84-9.97,3.43-14.78.92-1.98-1.03-3.36-2.35-4.22-3.33Z"/><path d="M843.02,84.78c2.22-2.06,4.86-3.61,7.77-4.47,2.27-.67,5.35-1.71,7.64-.64s2.41,4.88.59,6.44-4.9,1.53-7.16,1.18c-3.43-.53-6.51-2.04-8.84-4.64-1.29-1.44-3.41.69-2.12,2.12,2.59,2.88,6.11,4.71,9.91,5.37,3.33.58,7.26.55,10.03-1.66s3.21-7.02.96-9.87c-2.42-3.06-6.79-2.52-10.13-1.66-4.05,1.04-7.68,2.84-10.76,5.7-1.42,1.32.71,3.43,2.12,2.12Z"/><circle cx="812.66" cy="85.44" r="4.74" transform="translate(542.79 856.73) rotate(-76.72)" style="stroke:#000; stroke-miterlimit:10;"/><circle cx="856.26" cy="83.96" r="4.85" style="stroke:#000; stroke-miterlimit:10;"/><path d="M798.02,84.58c3.3-2.32,6.29-3.69,8.44-4.51,3.12-1.19,4.73-1.32,6.2-1.09,1.7.26,3,.97,3.81,1.51"/><path d="M798.21,84.91c2.35-1.65,4.87-3.06,7.53-4.15,2.05-.84,4.31-1.7,6.56-1.44,1.43.16,2.79.72,3.99,1.51.4.27.78-.38.38-.65-1.95-1.29-4.26-1.9-6.58-1.54-2.59.4-5.14,1.55-7.47,2.74-1.66.85-3.25,1.82-4.78,2.88-.39.27-.02.93.38.65h0Z"/><path d="M842.19,83.55c1.35-1.41,3.66-3.41,7.03-4.66,1.7-.63,4.34-1.6,7.61-.94,1.7.34,2.99,1.01,3.81,1.51"/><path d="M842.45,83.82c1.7-1.77,3.71-3.22,5.96-4.2,2.44-1.06,5.12-1.8,7.8-1.39,1.51.23,2.94.78,4.24,1.57.41.25.79-.4.38-.65-2.53-1.54-5.51-2.11-8.43-1.58-2.67.48-5.33,1.64-7.53,3.19-1.06.74-2.04,1.59-2.94,2.53-.33.35.2.88.53.53h0Z"/><path d="M825.58,120.06c1.74-.63,4.19-1.31,7.18-1.47,2.31-.12,4.3.1,5.85.4"/><path d="M825.78,120.79c4.04-1.46,8.39-1.86,12.62-1.07.94.18,1.35-1.27.4-1.45-4.49-.83-9.12-.48-13.42,1.07-.9.33-.51,1.78.4,1.45h0Z"/><path d="M832.83,91.67c.43,1.07,1.2,2.72,2.56,4.42,1.78,2.23,3.01,2.62,3.26,3.78.26,1.26-.66,3.37-6.55,6.94"/><path d="M832.11,91.87c.85,2.12,2.04,4.09,3.62,5.75.57.61,1.24,1.12,1.8,1.74.33.37.42.64.4.95-.01.2-.1.54-.25.83-.25.47-.58.88-.94,1.26-1.44,1.52-3.25,2.68-5.02,3.76-.82.5-.07,1.8.76,1.3,1.88-1.15,3.81-2.39,5.33-3.99.77-.81,1.51-1.8,1.62-2.95.12-1.32-.77-2.17-1.67-3-1.82-1.69-3.26-3.72-4.19-6.04-.36-.88-1.81-.5-1.45.4h0Z"/><path d="M1044.84,133.78c-.88,3.92-2.6,9.48-6.31,15.21-5.1,7.88-9.28,9.11-9.82,13.93-.85,7.58,6.31,13.72,13.44,16.42,8,3.03,16.9,3.64,25.25,1.75,5.44-1.24,10.6-3.5,15.58-6.01,7-3.53,14.45-8.6,15.56-16.36-2.07-.57-10.64-3.16-16.26-11.92-5.99-9.32-4.27-18.85-3.88-20.79-11.19,2.59-22.37,5.18-33.56,7.77Z"/><path d="M1043.39,133.38c-.93,4.08-2.33,8.04-4.32,11.73s-4.69,7.15-7.66,10.31c-1.87,1.99-3.69,4.05-4.13,6.84-.6,3.8.72,7.52,3.04,10.5,5.41,6.97,14.73,9.89,23.19,10.69,9.91.94,19.27-1.79,28.12-6.06,7.7-3.71,16.89-9,18.33-18.28.12-.8-.19-1.61-1.05-1.85-11.08-3.05-19.1-13.1-19.54-24.61-.08-2.11.04-4.2.45-6.25.23-1.13-.68-2.11-1.85-1.85-11.19,2.59-22.37,5.18-33.56,7.77-1.88.44-1.08,3.33.8,2.89,11.19-2.59,22.37-5.18,33.56-7.77l-1.85-1.85c-2.57,12.81,3.65,26.13,15.26,32.19,1.88.98,3.87,1.79,5.92,2.36l-1.05-1.85c-1.15,7.43-8.03,11.93-14.22,15.13-8.2,4.23-16.85,7.42-26.2,7.2-7.95-.19-16.92-2.38-22.67-8.22-2.43-2.47-4.22-5.77-3.81-9.33.27-2.4,1.98-4.08,3.55-5.76,6.18-6.59,10.53-14.32,12.55-23.16.43-1.88-2.46-2.68-2.89-.8Z"/><rect x="990.45" y="217.77" width="23.36" height="61.31" transform="translate(7.89 -29.89) rotate(1.72)" style="stroke:#000; stroke-miterlimit:10;"/><rect x="1122.82" y="190.48" width="25.96" height="74.2" transform="translate(-16.99 341.21) rotate(-16.96)" style="stroke:#000; stroke-miterlimit:10;"/><rect x="1036.78" y="390.84" width="23.28" height="63.9" style="stroke:#000; stroke-miterlimit:10;"/><rect x="1083.4" y="390.84" width="23.28" height="63.9" style="stroke:#000; stroke-miterlimit:10;"/><path d="M1021.09,78.22c-4.84-1.99-9.74.84-10.19,1.1-2.7,1.61-4.15,3.93-6.33,8.73-3.56,7.85-5.64,12.45-7.04,20.4-1.94,11.11.34,12.27-1.45,18.36-1.5,5.09-5.4,12.07-16.63,18.78,1.18,1.5,7.4,9.17,17.56,9.81,9.18.58,15.61-4.95,19.05-7.92,9.89-8.52,12.26-19.9,14.08-28.62.41-1.97,3.54-17.86-2.33-32.4-1.6-3.97-3.5-6.92-6.74-8.25Z"/><path d="M1021.49,76.77c-5.02-1.92-11.36-.03-14.66,4.18-2.16,2.76-3.46,6.12-4.88,9.29s-2.81,6.38-3.88,9.7c-1.95,6.04-3.06,12.56-2.83,18.92.06,1.76.22,3.53-.06,5.28-.31,1.94-.96,3.85-1.81,5.61-3.08,6.35-8.72,10.97-14.65,14.55-.91.55-.9,1.6-.3,2.36,3.97,5.07,9.88,8.99,16.29,9.99,4.72.74,9.4-.01,13.71-2.04,3.23-1.52,6.05-3.72,8.73-6.05,7.07-6.15,10.99-14.56,13.19-23.52,1.51-6.16,2.53-12.36,2.53-18.73,0-5.66-.69-11.38-2.36-16.8-1.49-4.81-3.69-10.44-8.65-12.59-1.75-.76-3.28,1.82-1.51,2.59,4.05,1.75,5.79,6.22,7.06,10.15,1.51,4.65,2.26,9.51,2.42,14.39.2,5.9-.48,11.64-1.74,17.38-1.74,7.95-4.37,15.8-9.93,21.94-5.01,5.53-11.93,10.53-19.66,10.57-7.13.04-13.65-3.91-17.96-9.41l-.3,2.36c8.65-5.22,17.79-13.6,18.1-24.49.05-1.87-.14-3.73-.13-5.6.02-3.26.47-6.5,1.12-9.69,1.4-6.97,4.24-13.51,7.3-19.89,1.22-2.55,2.6-5.19,5.13-6.65,2.71-1.56,6-2.02,8.94-.9,1.81.69,2.59-2.21.8-2.89Z"/><path d="M1109.16,83.25c-.49,22.64-17.76,37.87-23.3,42.76-5.78,5.1-13.95,12.31-25.56,12.42-10.32.1-17.84-5.48-23.46-9.77-6.5-4.96-29.5-22.52-28.29-49.69,1.1-24.69,21.94-51.76,50.74-51.54,30.45.23,50.41,30.85,49.87,55.82Z" style="stroke:#000; stroke-miterlimit:10;"/><path d="M1009.28,96c.04-1.02.13-2.53.37-4.33.27-2.05,1.99-19.91,15.62-29.77,6.77-4.9,12.06-4.32,18.69-9.69,8.96-7.26,12.03-18.29,13.23-26.33.52,5.66,5.62,9.84,10.88,11.99,7.44,3.03,11.2,4.46,16.11,5.48,6.43,1.34,15.16,9.74,25.32,40.61,1.54-5.2,3.49-14.38,1.23-25.03-5.09-24.01-29.2-44.45-55.57-43.92-19.76.4-32.76,12.42-34.86,14.41-17.39,16.58-16.38,39.4-16.16,44.52.42,9.54,3.01,17.16,5.12,22.06Z"/><path d="M1010.78,96c.06-1.5.2-3,.39-4.49.02-.17.04-.33.06-.5.01-.12.03-.23.05-.35-.04.33,0,0,.02-.13.24-1.64.55-3.28.94-4.89,1.24-5.15,3.24-10.12,6.22-14.52,1.78-2.64,3.94-5.01,6.41-7.03,2.9-2.36,6.21-3.9,9.68-5.21s6.82-2.78,9.79-5.07c2.83-2.18,5.25-4.84,7.23-7.81,3.93-5.87,6.02-12.79,7.07-19.72l-2.95-.4c.38,3.48,2.07,6.5,4.63,8.88,2.76,2.57,6.07,4.04,9.52,5.44,3.12,1.26,6.25,2.51,9.47,3.47,1.91.57,3.91.84,5.79,1.5.12.04.24.09.36.13.33.12-.13-.07.12.05s.51.23.75.36c.56.29,1.1.62,1.61.98,1.03.72,2.17,1.77,3.19,2.87,3.05,3.29,5.36,7.24,7.42,11.21,3.9,7.54,6.85,15.55,9.51,23.59.46,1.39,2.46,1.46,2.89,0,2.33-7.9,2.97-16.26,1.51-24.39-1.36-7.57-4.6-14.8-9.04-21.06-9.02-12.73-23.08-22.12-38.56-24.67-14.6-2.41-29.57,1.59-41.32,10.51-10.27,7.79-16.98,19.28-19.59,31.84-2.44,11.76-1.76,24.31,2.23,35.64.54,1.53,1.15,3.04,1.79,4.53.76,1.77,3.34.24,2.59-1.51-4.52-10.53-5.97-22.29-4.44-33.63,1.67-12.46,7.28-24.39,16.92-32.65,9.73-8.33,22.6-13,35.43-12.42,14.95.69,29.08,8.28,38.86,19.45,4.79,5.47,8.57,11.89,10.76,18.83,2.5,7.9,2.78,16.35,1.05,24.44-.31,1.45-.68,2.88-1.09,4.29h2.89c-2.43-7.34-5.11-14.63-8.46-21.61-2.16-4.49-4.6-8.88-7.73-12.77-1.9-2.37-4.15-4.61-6.86-6.04-1.02-.54-2.1-.96-3.22-1.22-2.71-.63-5.36-1.34-7.98-2.28-3.86-1.38-7.99-2.73-11.48-4.9-3.17-1.97-6.1-4.99-6.53-8.86-.17-1.52-2.67-2.22-2.95-.4-.93,6.08-2.61,12.12-5.78,17.44-1.83,3.07-4.14,5.83-6.91,8.1-2.93,2.4-6.32,3.82-9.82,5.16s-6.89,2.97-9.91,5.33c-2.6,2.04-4.85,4.46-6.78,7.13-3.23,4.46-5.46,9.64-6.87,14.94-1.08,4.03-1.71,8.25-1.89,12.42-.08,1.93,2.92,1.93,3,0Z"/><path d="M1031.71,154.74c-4.29,1.18-28.68,8.34-41.57,34.73-7.42,15.2-7.59,29.73-7.23,36.72,12.8.67,25.6,1.33,38.4,2,2.47-27.07,4.28-38.64,5.56-38.59,1.29.05,2.2,12.03,2.54,39.93-10.23,24.31-20.92,54.67-29.16,90.49-7.59,32.99-11.33,62.89-13.06,88.06,55.11-1.64,110.22-3.28,165.33-4.91-2.54-24.77-7.01-53.09-14.71-83.89-8.51-34.02-19.1-63.62-29.6-88.36-5.81-28.43-8.07-42.85-6.76-43.27,1.12-.36,4.86,9.58,11.22,29.81,13.28-2.85,26.56-5.7,39.83-8.54-2.79-7.82-8.29-20.24-18.93-32-14.66-16.21-30.95-22.21-38.84-24.49-.68,1.41-9.8,19.5-28.72,21.51-13.63,1.45-26.96-6.01-34.31-19.2Z" style="stroke:#000; stroke-miterlimit:10;"/><rect x="1013.68" y="454.74" width="46.41" height="15.93" style="stroke:#000; stroke-miterlimit:10;"/><rect x="1083.4" y="454.74" width="47.78" height="15.93" style="stroke:#000; stroke-miterlimit:10;"/><path d="M1031.68,74.99c1.59-.51,2.76-.5,5.79-.58,2.12-.06,5.25-.16,9.15-.37-.12-.7-.23-1.39-.35-2.09-3.56-.91-6.5-.96-8.39-.86-3.74.19-8.58.43-11,3.86-1.17,1.65-1.38,3.48-1.4,4.59,1.19-1.51,3.2-3.57,6.21-4.54Z"/><path d="M1032.08,76.44c2-.62,4.16-.49,6.24-.55,2.77-.08,5.54-.2,8.3-.35,1.05-.06,1.61-.91,1.45-1.9-.12-.7-.23-1.39-.35-2.09-.08-.49-.58-.93-1.05-1.05-4.57-1.13-9.43-1.25-14.06-.39-2.17.4-4.34,1.24-5.95,2.8-1.8,1.74-2.6,4.16-2.68,6.62-.04,1.21,1.74,2.1,2.56,1.06,1.48-1.86,3.27-3.38,5.55-4.16,1.82-.62,1.04-3.52-.8-2.89-2.75.94-5.06,2.66-6.87,4.93l2.56,1.06c.06-1.87.72-3.71,2.24-4.89,1.4-1.09,3.26-1.53,4.98-1.77,3.89-.54,7.86-.42,11.67.52l-1.05-1.05c.12.7.23,1.39.35,2.09l1.45-1.9c-2.85.15-5.7.28-8.55.36-2.26.06-4.6-.03-6.78.65-1.84.57-1.05,3.47.8,2.89Z"/><path d="M1085.82,73.93c-1.59-.51-2.76-.5-5.79-.58-2.12-.06-5.25-.16-9.15-.37.12-.7.23-1.39.35-2.09,3.56-.91,6.5-.96,8.39-.86,3.74.19,8.58.43,11,3.86,1.17,1.65,1.38,3.48,1.4,4.59-1.19-1.51-3.2-3.57-6.21-4.54Z"/><path d="M1086.22,72.49c-2.18-.68-4.52-.59-6.78-.65-2.85-.08-5.7-.2-8.55-.36l1.45,1.9c.12-.7.23-1.39.35-2.09l-1.05,1.05c3.82-.95,7.78-1.06,11.67-.52,1.72.24,3.58.68,4.98,1.77,1.52,1.18,2.18,3.02,2.24,4.89l2.56-1.06c-1.81-2.27-4.12-3.99-6.87-4.93-1.83-.62-2.62,2.27-.8,2.89,2.27.77,4.07,2.3,5.55,4.16.82,1.03,2.6.16,2.56-1.06-.08-2.41-.85-4.78-2.58-6.52-1.61-1.62-3.84-2.49-6.05-2.9-4.63-.86-9.5-.74-14.06.39-.46.11-.97.56-1.05,1.05-.12.7-.23,1.39-.35,2.09-.16.99.4,1.84,1.45,1.9,2.77.15,5.53.27,8.3.35,2.08.06,4.23-.07,6.24.55,1.85.58,2.64-2.32.8-2.89Z"/><path d="M1027.61,84.93c1.55-1.45,4.36-3.67,8.44-4.85,2.69-.78,7.59-2.2,10.01.43,1.59,1.72,1.79,4.84.56,6.83-2.37,3.84-9.97,3.43-14.78.92-1.98-1.03-3.36-2.35-4.22-3.33Z"/><path d="M1028.67,85.99c2.22-2.06,4.86-3.61,7.77-4.47,2.27-.67,5.35-1.71,7.64-.64s2.41,4.88.59,6.44c-1.85,1.59-4.9,1.53-7.16,1.18-3.43-.53-6.51-2.04-8.84-4.64-1.29-1.44-3.41.69-2.12,2.12,2.59,2.88,6.11,4.71,9.91,5.37,3.33.58,7.26.55,10.03-1.66s3.21-7.02.96-9.87c-2.42-3.06-6.79-2.52-10.13-1.66-4.05,1.04-7.68,2.84-10.76,5.7-1.42,1.32.71,3.43,2.12,2.12Z"/><path d="M1071.55,83.72c1.55-1.45,4.36-3.67,8.44-4.85,2.69-.78,7.59-2.2,10.01.43,1.59,1.72,1.79,4.84.56,6.83-2.37,3.84-9.97,3.43-14.78.92-1.98-1.03-3.36-2.35-4.22-3.33Z"/><path d="M1072.61,84.78c2.22-2.06,4.86-3.61,7.77-4.47,2.27-.67,5.35-1.71,7.64-.64s2.41,4.88.59,6.44-4.9,1.53-7.16,1.18c-3.43-.53-6.51-2.04-8.84-4.64-1.29-1.44-3.41.69-2.12,2.12,2.59,2.88,6.11,4.71,9.91,5.37,3.33.58,7.26.55,10.03-1.66s3.21-7.02.96-9.87c-2.42-3.06-6.79-2.52-10.13-1.66-4.05,1.04-7.68,2.84-10.76,5.7-1.42,1.32.71,3.43,2.12,2.12Z"/><circle cx="1042.25" cy="85.44" r="4.74" transform="translate(719.63 1080.18) rotate(-76.72)" style="stroke:#000; stroke-miterlimit:10;"/><circle cx="1085.85" cy="83.96" r="4.85" style="stroke:#000; stroke-miterlimit:10;"/><path d="M1027.61,84.58c3.3-2.32,6.29-3.69,8.44-4.51,3.12-1.19,4.73-1.32,6.2-1.09,1.7.26,3,.97,3.81,1.51"/><path d="M1027.8,84.91c2.35-1.65,4.87-3.06,7.53-4.15,2.05-.84,4.31-1.7,6.56-1.44,1.43.16,2.79.72,3.99,1.51.4.27.78-.38.38-.65-1.95-1.29-4.26-1.9-6.58-1.54-2.59.4-5.14,1.55-7.47,2.74-1.66.85-3.25,1.82-4.78,2.88-.39.27-.02.93.38.65h0Z"/><path d="M1071.78,83.55c1.35-1.41,3.66-3.41,7.03-4.66,1.7-.63,4.34-1.6,7.61-.94,1.7.34,2.99,1.01,3.81,1.51"/><path d="M1072.05,83.82c1.7-1.77,3.71-3.22,5.96-4.2,2.44-1.06,5.12-1.8,7.8-1.39,1.51.23,2.94.78,4.24,1.57.41.25.79-.4.38-.65-2.53-1.54-5.51-2.11-8.43-1.58-2.67.48-5.33,1.64-7.53,3.19-1.06.74-2.04,1.59-2.94,2.53-.33.35.2.88.53.53h0Z"/><path d="M1055.17,120.06c1.74-.63,4.19-1.31,7.18-1.47,2.31-.12,4.3.1,5.85.4"/><path d="M1055.37,120.79c4.04-1.46,8.39-1.86,12.62-1.07.94.18,1.35-1.27.4-1.45-4.49-.83-9.12-.48-13.42,1.07-.9.33-.51,1.78.4,1.45h0Z"/><path d="M1062.42,91.67c.43,1.07,1.2,2.72,2.56,4.42,1.78,2.23,3.01,2.62,3.26,3.78.26,1.26-.66,3.37-6.55,6.94"/><path d="M1061.7,91.87c.85,2.12,2.04,4.09,3.62,5.75.57.61,1.24,1.12,1.8,1.74.33.37.42.64.4.95-.01.2-.1.54-.25.83-.25.47-.58.88-.94,1.26-1.44,1.52-3.25,2.68-5.02,3.76-.82.5-.07,1.8.76,1.3,1.88-1.15,3.81-2.39,5.33-3.99.77-.81,1.51-1.8,1.62-2.95.12-1.32-.77-2.17-1.67-3-1.82-1.69-3.26-3.72-4.19-6.04-.36-.88-1.81-.5-1.45.4h0Z"/><path d="M1271.66,139.37c-.88,3.92-2.6,9.48-6.31,15.21-5.1,7.88-9.28,9.11-9.82,13.93-.85,7.58,6.31,13.72,13.44,16.42,8,3.03,16.9,3.64,25.25,1.75,5.44-1.24,10.6-3.5,15.58-6.01,7-3.53,14.45-8.6,15.56-16.36-2.07-.57-10.64-3.16-16.26-11.92-5.99-9.32-4.27-18.85-3.88-20.79-11.19,2.59-22.37,5.18-33.56,7.77Z"/><path d="M1270.22,138.97c-.93,4.08-2.33,8.04-4.32,11.73-2.06,3.83-4.69,7.15-7.66,10.31-1.87,1.99-3.69,4.05-4.13,6.84-.6,3.8.72,7.52,3.04,10.5,5.41,6.97,14.73,9.89,23.19,10.69,9.91.94,19.27-1.79,28.12-6.06,7.7-3.71,16.89-9,18.33-18.28.12-.8-.19-1.61-1.05-1.85-11.08-3.05-19.1-13.1-19.54-24.61-.08-2.11.04-4.2.45-6.25.23-1.13-.68-2.11-1.85-1.85-11.19,2.59-22.37,5.18-33.56,7.77-1.88.44-1.08,3.33.8,2.89,11.19-2.59,22.37-5.18,33.56-7.77l-1.85-1.85c-2.57,12.81,3.65,26.13,15.26,32.19,1.88.98,3.87,1.79,5.92,2.36l-1.05-1.85c-1.15,7.43-8.03,11.93-14.22,15.13-8.2,4.23-16.85,7.42-26.2,7.2-7.95-.19-16.92-2.38-22.67-8.22-2.43-2.47-4.22-5.77-3.81-9.33.27-2.4,1.98-4.08,3.55-5.76,6.18-6.59,10.53-14.32,12.55-23.16.43-1.88-2.46-2.68-2.89-.8Z"/><rect x="1217.28" y="223.35" width="23.36" height="61.31" transform="translate(8.15 -36.67) rotate(1.72)" style="stroke:#000; stroke-miterlimit:10;"/><rect x="1349.64" y="196.07" width="25.96" height="74.2" transform="translate(-8.76 407.61) rotate(-16.96)" style="stroke:#000; stroke-miterlimit:10;"/><rect x="1263.61" y="396.43" width="23.28" height="63.9" style="stroke:#000; stroke-miterlimit:10;"/><rect x="1310.23" y="396.43" width="23.28" height="63.9" style="stroke:#000; stroke-miterlimit:10;"/><path d="M1247.92,83.81c-4.84-1.99-9.74.84-10.19,1.1-2.7,1.61-4.15,3.93-6.33,8.73-3.56,7.85-5.64,12.45-7.04,20.4-1.94,11.11.34,12.27-1.45,18.36-1.5,5.09-5.4,12.07-16.63,18.78,1.18,1.5,7.4,9.17,17.56,9.81,9.18.58,15.61-4.95,19.05-7.92,9.89-8.52,12.26-19.9,14.08-28.62.41-1.97,3.54-17.86-2.33-32.4-1.6-3.97-3.5-6.92-6.74-8.25Z"/><path d="M1248.32,82.36c-5.02-1.92-11.36-.03-14.66,4.18-2.16,2.76-3.46,6.12-4.88,9.29s-2.81,6.38-3.88,9.7c-1.95,6.04-3.06,12.56-2.83,18.92.06,1.76.22,3.53-.06,5.28-.31,1.94-.96,3.85-1.81,5.61-3.08,6.35-8.72,10.97-14.65,14.55-.91.55-.9,1.6-.3,2.36,3.97,5.07,9.88,8.99,16.29,9.99,4.72.74,9.4-.01,13.71-2.04,3.23-1.52,6.05-3.72,8.73-6.05,7.07-6.15,10.99-14.56,13.19-23.52,1.51-6.16,2.53-12.36,2.53-18.73,0-5.66-.69-11.38-2.36-16.8-1.49-4.81-3.69-10.44-8.65-12.59-1.75-.76-3.28,1.82-1.51,2.59,4.05,1.75,5.79,6.22,7.06,10.15,1.51,4.65,2.26,9.51,2.42,14.39.2,5.9-.48,11.64-1.74,17.38-1.74,7.95-4.37,15.8-9.93,21.94-5.01,5.53-11.93,10.53-19.66,10.57-7.13.04-13.65-3.91-17.96-9.41l-.3,2.36c8.65-5.22,17.79-13.6,18.1-24.49.05-1.87-.14-3.73-.13-5.6.02-3.26.47-6.5,1.12-9.69,1.4-6.97,4.24-13.51,7.3-19.89,1.22-2.55,2.6-5.19,5.13-6.65,2.71-1.56,6-2.02,8.94-.9,1.81.69,2.59-2.21.8-2.89Z"/><path d="M1335.98,88.84c-.49,22.64-17.76,37.87-23.3,42.76-5.78,5.1-13.95,12.31-25.56,12.42-10.32.1-17.84-5.48-23.46-9.77-6.5-4.96-29.5-22.52-28.29-49.69,1.1-24.69,21.94-51.76,50.74-51.54,30.45.23,50.41,30.85,49.87,55.82Z" style="stroke:#000; stroke-miterlimit:10;"/><path d="M1236.11,101.59c.04-1.02.13-2.53.37-4.33.27-2.05,1.99-19.91,15.62-29.77,6.77-4.9,12.06-4.32,18.69-9.69,8.96-7.26,12.03-18.29,13.23-26.33.52,5.66,5.62,9.84,10.88,11.99,7.44,3.03,11.2,4.46,16.11,5.48,6.43,1.34,15.16,9.74,25.32,40.61,1.54-5.2,3.49-14.38,1.23-25.03-5.09-24.01-29.2-44.45-55.57-43.92-19.76.4-32.76,12.42-34.86,14.41-17.39,16.58-16.38,39.4-16.16,44.52.42,9.54,3.01,17.16,5.12,22.06Z"/><path d="M1237.61,101.59c.06-1.5.2-3,.39-4.49.02-.17.04-.33.06-.5.01-.12.03-.23.05-.35-.04.33,0,0,.02-.13.24-1.64.55-3.28.94-4.89,1.24-5.15,3.24-10.12,6.22-14.52,1.78-2.64,3.94-5.01,6.41-7.03,2.9-2.36,6.21-3.9,9.68-5.21s6.82-2.78,9.79-5.07c2.83-2.18,5.25-4.84,7.23-7.81,3.93-5.87,6.02-12.79,7.07-19.72l-2.95-.4c.38,3.48,2.07,6.5,4.63,8.88,2.76,2.57,6.07,4.04,9.52,5.44,3.12,1.26,6.25,2.51,9.47,3.47,1.91.57,3.91.84,5.79,1.5.12.04.24.09.36.13.33.12-.13-.07.12.05s.51.23.75.36c.56.29,1.1.62,1.61.98,1.03.72,2.17,1.77,3.19,2.87,3.05,3.29,5.36,7.24,7.42,11.21,3.9,7.54,6.85,15.55,9.51,23.59.46,1.39,2.46,1.46,2.89,0,2.33-7.9,2.97-16.26,1.51-24.39-1.36-7.57-4.6-14.8-9.04-21.06-9.02-12.73-23.08-22.12-38.56-24.67-14.6-2.41-29.57,1.59-41.32,10.51-10.27,7.79-16.98,19.28-19.59,31.84-2.44,11.76-1.76,24.31,2.23,35.64.54,1.53,1.15,3.04,1.79,4.53.76,1.77,3.34.24,2.59-1.51-4.52-10.53-5.97-22.29-4.44-33.63,1.67-12.46,7.28-24.39,16.92-32.65,9.73-8.33,22.6-13,35.43-12.42,14.95.69,29.08,8.28,38.86,19.45,4.79,5.47,8.57,11.89,10.76,18.83,2.5,7.9,2.78,16.35,1.05,24.44-.31,1.45-.68,2.88-1.09,4.29h2.89c-2.43-7.34-5.11-14.63-8.46-21.61-2.16-4.49-4.6-8.88-7.73-12.77-1.9-2.37-4.15-4.61-6.86-6.04-1.02-.54-2.1-.96-3.22-1.22-2.71-.63-5.36-1.34-7.98-2.28-3.86-1.38-7.99-2.73-11.48-4.9-3.17-1.97-6.1-4.99-6.53-8.86-.17-1.52-2.67-2.22-2.95-.4-.93,6.08-2.61,12.12-5.78,17.44-1.83,3.07-4.14,5.83-6.91,8.1-2.93,2.4-6.32,3.82-9.82,5.16s-6.89,2.97-9.91,5.33c-2.6,2.04-4.85,4.46-6.78,7.13-3.23,4.46-5.46,9.64-6.87,14.94-1.08,4.03-1.71,8.25-1.89,12.42-.08,1.93,2.92,1.93,3,0Z"/><path d="M1258.53,160.33c-4.29,1.18-28.68,8.34-41.57,34.73-7.42,15.2-7.59,29.73-7.23,36.72,12.8.67,25.6,1.33,38.4,2,2.47-27.07,4.28-38.64,5.56-38.59,1.29.05,2.2,12.03,2.54,39.93-10.23,24.31-20.92,54.67-29.16,90.49-7.59,32.99-11.33,62.89-13.06,88.06,55.11-1.64,110.22-3.28,165.33-4.91-2.54-24.77-7.01-53.09-14.71-83.89-8.51-34.02-19.1-63.62-29.6-88.36-5.81-28.43-8.07-42.85-6.76-43.27,1.12-.36,4.86,9.58,11.22,29.81,13.28-2.85,26.56-5.7,39.83-8.54-2.79-7.82-8.29-20.24-18.93-32-14.66-16.21-30.95-22.21-38.84-24.49-.68,1.41-9.8,19.5-28.72,21.51-13.63,1.45-26.96-6.01-34.31-19.2Z" style="stroke:#000; stroke-miterlimit:10;"/><rect x="1240.51" y="460.33" width="46.41" height="15.93" style="stroke:#000; stroke-miterlimit:10;"/><rect x="1310.23" y="460.33" width="47.78" height="15.93" style="stroke:#000; stroke-miterlimit:10;"/><path d="M1258.51,80.58c1.59-.51,2.76-.5,5.79-.58,2.12-.06,5.25-.16,9.15-.37-.12-.7-.23-1.39-.35-2.09-3.56-.91-6.5-.96-8.39-.86-3.74.19-8.58.43-11,3.86-1.17,1.65-1.38,3.48-1.4,4.59,1.19-1.51,3.2-3.57,6.21-4.54Z"/><path d="M1258.91,82.03c2-.62,4.16-.49,6.24-.55,2.77-.08,5.54-.2,8.3-.35,1.05-.06,1.61-.91,1.45-1.9-.12-.7-.23-1.39-.35-2.09-.08-.49-.58-.93-1.05-1.05-4.57-1.13-9.43-1.25-14.06-.39-2.17.4-4.34,1.24-5.95,2.8-1.8,1.74-2.6,4.16-2.68,6.62-.04,1.21,1.74,2.1,2.56,1.06,1.48-1.86,3.27-3.38,5.55-4.16,1.82-.62,1.04-3.52-.8-2.89-2.75.94-5.06,2.66-6.87,4.93l2.56,1.06c.06-1.87.72-3.71,2.24-4.89,1.4-1.09,3.26-1.53,4.98-1.77,3.89-.54,7.86-.42,11.67.52l-1.05-1.05c.12.7.23,1.39.35,2.09l1.45-1.9c-2.85.15-5.7.28-8.55.36-2.26.06-4.6-.03-6.78.65-1.84.57-1.05,3.47.8,2.89Z"/><path d="M1312.65,79.52c-1.59-.51-2.76-.5-5.79-.58-2.12-.06-5.25-.16-9.15-.37.12-.7.23-1.39.35-2.09,3.56-.91,6.5-.96,8.39-.86,3.74.19,8.58.43,11,3.86,1.17,1.65,1.38,3.48,1.4,4.59-1.19-1.51-3.2-3.57-6.21-4.54Z"/><path d="M1313.05,78.08c-2.18-.68-4.52-.59-6.78-.65-2.85-.08-5.7-.2-8.55-.36l1.45,1.9c.12-.7.23-1.39.35-2.09l-1.05,1.05c3.82-.95,7.78-1.06,11.67-.52,1.72.24,3.58.68,4.98,1.77,1.52,1.18,2.18,3.02,2.24,4.89l2.56-1.06c-1.81-2.27-4.12-3.99-6.87-4.93-1.83-.62-2.62,2.27-.8,2.89,2.27.77,4.07,2.3,5.55,4.16.82,1.03,2.6.16,2.56-1.06-.08-2.41-.85-4.78-2.58-6.52-1.61-1.62-3.84-2.49-6.05-2.9-4.63-.86-9.5-.74-14.06.39-.46.11-.97.56-1.05,1.05-.12.7-.23,1.39-.35,2.09-.16.99.4,1.84,1.45,1.9,2.77.15,5.53.27,8.3.35,2.08.06,4.23-.07,6.24.55,1.85.58,2.64-2.32.8-2.89Z"/><path d="M1254.44,90.52c1.55-1.45,4.36-3.67,8.44-4.85,2.69-.78,7.59-2.2,10.01.43,1.59,1.72,1.79,4.84.56,6.83-2.37,3.84-9.97,3.43-14.78.92-1.98-1.03-3.36-2.35-4.22-3.33Z"/><path d="M1255.5,91.58c2.22-2.06,4.86-3.61,7.77-4.47,2.27-.67,5.35-1.71,7.64-.64s2.41,4.88.59,6.44-4.9,1.53-7.16,1.18c-3.43-.53-6.51-2.04-8.84-4.64-1.29-1.44-3.41.69-2.12,2.12,2.59,2.88,6.11,4.71,9.91,5.37,3.33.58,7.26.55,10.03-1.66s3.21-7.02.96-9.87c-2.42-3.06-6.79-2.52-10.13-1.66-4.05,1.04-7.68,2.84-10.76,5.7-1.42,1.32.71,3.43,2.12,2.12Z"/><path d="M1298.38,89.31c1.55-1.45,4.36-3.67,8.44-4.85,2.69-.78,7.59-2.2,10.01.43,1.59,1.72,1.79,4.84.56,6.83-2.37,3.84-9.97,3.43-14.78.92-1.98-1.03-3.36-2.35-4.22-3.33Z"/><path d="M1299.44,90.37c2.22-2.06,4.86-3.61,7.77-4.47,2.27-.67,5.35-1.71,7.64-.64s2.41,4.88.59,6.44-4.9,1.53-7.16,1.18c-3.43-.53-6.51-2.04-8.84-4.64-1.29-1.44-3.41.69-2.12,2.12,2.59,2.88,6.11,4.71,9.91,5.37,3.33.58,7.26.55,10.03-1.66s3.21-7.02.96-9.87c-2.42-3.06-6.79-2.52-10.13-1.66-4.05,1.04-7.68,2.84-10.76,5.7-1.42,1.32.71,3.43,2.12,2.12Z"/><circle cx="1269.08" cy="91.03" r="4.74" transform="translate(888.91 1305.24) rotate(-76.72)" style="stroke:#000; stroke-miterlimit:10;"/><circle cx="1312.68" cy="89.55" r="4.85" style="stroke:#000; stroke-miterlimit:10;"/><path d="M1254.44,90.17c3.3-2.32,6.29-3.69,8.44-4.51,3.12-1.19,4.73-1.32,6.2-1.09,1.7.26,3,.97,3.81,1.51"/><path d="M1254.63,90.49c2.35-1.65,4.87-3.06,7.53-4.15,2.05-.84,4.31-1.7,6.56-1.44,1.43.16,2.79.72,3.99,1.51.4.27.78-.38.38-.65-1.95-1.29-4.26-1.9-6.58-1.54-2.59.4-5.14,1.55-7.47,2.74-1.66.85-3.25,1.82-4.78,2.88-.39.27-.02.93.38.65h0Z"/><path d="M1298.61,89.14c1.35-1.41,3.66-3.41,7.03-4.66,1.7-.63,4.34-1.6,7.61-.94,1.7.34,2.99,1.01,3.81,1.51"/><path d="M1298.87,89.4c1.7-1.77,3.71-3.22,5.96-4.2,2.44-1.06,5.12-1.8,7.8-1.39,1.51.23,2.94.78,4.24,1.57.41.25.79-.4.38-.65-2.53-1.54-5.51-2.11-8.43-1.58-2.67.48-5.33,1.64-7.53,3.19-1.06.74-2.04,1.59-2.94,2.53-.33.35.2.88.53.53h0Z"/><path d="M1282,125.65c1.74-.63,4.19-1.31,7.18-1.47,2.31-.12,4.3.1,5.85.4"/><path d="M1282.2,126.37c4.04-1.46,8.39-1.86,12.62-1.07.94.18,1.35-1.27.4-1.45-4.49-.83-9.12-.48-13.42,1.07-.9.33-.51,1.78.4,1.45h0Z"/><path d="M1289.25,97.26c.43,1.07,1.2,2.72,2.56,4.42,1.78,2.23,3.01,2.62,3.26,3.78.26,1.26-.66,3.37-6.55,6.94"/><path d="M1288.53,97.46c.85,2.12,2.04,4.09,3.62,5.75.57.61,1.24,1.12,1.8,1.74.33.37.42.64.4.95-.01.2-.1.54-.25.83-.25.47-.58.88-.94,1.26-1.44,1.52-3.25,2.68-5.02,3.76-.82.5-.07,1.8.76,1.3,1.88-1.15,3.81-2.39,5.33-3.99.77-.81,1.51-1.8,1.62-2.95.12-1.32-.77-2.17-1.67-3-1.82-1.69-3.26-3.72-4.19-6.04-.36-.88-1.81-.5-1.45.4h0Z"/></svg>