<?xml version="1.0" encoding="UTF-8"?><svg id="a" xmlns="http://www.w3.org/2000/svg" viewBox="0 0 157.07 409.16"><rect x="102.26" y="332.43" width="21.19" height="58.17" transform="translate(-79.96 35.55) rotate(-13.27)" style="fill:#a86e39;"/><path d="M59.05,99.31c-2.91,5.53-4.67,10.37-5.74,13.84-2.39,7.7-3.78,12.43-2.26,18.14.5,1.87,1.68,6.31,5.56,9.48,7.52,6.16,19.27,2.69,22.98,1.59,6.98-2.06,10.91-2.04,14.18-5.47,5.17-5.43,4.7-13.08,4.52-15.1-1.75-2.84-3.61-6.39-5.16-10.63-2.71-7.44-3.43-14.13-3.53-18.92-10.18,2.36-20.36,4.71-30.55,7.07Z" style="fill:#a86e39;"/><rect x="52.58" y="328.64" width="21.19" height="58.17" transform="translate(109.96 -2.51) rotate(17.41)" style="fill:#a86e39;"/><path d="M44.3,40.49c-4.18-2.27-8.9-.2-9.33,0-2.6,1.19-4.14,3.15-6.58,7.28-4,6.76-6.33,10.71-8.37,17.77-2.85,9.86-.9,11.14-3.12,16.47-1.86,4.46-6.08,10.39-16.89,15.36.92,1.48,5.79,9.03,14.92,10.61,8.25,1.43,14.61-2.95,18.02-5.29,9.79-6.74,13.05-16.8,15.56-24.52.57-1.74,4.96-15.81,1.08-29.55-1.06-3.75-2.49-6.61-5.29-8.13Z" style="fill:#422913;"/><path d="M115.79,42.78c-.73,2.53-3.21,6.5-3.18,13.06.03,5.23,1.63,7.15,2.11,10.77,1.48,11.06-9.74,21.2-13.78,24.86-4.12,3.73-13.99,12.64-27.81,12.07-9.66-.4-16.51-5.19-21.36-8.89-5.92-4.52-26.85-20.5-25.75-45.23C27.05,26.42,46.9,2.08,72.21,2.51c26.92.45,46.91,28.7,43.58,40.27Z" style="fill:#a86e39; stroke:#7c4d27; stroke-miterlimit:10;"/><path d="M51.77,94.66c-1.48-9.25-1.68-21.22,5.3-30.12,6.42-8.18,14.32-7.9,20.1-15.84,3.99-5.48,7.02-14.94,2.39-32.41,2.67,3.13,7.18,7.64,13.91,11.29,8.68,4.72,16.77,5.69,21.26,5.89C109.33,16.59,95.72,3.98,79.23,1.02c-18.29-3.29-32.17,6.67-35.42,9.17,0,0-20.48,15.86-18.03,45.22.4,4.76,1.72,9.07,1.72,9.07.97,2.87,2.29,6.01,4.1,9.26,6.07,10.88,14.55,17.39,20.16,20.91Z" style="fill:#422913;"/><path d="M52.13,94.56c-.98-6.18-1.27-12.61.13-18.76.74-3.25,1.97-6.39,3.79-9.19,1.91-2.95,4.42-5.39,7.35-7.31,2.49-1.64,5.2-2.91,7.71-4.52s4.84-3.69,6.61-6.2c2.27-3.23,3.59-7.03,4.16-10.92.91-6.17.14-12.49-1.23-18.53-.22-.98-.47-1.96-.72-2.94l-.63.36c7.29,8.53,17.4,14.41,28.43,16.48,2.31.43,4.65.71,7,.81.24.01.43-.25.36-.47-2.24-6.98-5.94-13.48-10.93-18.87s-10.76-9.3-17.39-11.79C79.47-.04,71.51-.7,63.85.75c-5.95,1.13-11.67,3.48-16.79,6.72-1.72,1.09-3.38,2.26-4.88,3.64-2.57,2.36-4.85,5.05-6.88,7.89-3.25,4.56-5.81,9.61-7.52,14.94-2.25,6.98-3.01,14.42-2.35,21.72.28,3.05.8,6.22,1.78,9.13,1.44,4.28,3.44,8.39,5.89,12.18,3.99,6.19,9.21,11.53,15.19,15.81,1.07.77,2.17,1.51,3.29,2.21.41.26.79-.39.38-.65-5.51-3.46-10.48-7.75-14.6-12.78-2.8-3.43-5.18-7.2-7.08-11.2-1.33-2.81-2.43-5.68-3.12-8.71-1.71-7.52-1.58-15.5.12-23.01,1.31-5.75,3.59-11.26,6.69-16.27,2.11-3.4,4.58-6.59,7.41-9.43.72-.72,1.46-1.42,2.23-2.08.52-.45.87-.7,1.47-1.13,4.09-2.95,8.65-5.27,13.45-6.83,7.38-2.39,15.3-2.83,22.86-1.04,6.81,1.61,13.15,4.94,18.44,9.51s9.7,10.58,12.6,17.11c.74,1.67,1.38,3.38,1.94,5.11l.36-.47c-10.91-.51-21.51-4.69-29.75-11.87-1.84-1.61-3.56-3.35-5.15-5.21-.25-.3-.72.02-.63.36,1.68,6.39,2.81,13.1,2.13,19.71-.42,4.09-1.63,8.13-3.91,11.58-1.63,2.48-3.78,4.52-6.25,6.16s-5.23,2.94-7.77,4.56c-2.82,1.8-5.3,4.04-7.26,6.76s-3.28,5.64-4.17,8.77c-1.73,6.08-1.68,12.56-.85,18.78.09.68.19,1.37.3,2.05.08.48.8.27.72-.2Z" style="fill:#2d1c10;"/><path d="M50.41,149.54c0,15.82-2.26,28.65-4.15,36.97-9.22,22.13-18.85,49.77-26.28,82.38-6.84,30.03-10.22,57.25-11.78,80.16,49.62-1.51,99.25-3.01,148.87-4.52-2.28-22.55-6.3-48.33-13.22-76.35-7.65-30.96-17.18-57.9-26.62-80.42-10.63-25.33-12.28-39.33-12.47-40.23-3.62-16.8-3.01-22.89-8.77-28.47-11.05-10.69-35.34-9.64-43.57,1.37-4.55,6.08-1.98,12.24-1.99,29.13Z" style="fill:#7c3d21;"/><rect x="41.19" y="388.49" width="43.5" height="14.5" transform="translate(121.32 -.7) rotate(17.41)" style="fill:#a86e39;"/><rect x="110.3" y="387.07" width="43.5" height="14.5" transform="translate(-86.98 40.83) rotate(-13.27)" style="fill:#a86e39;"/><path d="M92.98,39.07c1.44-.47,2.51-.46,5.27-.53,1.93-.05,4.78-.15,8.33-.34-.1-.63-.21-1.27-.31-1.9-3.24-.83-5.92-.87-7.64-.78-3.4.17-7.81.4-10.02,3.51-1.06,1.5-1.26,3.17-1.28,4.18,1.08-1.38,2.91-3.25,5.65-4.13Z" style="fill:#381f07;"/><path d="M90.31,48.85c1.41-1.32,3.97-3.35,7.68-4.42,2.45-.71,6.91-2,9.12.39,1.45,1.57,1.63,4.4.51,6.22-2.15,3.5-9.08,3.12-13.46.84-1.81-.94-3.06-2.14-3.85-3.03Z" style="fill:#e5cbb5;"/><circle cx="103.33" cy="49.07" r="4.41" style="fill:#2d190b;"/><path d="M90.78,48.96c1.54-1.61,3.37-2.92,5.42-3.82,2.21-.96,4.65-1.64,7.07-1.27,1.37.21,2.67.7,3.85,1.43.41.25.79-.4.38-.65-2.31-1.41-5.03-1.92-7.7-1.44-2.43.44-4.85,1.49-6.87,2.91-.97.68-1.87,1.45-2.68,2.31-.33.35.2.88.53.53h0Z"/><path d="M98.03,85.04c3.13-1.13,6.44-1.55,9.76-1.22.4.04.75-.37.75-.75,0-.44-.35-.71-.75-.75-3.43-.34-6.92.1-10.16,1.27-.9.33-.51,1.78.4,1.45h0Z" style="fill:#381f07;"/><path d="M108.67,57.85c.78,1.94,1.87,3.74,3.31,5.27.52.55,1.14,1.02,1.64,1.59.14.16.23.31.31.5.1.24.02.04.03.12,0,.06,0,.13,0,.2,0,.04-.03.26,0,.07-.01.09-.03.17-.06.26-.07.2-.05.19-.16.39-.23.42-.52.79-.85,1.13-1.3,1.38-2.95,2.43-4.56,3.41-.82.5-.07,1.8.76,1.3,1.71-1.05,3.47-2.18,4.86-3.65.71-.75,1.4-1.67,1.49-2.74.11-1.22-.71-2.01-1.54-2.78-1.65-1.53-2.96-3.37-3.8-5.46-.36-.88-1.81-.5-1.45.4h0Z" style="fill:#381f07;"/><rect x="69.75" y="168.01" width="21.26" height="55.81" transform="translate(-32.5 16.75) rotate(-9.9)" style="fill:#a86e39;"/><path d="M56.53,272.25c1.54,15.5,3.09,31,4.63,46.5,18.37-.94,36.73-1.88,55.1-2.82.64-16.05,1.29-32.1,1.93-48.16-7.37,2.49-17.14,5.02-28.81,6.04-13.28,1.15-24.58-.04-32.86-1.56Z" style="fill:#422913;"/><path d="M56.87,273.41c-2.46-14.24,1.21-29.17,10.54-40.26,2.69-3.2,5.77-6.08,9.23-8.43,4.12-2.79,8.96-5.24,13.99-5.63,10.31-.8,17.23,8,19.85,17.03,3.22,11.12,5.38,22.59,7.04,34.03.28,1.9,3.17,1.09,2.89-.8-1.59-10.95-3.7-21.84-6.62-32.51-1.28-4.7-3.09-9.09-6.18-12.91s-7.74-6.97-12.86-7.7c-5.47-.78-10.89.98-15.68,3.52-4.21,2.23-8.05,5.19-11.38,8.61-4.82,4.96-8.63,10.85-11.13,17.3-3.51,9.05-4.24,19.02-2.59,28.55.33,1.9,3.22,1.09,2.89-.8h0Z" style="fill:#281508;"/><path d="M56.84,276.07c.03,1.81,16.38,3.81,32.55,2.54,14.16-1.12,28.31-4.75,28.13-6.41-.23-2.09-23.23-.97-26.26-.82-12.74.62-34.46,2.6-34.42,4.69Z" style="fill:#301b0c;"/><path d="M55.34,276.07c.16,1.52,1.51,2.08,2.81,2.49,1.93.6,3.96.86,5.96,1.12,6.59.84,13.29.99,19.92.75,7.3-.27,14.6-1.15,21.76-2.61,2.7-.55,5.4-1.17,8.03-2,1.47-.47,3.32-.95,4.48-2.05,1-.95.94-2.44-.27-3.18-.97-.6-2.3-.7-3.4-.82-3.7-.41-7.47-.34-11.18-.28-7.51.11-15.02.48-22.5,1.07-5.78.45-11.56.99-17.29,1.89-1.85.29-3.74.58-5.53,1.15-1.25.4-2.69.98-2.78,2.48-.12,1.93,2.88,1.92,3,0-.02.36-.18.47-.31.77,0,0,.1-.09.1-.1,0,.12-.32.2-.02.05.08-.04.15-.09.23-.12.22-.08-.35.14.03-.01.11-.04.22-.08.33-.12.31-.1.62-.19.93-.28,1.54-.41,3.11-.68,4.68-.93,4.52-.71,9.08-1.16,13.64-1.55,6.93-.6,13.88-1,20.83-1.21,3.63-.11,7.27-.18,10.91-.1,1.55.03,3.11.09,4.66.25.55.06.76.07,1.38.21.19.04.38.09.57.15.31.09-.02-.18.17.07-.18-.24-.55-.53-.41-1.23,0-.05.23-.44.24-.41.04.09-.39.21,0,.04-.51.23-.97.55-1.5.76-1.93.77-3.98,1.29-6,1.78-6.05,1.46-12.24,2.42-18.44,2.95-7.17.62-14.41.66-21.58.11-2.59-.2-5.18-.46-7.73-.96-.82-.16-1.64-.35-2.44-.62-.34-.12-.15-.14-.53-.23-.05-.01-.13-.11-.17-.11.22-.02.39.57.42.85-.21-1.9-3.21-1.92-3,0Z" style="fill:#231409;"/></svg>