<?xml version="1.0" encoding="UTF-8"?><svg id="a" xmlns="http://www.w3.org/2000/svg" viewBox="0 0 287.29 519.26"><ellipse cx="143.23" cy="184.05" rx="63.58" ry="39.79" style="fill:#261b16;"/><line x1="106.89" y1="348.13" x2="106.89" y2="519.26" style="fill:none; stroke:#f7ceb2; stroke-miterlimit:10; stroke-width:6px;"/><line x1="178.18" y1="348.13" x2="178.18" y2="519.26" style="fill:none; stroke:#f7ceb2; stroke-miterlimit:10; stroke-width:6px;"/><line x1="246.32" y1="330.04" x2="87.07" y2="83.22" style="fill:none; stroke:#f7ceb2; stroke-miterlimit:10; stroke-width:6px;"/><line x1="39.93" y1="332.23" x2="202.25" y2="80.67" style="fill:none; stroke:#f7ceb2; stroke-miterlimit:10; stroke-width:6px;"/><path d="M30.66,460.7c38.2-125.58,76.39-251.16,114.59-376.73,38.2,125.58,76.39,251.16,114.59,376.73H30.66Z" style="fill:#a88a5d;"/><path d="M214.6,86.12c0,.58.04,1.87.01,3.63-.14,8.94-.78,51.27-31.64,73.01-17.66,12.44-36.54,12.03-39.72,11.91-18.45-.66-31.21-9.3-36.15-12.69-36.54-25.01-35.42-70.65-35.2-75.86.5-12.14,2.31-55.85,41.49-73.63,18.06-8.2,43.65-10.7,64.6-1.05,35.73,16.45,36.36,58.28,36.61,74.69Z" style="fill:#f7ceb2;"/><path d="M145.1,0c-43.99-.2-71.87,36.75-77.39,44.54-16.57,23.35-18.62,47.53-22.72,95.87-.97,11.41-.72,26.97-.57,58.1.26,54.77,2.58,68.12,12.53,74.62,9.77,6.38,22.92,3.22,30.13-.48,20.08-10.31,27.74-42.54,19.45-62.22-2.99-7.11-7.84-12.03-7.18-21.1.67-9.28,6.26-11.16,6.41-19.75.17-9.23-6.06-10.73-10.45-23.34-4-11.49.45-12.42-2.54-30.08-2.83-16.69-7.38-19.29-5.54-29.25.81-4.38,1.64-4.04,8.08-17.88,7.78-16.71,7.1-19.17,10.45-22.45,4.1-4,13.56-8.59,38.28-.86,22.35-9.94,33.58-4.22,36.72-2.31,8.32,5.04,13.22,13.77,17.86,22.56,2.95,5.59,5.03,9.53,6.03,15.23,1.94,11.12-2.71,14.8-4.8,29.68-2.52,17.97,3.26,19.77-.84,31.64-4.25,12.31-11.15,11.84-12.37,21.98-1.31,10.91,5.86,14.54,5.17,26.53-.56,9.72-5.57,12.26-8.72,20.84-7.06,19.24,2.17,49.84,24.01,60.8,1.41.71,21.1,10.29,33.84,1.05,11.39-8.26,9.02-25.45,8.54-66.29-.63-54.44,3.33-45.75,1.14-68.71-3.22-33.73-6.77-71.02-34.26-101.68C208.53,28.29,183.33.17,145.1,0Z" style="fill:#3a2c24;"/><path d="M128.14,156.52c9.95-5.26,22.09-5.55,32.26-.7,1.73.83,3.26-1.76,1.51-2.59-11.17-5.33-24.34-5.1-35.29.7-1.71.9-.19,3.49,1.51,2.59h0Z" style="fill:#f49687;"/><path d="M143.12,91.08c.29,4.78.19,9.57-.35,14.33-.43,3.8-.95,8.76-4.86,10.61-2.79,1.31-6.4,1.43-7.85,4.61-1.57,3.44-.33,8.07,1.81,10.98,2.48,3.36,6.62,4.98,10.71,4.15.95-.19.55-1.64-.4-1.45-3.93.8-7.79-1.17-9.76-4.6-1.73-3.01-2.73-8.43.93-10.42,2.65-1.44,5.81-1.45,7.86-3.93,2.16-2.62,2.61-6.22,3-9.47.58-4.91.7-9.86.41-14.8-.06-.96-1.56-.97-1.5,0h0Z" style="fill:#ddb69b;"/><path d="M117.86,77.25c3.91-.13,7.35,5.05,7.32,9.62-.04,4.8-3.92,9.98-7.85,9.63-3.72-.33-6.29-5.51-6.21-9.7.08-4.24,2.9-9.43,6.74-9.55Z"/><path d="M173.44,77.25c3.91-.13,7.35,5.05,7.32,9.62-.04,4.8-3.92,9.98-7.85,9.63-3.72-.33-6.29-5.51-6.21-9.7.08-4.24,2.9-9.43,6.74-9.55Z"/><path d="M121.01,86.88c1.17-.03,2.19,1.27,2.18,2.43-.01,1.21-1.17,2.52-2.34,2.43-1.11-.08-1.87-1.39-1.85-2.45.02-1.07.86-2.38,2.01-2.41Z" style="fill:#fff;"/><path d="M175.73,86.88c1.17-.03,2.19,1.27,2.18,2.43-.01,1.21-1.17,2.52-2.34,2.43-1.11-.08-1.87-1.39-1.85-2.45.02-1.07.86-2.38,2.01-2.41Z" style="fill:#fff;"/><path d="M106.4,80.45c3.95-5.13,10.34-7.89,16.78-7.42.96.07.96-1.43,0-1.5-7.01-.52-13.81,2.62-18.08,8.16-.59.76.71,1.51,1.3.76h0Z"/><path d="M187.28,80.79c-4.27-5.54-11.07-8.68-18.08-8.16-.96.07-.96,1.57,0,1.5,6.44-.48,12.83,2.29,16.78,7.42.58.75,1.88,0,1.3-.76h0Z"/><rect x=".17" y="363.01" width="71.67" height="80.23" style="fill:#60493a;"/><rect x="215.44" y="363.01" width="71.67" height="80.23" style="fill:#60493a;"/><path d="M39.93,332.23c10.06,10.02,20.13,20.04,30.19,30.06H2.13c12.6-10.02,25.2-20.04,37.8-30.06Z" style="fill:none; stroke:#60493a; stroke-miterlimit:10;"/><path d="M39.96,335.13c3.86,0,3.87-6,0-6s-3.87,6,0,6h0Z" style="fill:#60493a;"/><path d="M247.47,332.24c-10.06,10.02-20.13,20.04-30.19,30.06h68c-12.6-10.02-25.2-20.04-37.8-30.06Z" style="fill:none; stroke:#60493a; stroke-miterlimit:10;"/><path d="M247.44,335.14c3.86,0,3.87-6,0-6s-3.87,6,0,6h0Z" style="fill:#60493a;"/></svg>