<?xml version="1.0" encoding="UTF-8"?><svg id="a" xmlns="http://www.w3.org/2000/svg" viewBox="0 0 234.16 566.6"><path d="M98.32,149.91c-1.09,4.85-3.22,11.72-7.8,18.81-6.31,9.75-11.48,11.27-12.15,17.23-1.05,9.38,7.8,16.97,16.63,20.31,9.9,3.74,20.9,4.51,31.23,2.16,6.73-1.53,13.11-4.32,19.27-7.43,8.66-4.36,17.88-10.63,19.24-20.23-2.55-.7-13.16-3.91-20.11-14.74-7.4-11.53-5.28-23.31-4.8-25.71-13.84,3.2-27.67,6.41-41.51,9.61Z" style="fill:#a86e39;"/><rect x="182.12" y="220.04" width="32.11" height="91.78" transform="translate(-68.95 69.37) rotate(-16.96)" style="fill:#a86e39;"/><rect x="18.26" y="220.04" width="32.11" height="91.78" transform="translate(6.61 532.63) rotate(-166.72)" style="fill:#a86e39;"/><rect x="75.71" y="467.85" width="28.79" height="79.04" style="fill:#a86e39;"/><rect x="133.37" y="467.85" width="28.79" height="79.04" style="fill:#a86e39;"/><path d="M70.3,81.18c-5.98-2.46-12.05,1.03-12.6,1.36-3.34,1.99-5.13,4.86-7.83,10.8-4.41,9.71-6.98,15.39-8.7,25.24-2.4,13.74.43,15.18-1.79,22.71-1.86,6.3-6.68,14.93-20.56,23.23,1.45,1.86,9.15,11.34,21.72,12.14,11.36.72,19.3-6.12,23.56-9.79,12.23-10.54,15.17-24.61,17.42-35.4.51-2.44,4.38-22.09-2.88-40.08-1.98-4.91-4.33-8.56-8.33-10.2Z" style="fill:#422913;"/><path d="M178.6,91.36c-2.34,27.91-24.83,45.39-32.04,51-7.53,5.85-18.17,14.13-32.5,13.38-12.75-.67-21.61-8.13-28.22-13.86-7.65-6.63-34.69-30.06-31.11-63.51,3.25-30.39,31.06-62.22,66.59-59.74,37.58,2.62,59.86,41.94,57.28,72.73Z" style="fill:#a86e39; stroke:#7c4d27; stroke-miterlimit:10;"/><path d="M54.33,99.45c.13-1.26.36-3.11.79-5.32.49-2.51,3.98-24.42,21.57-35.56,8.74-5.53,15.21-4.41,23.81-10.53,11.61-8.28,16.25-21.65,18.36-31.49.21,7.02,6.19,12.58,12.51,15.63,8.95,4.31,13.48,6.36,19.47,8,7.83,2.14,17.96,13.19,28.15,52.07,2.31-6.31,5.41-17.49,3.44-30.81-4.44-30.03-32.64-57.12-65.24-58.48-24.43-1.02-41.4,12.82-44.14,15.12-22.73,19.13-23.24,47.38-23.36,53.72-.21,11.81,2.4,21.41,4.63,27.63Z" style="fill:#422913;"/><path d="M86.85,173.74c-8.47,2.12-28.5,8.35-46.14,26.71-19.22,20-24.14,42.49-25.56,50.97,14.88,1.51,29.76,3.01,44.64,4.52,4.87-25.23,8.28-37.73,10.21-37.51,2.27.26,2.51,18.13.71,53.59-13.68,28.35-28.3,64.71-39.19,108.25-10.35,41.39-14.65,78.55-16.15,108.92h204.49c-2.38-31.25-7.56-68.58-18.2-109.83-10.83-42-24.65-77.75-37.93-106.59-3.13-38.51-3.87-57.86-2.2-58.07,1.37-.17,4.38,12.73,9.03,38.72,16.42-3.52,32.85-7.04,49.27-10.57-3.12-9.24-9.67-24.65-23.41-39.58-16.71-18.15-35.36-26.15-44.99-29.52-5.28,18.04-22.57,28.77-38.57,25.84-12.39-2.27-22.65-12.48-26.02-25.84Z" style="fill:#7c3d21;"/><rect x="47.14" y="546.9" width="57.4" height="19.7" style="fill:#a86e39;"/><rect x="133.37" y="546.9" width="59.1" height="19.7" style="fill:#a86e39;"/><path d="M83.4,77.19c1.96-.63,3.41-.62,7.17-.72,2.62-.07,6.49-.2,11.31-.46-.14-.86-.28-1.72-.43-2.58-4.41-1.12-8.04-1.18-10.38-1.07-4.62.23-10.61.54-13.61,4.77-1.45,2.04-1.71,4.3-1.74,5.68,1.47-1.87,3.95-4.41,7.68-5.62Z" style="fill:#381f07;"/><path d="M150.36,75.88c-1.96-.63-3.41-.62-7.17-.72-2.62-.07-6.49-.2-11.31-.46.14-.86.28-1.72.43-2.58,4.41-1.12,8.04-1.18,10.38-1.07,4.62.23,10.61.54,13.61,4.77,1.45,2.04,1.71,4.3,1.74,5.68-1.47-1.87-3.95-4.41-7.68-5.62Z" style="fill:#381f07;"/><path d="M78.36,89.48c1.92-1.79,5.39-4.55,10.43-6,3.33-.96,9.39-2.72,12.39.53,1.97,2.13,2.21,5.98.69,8.45-2.93,4.76-12.33,4.24-18.29,1.14-2.45-1.28-4.16-2.91-5.22-4.11Z" style="fill:#e5cbb5;"/><path d="M132.71,87.99c1.92-1.79,5.39-4.55,10.43-6,3.33-.96,9.39-2.72,12.39.53,1.97,2.13,2.21,5.98.69,8.45-2.93,4.76-12.33,4.24-18.29,1.14-2.45-1.28-4.16-2.91-5.22-4.11Z" style="fill:#e5cbb5;"/><circle cx="92.09" cy="90.12" r="5.86" transform="translate(-16.77 159.04) rotate(-76.72)" style="fill:#2d190b;"/><circle cx="147.03" cy="88.29" r="6" style="fill:#2d190b;"/><path d="M78.55,89.38c2.92-2.04,6.04-3.79,9.33-5.14,2.54-1.04,5.34-2.1,8.13-1.79,1.79.2,3.48.9,4.98,1.88.4.27.78-.38.38-.65-2.39-1.58-5.23-2.34-8.07-1.9-3.2.5-6.35,1.92-9.21,3.38-2.05,1.05-4.02,2.25-5.91,3.57-.39.27-.02.93.38.65h0Z"/><path d="M133.26,88.04c2.1-2.19,4.6-3.99,7.39-5.2,3.04-1.33,6.38-2.24,9.71-1.73,1.87.29,3.65.97,5.27,1.95.41.25.79-.4.38-.65-3.11-1.9-6.77-2.59-10.36-1.95-3.29.6-6.57,2.02-9.3,3.94-1.31.92-2.52,1.96-3.62,3.11-.33.35.2.88.53.53h0Z"/><path d="M112.66,133.66c5.03-1.82,10.45-2.3,15.71-1.32.94.18,1.35-1.27.4-1.45-5.52-1.03-11.22-.59-16.51,1.32-.9.33-.51,1.78.4,1.45h0Z" style="fill:#381f07;"/><path d="M120.7,98.03c1.04,2.59,2.51,5,4.43,7.04.89.95,2.85,2.17,2.78,3.46-.05.96-.82,1.96-1.53,2.71-1.79,1.89-4.04,3.33-6.25,4.68-.82.5-.07,1.8.76,1.3,2.31-1.41,4.68-2.93,6.55-4.91.91-.97,1.82-2.16,1.95-3.53.15-1.58-.94-2.59-2.01-3.59-2.28-2.12-4.07-4.65-5.23-7.54-.36-.88-1.81-.5-1.45.4h0Z" style="fill:#381f07;"/></svg>