<?xml version="1.0" encoding="UTF-8"?><svg id="a" xmlns="http://www.w3.org/2000/svg" width="198.56" height="358.89" viewBox="0 0 198.56 358.89"><ellipse cx="98.96" cy="127.21" rx="43.94" ry="27.5" style="fill:#261b16;"/><line x1="73.84" y1="240.62" x2="73.84" y2="358.89" style="fill:none; stroke:#f7ceb2; stroke-miterlimit:10; stroke-width:6px;"/><line x1="123.11" y1="240.62" x2="123.11" y2="358.89" style="fill:none; stroke:#f7ceb2; stroke-miterlimit:10; stroke-width:6px;"/><line x1="170.21" y1="228.11" x2="60.14" y2="57.52" style="fill:none; stroke:#f7ceb2; stroke-miterlimit:10; stroke-width:6px;"/><line x1="27.56" y1="229.63" x2="139.74" y2="55.76" style="fill:none; stroke:#f7ceb2; stroke-miterlimit:10; stroke-width:6px;"/><path d="M21.15,318.42c26.4-86.8,52.8-173.59,79.2-260.39,26.4,86.8,52.8,173.59,79.2,260.39H21.15Z" style="fill:#a88a5d;"/><path d="M148.28,59.52c0,.4.03,1.29,0,2.51-.09,6.18-.54,35.44-21.87,50.46-12.2,8.6-25.25,8.31-27.45,8.24-12.75-.46-21.57-6.43-24.99-8.77-25.25-17.28-24.48-48.83-24.33-52.44.35-8.39,1.6-38.6,28.67-50.89,12.49-5.67,30.17-7.39,44.65-.73,24.69,11.37,25.13,40.28,25.31,51.62Z" style="fill:#f7ceb2;"/><path d="M100.24,0c-30.4-.14-49.67,25.4-53.49,30.78-11.46,16.14-12.87,32.85-15.71,66.26-.67,7.88-.5,18.64-.39,40.16.18,37.86,1.79,47.09,8.66,51.57,6.75,4.41,15.84,2.22,20.83-.33,13.88-7.13,19.17-29.4,13.44-43.01-2.07-4.91-5.42-8.32-4.96-14.58.46-6.42,4.32-7.71,4.43-13.65.11-6.38-4.19-7.42-7.22-16.14-2.76-7.94.31-8.58-1.76-20.79-1.96-11.54-5.1-13.33-3.83-20.22.56-3.03,1.14-2.79,5.58-12.36,5.37-11.55,4.91-13.25,7.22-15.51,2.83-2.77,9.38-5.94,26.46-.6,15.45-6.87,23.21-2.92,25.38-1.6,5.75,3.48,9.14,9.52,12.34,15.59,2.04,3.86,3.48,6.59,4.16,10.53,1.34,7.68-1.88,10.23-3.32,20.51-1.74,12.42,2.25,13.66-.58,21.87-2.94,8.51-7.7,8.19-8.55,15.19-.91,7.54,4.05,10.05,3.57,18.34-.39,6.72-3.85,8.47-6.02,14.41-4.88,13.3,1.5,34.44,16.6,42.02.97.49,14.58,7.11,23.39.73,7.87-5.71,6.23-17.59,5.91-45.82-.44-37.63,2.3-31.62.79-47.49-2.22-23.31-4.68-49.08-23.68-70.28C144.09,19.56,126.67.12,100.24,0Z" style="fill:#3a2c24;"/><path d="M88.76,108.58c6.73-3.55,14.95-3.76,21.83-.48,1.73.83,3.26-1.76,1.51-2.59-7.89-3.76-17.12-3.6-24.86.48-1.71.9-.19,3.49,1.51,2.59h0Z" style="fill:#f49687;"/><path d="M98.65,62.95c.26,4.32.3,9.05-.81,13.27-.46,1.76-1.28,3.21-3.03,3.91-1.31.53-2.77.73-3.93,1.61-2.55,1.94-1.91,6.01-.54,8.47,1.65,2.95,4.91,4.48,8.22,3.84.95-.18.55-1.63-.4-1.45-3.69.72-6.79-2.09-7.4-5.62-.29-1.72-.06-3.58,1.64-4.42,1.14-.56,2.42-.75,3.56-1.31,2.61-1.28,3.37-4.24,3.74-6.89.53-3.78.66-7.6.43-11.41-.06-.96-1.56-.97-1.5,0h0Z" style="fill:#ddb69b;"/><path d="M81.42,53.39c2.7-.09,5.08,3.49,5.06,6.65-.03,3.32-2.71,6.9-5.42,6.66-2.57-.23-4.35-3.81-4.29-6.7.05-2.93,2-6.52,4.66-6.6Z"/><path d="M119.83,53.39c2.7-.09,5.08,3.49,5.06,6.65-.03,3.32-2.71,6.9-5.42,6.66-2.57-.23-4.35-3.81-4.29-6.7.05-2.93,2-6.52,4.66-6.6Z"/><path d="M83.59,60.05c.81-.02,1.51.88,1.51,1.68,0,.84-.81,1.74-1.62,1.68-.77-.06-1.29-.96-1.28-1.69.02-.74.6-1.65,1.39-1.67Z" style="fill:#fff;"/><path d="M121.42,60.05c.81-.02,1.51.88,1.51,1.68,0,.84-.81,1.74-1.62,1.68-.77-.06-1.29-.96-1.28-1.69.02-.74.6-1.65,1.39-1.67Z" style="fill:#fff;"/><path d="M73.7,55.72c2.64-3.42,7.02-5.34,11.4-5.01.96.07.96-1.43,0-1.5-4.93-.36-9.69,1.86-12.69,5.76-.25.32-.05.84.27,1.03.38.23.78.05,1.03-.27h0Z"/><path d="M129.6,55.72c-3-3.9-7.76-6.12-12.69-5.76-.96.07-.96,1.57,0,1.5,4.38-.32,8.76,1.59,11.4,5.01.25.32.64.49,1.03.27.32-.18.52-.71.27-1.03h0Z"/><rect x=".08" y="250.9" width="49.54" height="67.53" style="fill:#60493a;"/><rect x="148.86" y="250.9" width="49.54" height="67.53" style="fill:#60493a;"/><path d="M27.56,229.63c6.96,6.93,13.91,13.85,20.87,20.78H1.43c8.71-6.93,17.42-13.85,26.13-20.78Z" style="fill:none; stroke:#60493a; stroke-miterlimit:10;"/><path d="M27.58,232.56c3.86,0,3.87-6,0-6s-3.87,6,0,6h0Z" style="fill:#60493a;"/><path d="M171,229.64c-6.96,6.93-13.91,13.85-20.87,20.78h47c-8.71-6.93-17.42-13.85-26.13-20.78Z" style="fill:none; stroke:#60493a; stroke-miterlimit:10;"/><path d="M170.98,232.56c3.86,0,3.87-6,0-6s-3.87,6,0,6h0Z" style="fill:#60493a;"/></svg>