<?xml version="1.0" encoding="UTF-8"?><svg id="a" xmlns="http://www.w3.org/2000/svg" width="347.5" height="625.15" viewBox="0 0 347.5 625.15"><ellipse cx="173.25" cy="220.06" rx="76.65" ry="47.97" style="fill:#261b16;"/><line x1="129.44" y1="417.87" x2="129.44" y2="624.18" style="fill:none; stroke:#f7ceb2; stroke-miterlimit:10; stroke-width:6px;"/><line x1="215.39" y1="417.87" x2="215.39" y2="624.18" style="fill:none; stroke:#f7ceb2; stroke-miterlimit:10; stroke-width:6px;"/><line x1="297.54" y1="396.06" x2="105.55" y2="98.5" style="fill:none; stroke:#f7ceb2; stroke-miterlimit:10; stroke-width:6px;"/><line x1="48.72" y1="398.71" x2="244.4" y2="95.44" style="fill:none; stroke:#f7ceb2; stroke-miterlimit:10; stroke-width:6px;"/><path d="M37.54,553.59c46.05-151.39,92.1-302.78,138.14-454.18,46.05,151.39,92.1,302.78,138.14,454.18H37.54Z" style="fill:#a88a5d;"/><path d="M259.29,102.01c.01.7.04,2.25.01,4.37-.16,10.78-.94,61.81-38.15,88.02-21.29,14.99-44.05,14.5-47.88,14.36-22.24-.79-37.62-11.22-43.58-15.3-44.05-30.15-42.7-85.17-42.44-91.46.61-14.63,2.79-67.33,50.01-88.77,21.78-9.88,52.63-12.89,77.88-1.27,43.07,19.83,43.84,70.26,44.14,90.04Z" style="fill:#f7ceb2;"/><path d="M175.5-1.82c-53.03-.24-86.64,44.31-93.3,53.69-19.98,28.16-22.45,57.3-27.39,115.57-1.17,13.75-.87,32.52-.69,70.04.32,66.03,3.11,82.13,15.11,89.96,11.78,7.69,27.64,3.88,36.33-.58,24.2-12.43,33.44-51.28,23.45-75.01-3.61-8.57-9.45-14.51-8.66-25.44.81-11.19,7.54-13.45,7.73-23.81.2-11.13-7.31-12.93-12.6-28.14-4.82-13.85.55-14.97-3.07-36.27-3.41-20.12-8.9-23.25-6.68-35.27.98-5.28,1.98-4.87,9.74-21.55,9.38-20.15,8.56-23.11,12.6-27.06,4.94-4.83,16.35-10.36,46.15-1.04,26.95-11.98,40.48-5.08,44.27-2.79,10.03,6.08,15.94,16.6,21.53,27.19,3.55,6.73,6.06,11.49,7.26,18.36,2.34,13.4-3.27,17.84-5.79,35.78-3.04,21.66,3.93,23.83-1.02,38.14-5.13,14.84-13.44,14.28-14.91,26.5-1.58,13.15,7.06,17.53,6.23,31.98-.68,11.72-6.71,14.78-10.51,25.13-8.51,23.2,2.62,60.08,28.95,73.3,1.7.85,25.44,12.41,40.8,1.27,13.74-9.96,10.87-30.68,10.3-79.91-.76-65.64,4.01-55.15,1.37-82.83-3.88-40.66-8.17-85.62-41.3-122.58C251.98,32.29,221.59-1.61,175.5-1.82Z" style="fill:#3a2c24;"/><path d="M154.91,186.61c12.09-6.4,26.85-6.74,39.2-.84,1.73.83,3.26-1.76,1.51-2.59-13.36-6.38-29.14-6.09-42.23.84-1.71.9-.19,3.49,1.51,2.59h0Z" style="fill:#f49687;"/><path d="M173.28,107.98c.36,5.96.21,11.93-.49,17.86-.52,4.36-1.21,9.96-5.57,12.19-3.3,1.69-7.76,1.7-9.61,5.45-1.97,3.97-.56,9.51,1.87,12.96,2.93,4.16,7.96,6.29,12.96,5.25.94-.2.54-1.64-.4-1.45-4.69.98-9.36-1.32-11.8-5.38-2.08-3.46-3.54-10.04.5-12.7,3-1.96,6.9-1.82,9.51-4.51,2.82-2.9,3.46-7.26,3.95-11.09.78-6.16.96-12.39.58-18.59-.06-.96-1.56-.97-1.5,0h0Z" style="fill:#ddb69b;"/><path d="M142.67,91.31c4.72-.16,8.87,6.08,8.82,11.6-.05,5.78-4.72,12.03-9.46,11.61-4.48-.4-7.58-6.64-7.49-11.69.09-5.11,3.5-11.36,8.13-11.52Z"/><path d="M209.67,91.31c4.72-.16,8.87,6.08,8.82,11.6-.05,5.78-4.72,12.03-9.46,11.61-4.48-.4-7.58-6.64-7.49-11.69.09-5.11,3.5-11.36,8.13-11.52Z"/><path d="M146.46,102.92c1.4-.04,2.64,1.54,2.63,2.93-.01,1.46-1.41,3.04-2.82,2.93-1.34-.1-2.26-1.68-2.23-2.95.03-1.29,1.04-2.87,2.42-2.91Z" style="fill:#fff;"/><path d="M212.44,102.92c1.4-.04,2.64,1.54,2.63,2.93-.01,1.46-1.41,3.04-2.82,2.93-1.34-.1-2.26-1.68-2.23-2.95.03-1.29,1.04-2.87,2.42-2.91Z" style="fill:#fff;"/><path d="M128.72,95.1c4.8-6.23,12.54-9.6,20.36-9.02.96.07.96-1.43,0-1.5-8.39-.62-16.54,3.12-21.66,9.76-.59.76.71,1.51,1.3.76h0Z"/><path d="M226.22,95.66c-5.12-6.64-13.27-10.38-21.66-9.76-.96.07-.96,1.57,0,1.5,7.82-.58,15.57,2.79,20.36,9.02.58.75,1.88,0,1.3-.76h0Z"/><rect x=".79" y="435.81" width="86.4" height="117.78" style="fill:#60493a;"/><rect x="260.31" y="435.81" width="86.4" height="117.78" style="fill:#60493a;"/><path d="M48.72,398.71c12.13,12.08,24.27,24.16,36.4,36.24H3.15c15.19-12.08,30.38-24.16,45.57-36.24Z" style="fill:none; stroke:#60493a; stroke-miterlimit:10;"/><path d="M48.76,401.58c3.86,0,3.87-6,0-6s-3.87,6,0,6h0Z" style="fill:#60493a;"/><path d="M298.92,398.72c-12.13,12.08-24.27,24.16-36.4,36.24h81.97c-15.19-12.08-30.38-24.16-45.57-36.24Z" style="fill:none; stroke:#60493a; stroke-miterlimit:10;"/><path d="M298.88,401.6c3.86,0,3.87-6,0-6s-3.87,6,0,6h0Z" style="fill:#60493a;"/></svg>