<?xml version="1.0" encoding="UTF-8"?><svg id="a" xmlns="http://www.w3.org/2000/svg" viewBox="0 0 222.1 563.61"><path d="M80.86,146.92c-1.09,4.85-3.22,11.72-7.8,18.81-6.31,9.75-11.48,11.27-12.15,17.23-1.05,9.38,7.8,16.97,16.63,20.31,9.9,3.74,20.9,4.51,31.23,2.16,6.73-1.53,13.11-4.32,19.27-7.43,8.66-4.36,17.88-10.63,19.24-20.23-2.55-.7-13.16-3.91-20.11-14.74-7.4-11.53-5.28-23.31-4.8-25.71-13.84,3.2-27.67,6.41-41.51,9.61Z" style="fill:#a86e39;"/><rect x="13.59" y="250.8" width="28.89" height="75.83" transform="translate(8.65 -.71) rotate(1.72)" style="fill:#a86e39;"/><rect x="177.31" y="217.05" width="32.11" height="91.78" transform="translate(-68.29 67.84) rotate(-16.96)" style="fill:#a86e39;"/><rect x="70.9" y="464.87" width="28.79" height="79.04" style="fill:#a86e39;"/><rect x="128.55" y="464.87" width="28.79" height="79.04" style="fill:#a86e39;"/><path d="M51.49,78.2c-5.98-2.46-12.05,1.03-12.6,1.36-3.34,1.99-5.13,4.86-7.83,10.8-4.41,9.71-6.98,15.39-8.7,25.24-2.4,13.74.43,15.18-1.79,22.71-1.86,6.3-6.68,14.93-20.56,23.23,1.45,1.86,9.15,11.34,21.72,12.14,11.36.72,19.3-6.12,23.56-9.79,12.23-10.54,15.17-24.61,17.42-35.4.51-2.44,4.38-22.09-2.88-40.08-1.98-4.91-4.33-8.56-8.33-10.2Z" style="fill:#422913;"/><path d="M160.41,84.42c-.61,28-21.97,46.84-28.82,52.89-7.15,6.31-17.26,15.23-31.61,15.36-12.77.12-22.07-6.78-29.02-12.08-8.04-6.14-36.49-27.85-34.99-61.46,1.36-30.54,27.14-64.02,62.76-63.75,37.67.29,62.35,38.15,61.68,69.04Z" style="fill:#a86e39; stroke:#7c4d27; stroke-miterlimit:10;"/><path d="M36.88,100.2c.05-1.27.16-3.13.46-5.36.34-2.53,2.46-24.62,19.32-36.82,8.38-6.06,14.91-5.34,23.11-11.99,11.08-8.98,14.88-22.62,16.37-32.57.64,7,6.95,12.17,13.46,14.83,9.2,3.75,13.85,5.52,19.93,6.78,7.95,1.65,18.75,12.05,31.32,50.23,1.91-6.44,4.31-17.79,1.52-30.96C156.08,24.63,126.26-.65,93.64.01c-24.44.49-40.53,15.36-43.11,17.83-21.5,20.5-20.26,48.73-19.98,55.06.52,11.8,3.72,21.22,6.34,27.29Z" style="fill:#422913;"/><path d="M64.61,172.84c-5.31,1.46-35.47,10.32-51.41,42.96-9.18,18.8-9.39,36.77-8.94,45.42,15.83.82,31.66,1.65,47.49,2.47,3.06-33.49,5.29-47.8,6.87-47.73,1.6.07,2.72,14.88,3.15,49.38-12.65,30.07-25.87,67.63-36.07,111.93-9.39,40.8-14.01,77.79-16.15,108.92,68.16-2.03,136.32-4.05,204.49-6.08-3.14-30.64-8.67-65.67-18.2-103.76-10.52-42.08-23.62-78.69-36.61-109.3-7.19-35.16-9.98-53-8.36-53.51,1.39-.44,6.01,11.85,13.87,36.87,16.42-3.52,32.85-7.05,49.27-10.57-3.45-9.68-10.26-25.03-23.41-39.58-18.13-20.06-38.28-27.47-48.04-30.29-.85,1.75-12.13,24.11-35.52,26.61-16.86,1.8-33.34-7.44-42.44-23.75Z" style="fill:#7c3d21;"/><rect x="42.32" y="543.91" width="57.4" height="19.7" style="fill:#a86e39;"/><rect x="128.55" y="543.91" width="59.1" height="19.7" style="fill:#a86e39;"/><path d="M64.58,74.21c1.96-.63,3.41-.62,7.17-.72,2.62-.07,6.49-.2,11.31-.46-.14-.86-.28-1.72-.43-2.58-4.41-1.12-8.04-1.18-10.38-1.07-4.62.23-10.61.54-13.61,4.77-1.45,2.04-1.71,4.3-1.74,5.68,1.47-1.87,3.95-4.41,7.68-5.62Z" style="fill:#381f07;"/><path d="M131.55,72.9c-1.96-.63-3.41-.62-7.17-.72-2.62-.07-6.49-.2-11.31-.46.14-.86.28-1.72.43-2.58,4.41-1.12,8.04-1.18,10.38-1.07,4.62.23,10.61.54,13.61,4.77,1.45,2.04,1.71,4.3,1.74,5.68-1.47-1.87-3.95-4.41-7.68-5.62Z" style="fill:#381f07;"/><path d="M59.55,86.5c1.92-1.79,5.39-4.55,10.43-6,3.33-.96,9.39-2.72,12.39.53,1.97,2.13,2.21,5.98.69,8.45-2.93,4.76-12.33,4.24-18.29,1.14-2.45-1.28-4.16-2.91-5.22-4.11Z" style="fill:#e5cbb5;"/><path d="M113.9,85.01c1.92-1.79,5.39-4.55,10.43-6,3.33-.96,9.39-2.72,12.39.53,1.97,2.13,2.21,5.98.69,8.45-2.93,4.76-12.33,4.24-18.29,1.14-2.45-1.28-4.16-2.91-5.22-4.11Z" style="fill:#e5cbb5;"/><circle cx="73.28" cy="87.13" r="5.86" transform="translate(-28.36 138.43) rotate(-76.72)" style="fill:#2d190b;"/><circle cx="128.21" cy="85.3" r="6" style="fill:#2d190b;"/><path d="M59.74,86.39c2.92-2.04,6.04-3.79,9.33-5.14,2.54-1.04,5.34-2.1,8.13-1.79,1.79.2,3.48.9,4.98,1.88.4.27.78-.38.38-.65-2.39-1.58-5.23-2.34-8.07-1.9-3.2.5-6.35,1.92-9.21,3.38-2.05,1.05-4.02,2.25-5.91,3.57-.39.27-.02.93.38.65h0Z"/><path d="M114.45,85.06c2.1-2.19,4.6-3.99,7.39-5.2,3.04-1.33,6.38-2.24,9.71-1.73,1.87.29,3.65.97,5.27,1.95.41.25.79-.4.38-.65-3.11-1.9-6.77-2.59-10.36-1.95-3.29.6-6.57,2.02-9.3,3.94-1.31.92-2.52,1.96-3.62,3.11-.33.35.2.88.53.53h0Z"/><path d="M93.84,130.68c5.03-1.82,10.45-2.3,15.71-1.32.94.18,1.35-1.27.4-1.45-5.52-1.03-11.22-.59-16.51,1.32-.9.33-.51,1.78.4,1.45h0Z" style="fill:#381f07;"/><path d="M101.88,95.04c1.04,2.59,2.51,5,4.43,7.04.89.95,2.85,2.17,2.78,3.46-.05.96-.82,1.96-1.53,2.71-1.79,1.89-4.04,3.33-6.25,4.68-.82.5-.07,1.8.76,1.3,2.31-1.41,4.68-2.93,6.55-4.91.91-.97,1.82-2.16,1.95-3.53.15-1.58-.94-2.59-2.01-3.59-2.28-2.12-4.07-4.65-5.23-7.54-.36-.88-1.81-.5-1.45.4h0Z" style="fill:#381f07;"/></svg>