<?xml version="1.0" encoding="UTF-8"?><svg id="a" xmlns="http://www.w3.org/2000/svg" width="229.98" height="521.07" viewBox="0 0 229.98 521.07"><ellipse cx="112.97" cy="184.69" rx="63.8" ry="39.93" style="fill:#261b16;"/><line x1="76.5" y1="349.35" x2="76.5" y2="521.07" style="fill:none; stroke:#f7ceb2; stroke-miterlimit:10; stroke-width:6px;"/><line x1="148.04" y1="349.35" x2="148.04" y2="521.07" style="fill:none; stroke:#f7ceb2; stroke-miterlimit:10; stroke-width:6px;"/><line x1="216.42" y1="331.19" x2="56.61" y2="83.51" style="fill:none; stroke:#f7ceb2; stroke-miterlimit:10; stroke-width:6px;"/><line x1="9.31" y1="333.4" x2="172.19" y2="80.95" style="fill:none; stroke:#f7ceb2; stroke-miterlimit:10; stroke-width:6px;"/><path d="M0,462.32c38.33-126.02,76.66-252.04,114.99-378.05,38.33,126.02,76.66,252.04,114.99,378.05H0Z" style="fill:#a88a5d;"/><path d="M184.58,86.42c0,.59.04,1.87.01,3.64-.14,8.97-.78,51.45-31.75,73.27-17.72,12.48-36.67,12.07-39.86,11.96-18.51-.66-31.32-9.34-36.28-12.73-36.67-25.09-35.54-70.89-35.32-76.13.5-12.18,2.32-56.04,41.63-73.89,18.13-8.23,43.81-10.73,64.82-1.06,35.85,16.5,36.49,58.48,36.74,74.95Z" style="fill:#f7ceb2;"/><path d="M114.84,0C70.7-.2,42.72,36.88,37.18,44.69c-16.63,23.44-18.69,47.69-22.8,96.2-.97,11.45-.72,27.07-.57,58.3.26,54.96,2.59,68.36,12.58,74.88,9.8,6.4,23,3.23,30.24-.49,20.15-10.35,27.84-42.69,19.52-62.44-3-7.13-7.87-12.07-7.21-21.17.67-9.32,6.28-11.2,6.43-19.82.17-9.26-6.09-10.77-10.49-23.43-4.01-11.53.45-12.46-2.55-30.19-2.84-16.75-7.41-19.35-5.56-29.36.81-4.39,1.65-4.05,8.11-17.94,7.8-16.77,7.13-19.24,10.49-22.52,4.11-4.02,13.61-8.62,38.41-.87,22.43-9.97,33.69-4.23,36.85-2.32,8.35,5.06,13.26,13.82,17.92,22.64,2.96,5.61,5.05,9.56,6.05,15.28,1.95,11.16-2.72,14.85-4.82,29.79-2.53,18.03,3.27,19.84-.85,31.75-4.27,12.35-11.19,11.88-12.41,22.06-1.32,10.95,5.88,14.59,5.18,26.62-.56,9.76-5.58,12.3-8.75,20.92-7.09,19.31,2.18,50.01,24.09,61.01,1.41.71,21.17,10.33,33.96,1.06,11.43-8.29,9.05-25.53,8.57-66.52-.64-54.63,3.34-45.91,1.14-68.95-3.23-33.84-6.8-71.27-34.38-102.03C178.5,28.39,153.2.17,114.84,0Z" style="fill:#3a2c24;"/><path d="M97.82,157.06c9.64-6.68,22.46-6.98,32.38-.7,1.64,1.04,3.14-1.56,1.51-2.59-10.76-6.81-24.93-6.56-35.41.7-1.58,1.09-.08,3.69,1.51,2.59h0Z" style="fill:#f49687;"/><path d="M112.86,91.4c.3,4.87.18,9.76-.38,14.61-.44,3.8-1.02,8.67-4.95,10.46-2.76,1.25-6.26,1.42-7.74,4.49-1.63,3.37-.42,8.04,1.67,10.95,2.49,3.46,6.67,5.18,10.86,4.32.95-.19.55-1.64-.4-1.45-3.95.81-7.82-1.17-9.8-4.62-1.75-3.05-2.74-8.51.99-10.49,2.59-1.38,5.67-1.42,7.72-3.78,2.22-2.56,2.7-6.17,3.09-9.4.61-5.01.74-10.06.44-15.09-.06-.96-1.56-.97-1.5,0h0Z" style="fill:#ddb69b;"/><path d="M87.51,77.52c3.93-.13,7.38,5.06,7.34,9.65-.04,4.81-3.93,10.01-7.87,9.66-3.73-.33-6.31-5.53-6.23-9.73.08-4.25,2.91-9.46,6.77-9.59Z"/><path d="M143.28,77.52c3.93-.13,7.38,5.06,7.34,9.65-.04,4.81-3.93,10.01-7.87,9.66-3.73-.33-6.31-5.53-6.23-9.73.08-4.25,2.91-9.46,6.77-9.59Z"/><path d="M90.66,87.18c1.17-.03,2.2,1.28,2.19,2.44-.01,1.22-1.17,2.53-2.34,2.44-1.11-.08-1.88-1.4-1.86-2.46.02-1.07.87-2.39,2.01-2.42Z" style="fill:#fff;"/><path d="M145.58,87.18c1.17-.03,2.2,1.28,2.19,2.44-.01,1.22-1.17,2.53-2.34,2.44-1.11-.08-1.88-1.4-1.86-2.46.02-1.07.87-2.39,2.01-2.42Z" style="fill:#fff;"/><path d="M76.01,80.73c3.97-5.15,10.38-7.92,16.84-7.45.96.07.96-1.43,0-1.5-7.03-.52-13.85,2.63-18.14,8.19-.59.76.71,1.51,1.3.76h0Z"/><path d="M157.16,81.07c-4.28-5.56-11.1-8.71-18.14-8.19-.96.07-.96,1.57,0,1.5,6.46-.48,12.88,2.3,16.84,7.45.58.75,1.88,0,1.3-.76h0Z"/></svg>