<?xml version="1.0" encoding="UTF-8"?><svg id="a" xmlns="http://www.w3.org/2000/svg" viewBox="0 0 1920 490.58"><path d="M463.98,64.85c207.46-41.5,250.76,153.63,488.17,152.66,204.2-.83,238.93-145.45,486.4-150.89,133.8-2.94,297.47,35.52,305.76,95.5,11.32,81.93-270.35,182.01-344.71,207.5-467.62,0-935.25,0-1402.87,0,.35-61.5.69-123.01,1.04-184.51,30.42-2.26,77.25-6.83,133.62-16.99,184.39-33.24,240.24-84.8,332.59-103.27Z" style="fill:#263f16;"/><path d="M876.66,63.16c130.82-.88,244.96,51.64,301.38,78.92,171.54,82.95,200.31,174.32,286.33,162.06,109.44-15.6,118.33-171.4,266.61-222,72.06-24.59,141.11-12.08,183.96,0,1.69,140.35,3.37,280.7,5.06,421.06H0V17.51c36.28-4.18,95.67-6.07,157.91,19.63,133.34,55.06,125.65,173.09,218.43,209.18,138.93,54.05,241.15-181.43,500.33-183.17Z" style="fill:#44512d;"/><rect x="0" y="304.14" width="1920" height="199.06" style="fill:#423a26;"/></svg>