<?xml version="1.0" encoding="UTF-8"?><svg id="a" xmlns="http://www.w3.org/2000/svg" viewBox="0 0 1920 1080"><rect x="908.52" y="556.69" width="519.24" height="293.64" rx="45.46" ry="45.46" style="fill:#a7c3d3; stroke:#1e1e1d; stroke-miterlimit:10; stroke-width:10px;"/><rect x="1058.19" y="850.33" width="214.41" height="87.49" rx="12" ry="12" style="fill:#1e1e1d;"/><path d="M913.54,803.85h510.65c0,24.34-19.76,44.1-44.1,44.1h-423.26c-23.89,0-43.28-19.39-43.28-43.28v-.82h0Z" style="fill:#517a43;"/><path d="M1361.63,803.85h-193.49c5.33-5.37,10.66-10.73,15.99-16.1,22.96,3.4,50.18,5.82,80.76,5.41,32.75-.44,61.63-4.02,85.65-8.49,3.7,6.39,7.4,12.79,11.1,19.18Z" style="fill:#7f7f7e;"/><path d="M1184.56,787.29c21.95,4.04,48.97,7.23,79.89,6.97,33.74-.27,62.9-4.56,86.07-9.59-26.9-.42-54.58-.45-82.98,0-28.42.45-56.1,1.34-82.98,2.62Z" style="fill:#666;"/><path d="M1234.52,771.31c-7.02-1.93-23.3-.59-34.12.37-2.67.24-5.5.38-7.89-.85-2.38-1.23-4-4.34-2.71-6.68,1.67-3.02,6.07-2.45,9.45-1.8,3.39.65,8.14-.02,8.46-3.45.2-2.13-1.59-3.84-2.88-5.55-1.29-1.71-1.95-4.57-.12-5.68,7.74,3.82,15.55,7.67,23.89,9.89,8.41,2.23,13.11,1.33,18.63,5.27,8.16,5.81,9.63,15.29,10.4,15.03.77-.26-1-9.69-10.65-40.04-7.27-22.89-10.97-34.51-15.75-42.3-4.74-7.74-10.86-14.71-14.33-23.09-4.28-10.32-4.1-22.4.48-32.59,3.67.27,5.19,4.7,6.13,8.26.94,3.55,3.5,7.82,7.07,6.93,2.68-.67,3.7-3.83,4.83-6.35,2.93-6.52,9.6-11.19,16.73-11.71,1.31-.1,2.72-.03,3.77.74,2.95,2.16.57,6.93,1.62,10.44,1.05,3.53,5.55,4.95,9.13,4.08s6.5-3.33,9.55-5.39c5.9-4,12.69-6.7,19.73-7.84,5.42-.88,12.14-.2,14.62,4.7,2.32,4.56-.44,9.99-3.36,14.19-10.23,14.72-23.7,28.04-28.04,45.43-2,8-1.89,16.36-2.68,24.57-.95,9.87-2.5,14.02-4.52,25.77-1.1,6.42-2.6,15.71-4.08,27.13,13.57-12.07,26.23-19.76,35.73-24.68,13.01-6.73,30.86-13.8,33.46-10,1.48,2.17-1.75,8.29-1.98,8.72-2.05,3.81-4.1,4.36-3.96,6.34.27,3.77,7.94,4.91,7.75,7.47-.13,1.79-4.03,3.16-7.35,3.63-7.98,1.12-14.58-2.74-16.25-3.57-6.74-3.34-20.44-.61-50.85,25.58-3.46-.11-6.92-.21-10.38-.32-6.48-16.18-13.97-21.1-19.56-22.64Z" style="fill:#197fb2;"/><path d="M1235.88,741.17c-2.64-6.16-6.68-11.7-11.72-16.11-1.45-1.27-3.58.85-2.12,2.12,4.88,4.26,8.7,9.55,11.25,15.5.32.74,1.42.91,2.05.54.77-.45.86-1.3.54-2.05h0Z" style="fill:#197fb2;"/><path d="M1189.6,745.5c-12.42-.95-24.65-3.7-36.31-8.09-1.81-.68-2.59,2.22-.8,2.89,11.91,4.49,24.42,7.22,37.11,8.19,1.93.15,1.92-2.85,0-3h0Z" style="fill:#197fb2;"/><path d="M1199.52,727.1c-3.84-10.53-10.18-20.03-18.5-27.54-1.43-1.29-3.56.82-2.12,2.12,7.93,7.17,14.06,16.17,17.73,26.22.66,1.8,3.56,1.02,2.89-.8h0Z" style="fill:#197fb2;"/><path d="M1204.27,681.93c-5.41-10.94-14.32-20.02-25.15-25.64-1.71-.89-3.23,1.7-1.51,2.59,10.42,5.4,18.88,14.04,24.08,24.56.86,1.73,3.44.21,2.59-1.51h0Z" style="fill:#197fb2;"/><path d="M1248.41,625.89c.9-5.63.53-11.38-1.21-16.83-.59-1.83-3.48-1.05-2.89.8,1.57,4.91,2.03,10.14,1.21,15.23-.13.8.21,1.61,1.05,1.85.71.2,1.72-.24,1.85-1.05h0Z" style="fill:#197fb2;"/><path d="M1299.99,629.8c-2.2-8.85-.83-18.31,3.74-26.19.97-1.67-1.62-3.18-2.59-1.51-4.98,8.57-6.43,18.88-4.04,28.5.46,1.87,3.36,1.08,2.89-.8h0Z" style="fill:#197fb2;"/><path d="M1299.25,710.78c4.36-10.21,10.81-19.39,18.96-26.93,1.42-1.31-.71-3.43-2.12-2.12-8.32,7.7-14.98,17.12-19.43,27.54-.75,1.76,1.83,3.29,2.59,1.51h0Z" style="fill:#197fb2;"/><path d="M1299.3,747.95c6.38-7.75,15.02-13.35,24.72-15.94,1.86-.5,1.07-3.39-.8-2.89-10.16,2.71-19.37,8.59-26.05,16.71-1.22,1.48.89,3.61,2.12,2.12h0Z" style="fill:#197fb2;"/><path d="M1346.44,751.54c7.82-2.72,15.65-5.44,23.47-8.16,1.81-.63,1.03-3.53-.8-2.89-7.82,2.72-15.65,5.44-23.47,8.16-1.81.63-1.03,3.53.8,2.89h0Z" style="fill:#197fb2;"/><path d="M1333.78,702.89c5.97-2.95,11.94-5.91,17.91-8.86,1.73-.86.21-3.44-1.51-2.59-5.97,2.95-11.94,5.91-17.91,8.86-1.73.86-.21,3.44,1.51,2.59h0Z" style="fill:#197fb2;"/><path d="M577.01,542.34c-1.01,4.49-2.98,10.86-7.23,17.42-5.84,9.03-10.63,10.43-11.25,15.95-.97,8.68,7.23,15.71,15.4,18.8,9.17,3.47,19.36,4.17,28.91,2,6.23-1.42,12.14-4,17.84-6.88,8.01-4.04,16.55-9.85,17.82-18.73-2.37-.65-12.18-3.62-18.62-13.65-6.86-10.68-4.89-21.59-4.44-23.81-12.81,2.97-25.62,5.93-38.44,8.9Z" style="fill:#a86e39;"/><rect x="514.72" y="638.52" width="26.75" height="70.22" transform="translate(20.4 -15.51) rotate(1.72)" style="fill:#a86e39;"/><rect x="666.32" y="607.28" width="29.73" height="84.99" transform="translate(-159.91 226.96) rotate(-16.96)" style="fill:#a86e39;"/><rect x="567.79" y="836.75" width="26.66" height="73.19" style="fill:#a86e39;"/><rect x="621.18" y="836.75" width="26.66" height="73.19" style="fill:#a86e39;"/><path d="M549.81,478.7c-5.54-2.28-11.16.96-11.67,1.26-3.09,1.84-4.75,4.5-7.25,10-4.08,9-6.46,14.25-8.06,23.37-2.23,12.72.39,14.06-1.66,21.03-1.72,5.83-6.19,13.83-19.04,21.51,1.35,1.72,8.48,10.5,20.11,11.24,10.52.67,17.87-5.67,21.82-9.07,11.33-9.76,14.04-22.79,16.13-32.78.47-2.26,4.06-20.45-2.66-37.11-1.84-4.55-4.01-7.93-7.72-9.45Z" style="fill:#422913;"/><path d="M650.68,484.46c-.56,25.93-20.34,43.38-26.69,48.98-6.62,5.84-15.98,14.1-29.27,14.23-11.82.11-20.44-6.27-26.87-11.19-7.45-5.69-33.79-25.79-32.4-56.91,1.26-28.28,25.13-59.29,58.11-59.03,34.88.27,57.73,35.33,57.11,63.93Z" style="fill:#a86e39; stroke:#7c4d27; stroke-miterlimit:10;"/><path d="M536.29,499.07c.05-1.17.15-2.9.43-4.96.31-2.34,2.28-22.8,17.89-34.1,7.76-5.61,13.81-4.94,21.4-11.1,10.26-8.32,13.78-20.94,15.16-30.16.59,6.48,6.44,11.27,12.46,13.73,8.52,3.47,12.82,5.11,18.45,6.28,7.36,1.53,17.36,11.16,29,46.51,1.77-5.96,4-16.48,1.41-28.67-5.83-27.5-33.45-50.91-63.65-50.3-22.64.46-37.53,14.22-39.92,16.51-19.91,18.98-18.76,45.12-18.5,50.99.48,10.92,3.44,19.65,5.87,25.27Z" style="fill:#422913;"/><path d="M561.97,566.34c-4.92,1.35-32.85,9.55-47.61,39.78-8.5,17.41-8.69,34.05-8.28,42.05,14.66.76,29.32,1.53,43.98,2.29,2.83-31.01,4.9-44.26,6.36-44.2,1.48.06,2.52,13.78,2.91,45.73-11.71,27.85-23.96,62.62-33.4,103.64-8.69,37.78-12.97,72.03-14.95,100.86,63.12-1.88,126.24-3.75,189.35-5.63-2.91-28.37-8.03-60.81-16.85-96.08-9.74-38.96-21.87-72.86-33.9-101.21-6.66-32.56-9.24-49.08-7.74-49.55,1.28-.41,5.57,10.97,12.85,34.14,15.21-3.26,30.41-6.52,45.62-9.79-3.2-8.96-9.5-23.18-21.68-36.65-16.79-18.57-35.45-25.44-44.48-28.05-.78,1.62-11.23,22.33-32.89,24.64-15.61,1.67-30.88-6.89-39.3-21.99Z" style="fill:#7c3d21;"/><rect x="541.33" y="909.94" width="53.15" height="18.24" style="fill:#a86e39;"/><rect x="621.18" y="909.94" width="54.73" height="18.24" style="fill:#a86e39;"/><path d="M561.94,475c1.82-.59,3.16-.57,6.63-.67,2.42-.07,6.01-.19,10.48-.43-.13-.8-.26-1.59-.4-2.39-4.08-1.04-7.45-1.1-9.61-.99-4.28.22-9.83.5-12.6,4.42-1.34,1.89-1.58,3.98-1.61,5.26,1.36-1.73,3.66-4.09,7.11-5.2Z" style="fill:#381f07;"/><path d="M623.95,473.79c-1.82-.59-3.16-.57-6.63-.67-2.42-.07-6.01-.19-10.48-.43.13-.8.26-1.59.4-2.39,4.08-1.04,7.45-1.1,9.61-.99,4.28.22,9.83.5,12.6,4.42,1.34,1.89,1.58,3.98,1.61,5.26-1.36-1.73-3.66-4.09-7.11-5.2Z" style="fill:#381f07;"/><path d="M557.28,486.38c1.78-1.66,4.99-4.21,9.66-5.56,3.08-.89,8.7-2.51,11.47.49,1.82,1.97,2.05,5.54.64,7.82-2.71,4.4-11.42,3.92-16.93,1.06-2.27-1.18-3.85-2.69-4.84-3.81Z" style="fill:#e5cbb5;"/><path d="M607.61,485c1.78-1.66,4.99-4.21,9.66-5.56,3.08-.89,8.7-2.51,11.47.49,1.82,1.97,2.05,5.54.64,7.82-2.71,4.4-11.42,3.92-16.93,1.06-2.27-1.18-3.85-2.69-4.84-3.81Z" style="fill:#e5cbb5;"/><circle cx="574.05" cy="486.97" r="5.42" transform="translate(-31.79 933.78) rotate(-76.72)" style="fill:#2d190b;"/><circle cx="623.99" cy="485.27" r="5.55" style="fill:#2d190b;"/><path d="M557.47,486.31c2.7-1.89,5.59-3.51,8.64-4.76,2.35-.96,4.94-1.95,7.52-1.66,1.65.18,3.22.83,4.59,1.74.4.27.78-.38.38-.65-2.22-1.47-4.85-2.17-7.5-1.76-2.96.46-5.88,1.78-8.54,3.13-1.9.97-3.73,2.08-5.47,3.3-.39.27-.02.93.38.65h0Z"/><path d="M608.14,485.07c1.94-2.03,4.26-3.69,6.83-4.82,2.81-1.23,5.89-2.07,8.97-1.6,1.73.27,3.38.89,4.87,1.8.41.25.79-.4.38-.65-2.89-1.76-6.28-2.41-9.61-1.8-3.05.55-6.09,1.87-8.62,3.65-1.21.85-2.33,1.82-3.36,2.89-.33.35.2.88.53.53h0Z"/><path d="M589.05,527.35c4.64-1.68,9.65-2.13,14.52-1.23.94.18,1.35-1.27.4-1.45-5.12-.95-10.41-.55-15.31,1.23-.9.33-.51,1.78.4,1.45h0Z" style="fill:#381f07;"/><path d="M596.43,494.31c.97,2.41,2.33,4.65,4.12,6.54.66.7,1.42,1.29,2.06,2,.37.41.52.77.49,1.16-.05.83-.75,1.78-1.4,2.47-1.65,1.75-3.74,3.08-5.77,4.32-.82.5-.07,1.8.76,1.3,2.14-1.31,4.34-2.72,6.08-4.56.86-.91,1.7-2.02,1.82-3.31.14-1.48-.87-2.43-1.88-3.36-2.1-1.95-3.76-4.29-4.83-6.96-.36-.88-1.81-.5-1.45.4h0Z" style="fill:#381f07;"/><path d="M1029.7,685c-.35,1.57-1.04,3.8-2.53,6.1-2.04,3.16-3.72,3.65-3.94,5.59-.34,3.04,2.53,5.5,5.39,6.58,3.21,1.21,6.78,1.46,10.12.7,2.18-.5,4.25-1.4,6.25-2.41,2.81-1.41,5.8-3.45,6.24-6.56-.83-.23-4.27-1.27-6.52-4.78-2.4-3.74-1.71-7.56-1.56-8.34-4.49,1.04-8.97,2.08-13.46,3.12Z" style="fill:#e0af86;"/><rect x="1007.89" y="718.68" width="9.37" height="24.59" transform="translate(22.33 -29.98) rotate(1.72)" style="fill:#e0af86;"/><rect x="1060.97" y="707.74" width="10.41" height="29.76" transform="translate(-164.42 342.43) rotate(-16.96)" style="fill:#e0af86;"/><rect x="1026.47" y="788.08" width="9.33" height="25.63" style="fill:#e0af86;"/><rect x="1045.16" y="788.08" width="9.33" height="25.63" style="fill:#e0af86;"/><path d="M1020.18,662.72c-1.94-.8-3.91.34-4.09.44-1.08.65-1.66,1.58-2.54,3.5-1.43,3.15-2.26,4.99-2.82,8.18-.78,4.46.14,4.92-.58,7.36-.6,2.04-2.17,4.84-6.67,7.53.47.6,2.97,3.68,7.04,3.93,3.68.23,6.26-1.99,7.64-3.17,3.97-3.42,4.92-7.98,5.65-11.48.16-.79,1.42-7.16-.93-12.99-.64-1.59-1.4-2.77-2.7-3.31Z" style="fill:#ba7e06;"/><path d="M1055.49,664.74c-.2,9.08-7.12,15.19-9.34,17.15-2.32,2.04-5.6,4.94-10.25,4.98-4.14.04-7.16-2.2-9.41-3.92-2.61-1.99-11.83-9.03-11.34-19.93.44-9.9,8.8-20.76,20.35-20.67,12.21.09,20.21,12.37,20,22.38Z" style="fill:#e0af86; stroke:#bc8557; stroke-miterlimit:10;"/><path d="M1015.44,669.85c.02-.41.05-1.01.15-1.74.11-.82.8-7.98,6.26-11.94,2.72-1.96,4.83-1.73,7.49-3.89,3.59-2.91,4.82-7.33,5.31-10.56.21,2.27,2.25,3.95,4.36,4.81,2.98,1.22,4.49,1.79,6.46,2.2,2.58.54,6.08,3.91,10.16,16.28.62-2.09,1.4-5.77.49-10.04-2.04-9.63-11.71-17.83-22.28-17.61-7.93.16-13.14,4.98-13.98,5.78-6.97,6.65-6.57,15.8-6.48,17.85.17,3.82,1.21,6.88,2.05,8.85Z" style="fill:#ba7e06;"/><path d="M1024.43,693.4c-1.72.47-11.5,3.34-16.67,13.93-2.98,6.1-3.04,11.92-2.9,14.72,5.13.27,10.26.53,15.4.8.99-10.86,1.72-15.5,2.23-15.47.52.02.88,4.82,1.02,16.01-4.1,9.75-8.39,21.92-11.69,36.29-3.04,13.23-4.54,25.22-5.24,35.31,22.1-.66,44.2-1.31,66.3-1.97-1.02-9.93-2.81-21.29-5.9-33.64-3.41-13.64-7.66-25.51-11.87-35.43-2.33-11.4-3.23-17.18-2.71-17.35.45-.14,1.95,3.84,4.5,11.95,5.32-1.14,10.65-2.28,15.97-3.43-1.12-3.14-3.33-8.12-7.59-12.83-5.88-6.5-12.41-8.91-15.57-9.82-.27.57-3.93,7.82-11.52,8.63-5.47.58-10.81-2.41-13.76-7.7Z" style="fill:#ce3e79;"/><rect x="1017.21" y="813.71" width="18.61" height="6.39" style="fill:#e0af86;"/><rect x="1045.16" y="813.71" width="19.16" height="6.39" style="fill:#e0af86;"/><path d="M1024.42,661.01c.64-.21,1.11-.2,2.32-.23.85-.02,2.1-.06,3.67-.15-.05-.28-.09-.56-.14-.84-1.43-.36-2.61-.38-3.37-.35-1.5.08-3.44.17-4.41,1.55-.47.66-.55,1.39-.56,1.84.48-.61,1.28-1.43,2.49-1.82Z" style="fill:#ba7e06;"/><path d="M1045.98,659.81c-.66-.08-1.12.01-2.33.21-.84.14-2.08.33-3.63.55,0-.28-.01-.57-.02-.85,1.33-.63,2.49-.87,3.24-.98,1.49-.21,3.41-.48,4.63.69.59.56.81,1.26.9,1.7-.58-.51-1.53-1.16-2.79-1.32Z" style="fill:#ba7e06;"/><path d="M1022.79,665.41c.62-.58,1.75-1.47,3.38-1.95,1.08-.31,3.05-.88,4.02.17.64.69.72,1.94.22,2.74-.95,1.54-4,1.37-5.93.37-.8-.41-1.35-.94-1.69-1.33Z" style="fill:#e5cbb5;"/><path d="M1040.41,664.93c.62-.58,1.75-1.47,3.38-1.95,1.08-.31,3.05-.88,4.02.17.64.69.72,1.94.22,2.74-.95,1.54-4,1.37-5.93.37-.8-.41-1.35-.94-1.69-1.33Z" style="fill:#e5cbb5;"/><circle cx="1028.66" cy="665.62" r="1.9" style="fill:#2d190b;"/><circle cx="1046.15" cy="665.02" r="1.94" style="fill:#2d190b;"/><path d="M1022.98,665.6c.93-.65,1.92-1.21,2.97-1.64.5-.2,1-.39,1.53-.51.21-.05.33-.07.53-.08.17,0,.34,0,.51.01.02,0,.03,0,.05,0-.09-.01.02,0,.03,0,.09.02.17.03.26.05.16.04.32.09.47.15.24.09.46.22.67.36.4.27.78-.38.38-.65-.84-.55-1.82-.79-2.81-.64-1.06.16-2.1.64-3.05,1.12-.67.34-1.3.73-1.92,1.16-.17.12-.24.33-.13.51.1.16.35.25.51.13h0Z"/><path d="M1040.77,665.12c.67-.7,1.46-1.26,2.34-1.65s1.94-.68,2.95-.54c.59.09,1.14.3,1.65.61.41.25.79-.4.38-.65-1.07-.65-2.32-.88-3.55-.66-1.09.2-2.18.67-3.07,1.3-.44.31-.85.66-1.23,1.05-.33.35.2.88.53.53h0Z"/><path d="M1031.29,679.6c1.43,1.56,3.61,2.38,5.71,2.11,1.58-.2,3.19-.96,4.31-2.11.67-.69-.39-1.76-1.06-1.06-.34.35-.54.49-.92.74-.73.47-1.54.82-2.4.94-1.71.25-3.43-.43-4.58-1.68-.65-.71-1.71.35-1.06,1.06h0Z" style="fill:#cc4054;"/><path d="M1036.03,668.31c.37.93.88,1.78,1.57,2.51.23.24.49.46.72.7.15.15-.03-.05.03.04.08.14-.06-.16,0,0,.06.18,0-.13,0-.06,0,.03,0,.06,0,.09,0,.15-.02-.07.02-.08,0,0-.02.1-.03.11,0,.01-.03.09-.03.09-.03-.01.11-.19,0-.02-.05.08-.1.17-.16.25-.08.13.1-.1,0,0-.05.05-.1.11-.15.16-.57.6-1.2.99-1.92,1.44-.82.5-.07,1.8.76,1.3.78-.48,1.59-1,2.23-1.67.39-.42.74-.91.78-1.5.05-.65-.35-1.11-.8-1.52-.36-.33-.68-.68-.95-1.09-.15-.22-.28-.45-.4-.68-.05-.1-.1-.2-.15-.3-.02-.05-.04-.09-.06-.14.03.07.03.07,0,0-.15-.38-.5-.64-.92-.52-.36.1-.68.54-.52.92h0Z" style="fill:#bc8557;"/><path d="M960.63,696.11c-.3,1.35-.9,3.27-2.18,5.24-1.76,2.72-3.2,3.14-3.39,4.8-.29,2.61,2.18,4.73,4.63,5.66,2.76,1.04,5.83,1.26,8.7.6,1.88-.43,3.65-1.21,5.37-2.07,2.41-1.22,4.98-2.96,5.36-5.64-.71-.19-3.67-1.09-5.6-4.11-2.06-3.21-1.47-6.5-1.34-7.17-3.86.89-7.71,1.79-11.57,2.68Z" style="fill:#e0af86;"/><rect x="941.88" y="725.07" width="8.05" height="21.14" transform="translate(22.44 -27.99) rotate(1.72)" style="fill:#e0af86;"/><rect x="987.52" y="715.66" width="8.95" height="25.58" transform="translate(-169.35 321.04) rotate(-16.96)" style="fill:#e0af86;"/><rect x="957.85" y="784.74" width="8.03" height="22.03" style="fill:#e0af86;"/><rect x="973.93" y="784.74" width="8.03" height="22.03" style="fill:#e0af86;"/><path d="M952.44,676.96c-1.67-.69-3.36.29-3.51.38-.93.55-1.43,1.35-2.18,3.01-1.23,2.71-1.95,4.29-2.43,7.03-.67,3.83.12,4.23-.5,6.33-.52,1.76-1.86,4.16-5.73,6.48.41.52,2.55,3.16,6.05,3.38,3.17.2,5.38-1.71,6.57-2.73,3.41-2.94,4.23-6.86,4.86-9.87.14-.68,1.22-6.16-.8-11.17-.55-1.37-1.21-2.39-2.32-2.84Z" style="fill:#ba7e06;"/><path d="M982.81,678.69c-.17,7.8-6.12,13.06-8.03,14.74-1.99,1.76-4.81,4.24-8.81,4.28-3.56.03-6.15-1.89-8.09-3.37-2.24-1.71-10.17-7.76-9.75-17.13.38-8.51,7.57-17.85,17.49-17.77,10.5.08,17.38,10.63,17.19,19.24Z" style="fill:#e0af86; stroke:#bc8557; stroke-miterlimit:10;"/><path d="M948.37,683.09c.01-.35.05-.87.13-1.49.09-.71.69-6.86,5.39-10.26,2.33-1.69,4.16-1.49,6.44-3.34,3.09-2.5,4.15-6.3,4.56-9.08.18,1.95,1.94,3.39,3.75,4.13,2.57,1.05,3.86,1.54,5.55,1.89,2.22.46,5.23,3.36,8.73,14,.53-1.79,1.2-4.96.42-8.63-1.76-8.28-10.07-15.33-19.16-15.14-6.81.14-11.3,4.28-12.02,4.97-5.99,5.71-5.65,13.58-5.57,15.35.14,3.29,1.04,5.92,1.77,7.61Z" style="fill:#ba7e06;"/><path d="M956.1,703.34c-1.48.41-9.89,2.88-14.33,11.98-2.56,5.24-2.62,10.25-2.49,12.66,4.41.23,8.83.46,13.24.69.85-9.33,1.47-13.32,1.92-13.3.45.02.76,4.15.88,13.77-3.53,8.38-7.21,18.85-10.05,31.2-2.62,11.37-3.91,21.68-4.5,30.36,19-.56,38-1.13,57-1.69-.88-8.54-2.42-18.3-5.07-28.92-2.93-11.73-6.58-21.93-10.2-30.47-2-9.8-2.78-14.77-2.33-14.92.39-.12,1.68,3.3,3.87,10.28,4.58-.98,9.16-1.96,13.73-2.95-.96-2.7-2.86-6.98-6.53-11.03-5.05-5.59-10.67-7.66-13.39-8.44-.24.49-3.38,6.72-9.9,7.42-4.7.5-9.29-2.07-11.83-6.62Z" style="fill:#7742cc;"/><rect x="949.89" y="806.77" width="16" height="5.49" style="fill:#e0af86;"/><rect x="973.93" y="806.77" width="16.47" height="5.49" style="fill:#e0af86;"/><path d="M956.09,675.49c.55-.18.95-.17,2-.2.73-.02,1.81-.06,3.15-.13-.04-.24-.08-.48-.12-.72-1.23-.31-2.24-.33-2.89-.3-1.29.07-2.96.15-3.79,1.33-.4.57-.48,1.2-.48,1.58.41-.52,1.1-1.23,2.14-1.57Z" style="fill:#ba7e06;"/><path d="M974.63,674.46c-.57-.07-.97.01-2,.18-.72.12-1.79.29-3.12.47,0-.24-.01-.49-.02-.73,1.15-.54,2.14-.75,2.79-.84,1.28-.18,2.93-.41,3.98.59.5.48.69,1.09.77,1.46-.5-.43-1.31-1-2.4-1.13Z" style="fill:#ba7e06;"/><path d="M954.69,679.27c.53-.5,1.5-1.27,2.91-1.67.93-.27,2.62-.76,3.45.15.55.59.62,1.67.19,2.35-.82,1.33-3.44,1.18-5.1.32-.68-.36-1.16-.81-1.46-1.15Z" style="fill:#e5cbb5;"/><path d="M969.84,678.86c.53-.5,1.5-1.27,2.91-1.67.93-.27,2.62-.76,3.45.15.55.59.62,1.67.19,2.35-.82,1.33-3.44,1.18-5.1.32-.68-.36-1.16-.81-1.46-1.15Z" style="fill:#e5cbb5;"/><circle cx="959.74" cy="679.45" r="1.63" style="fill:#2d190b;"/><circle cx="974.77" cy="678.94" r="1.67" style="fill:#2d190b;"/><path d="M954.88,679.48c.45-.31.92-.6,1.4-.86.21-.11.42-.22.64-.32.18-.08.35-.16.5-.22.43-.17.86-.33,1.31-.43.09-.02.18-.04.27-.05-.06,0,.02,0,.04,0,.04,0,.09,0,.13-.01.15,0,.29,0,.44.01.01,0,.03,0,.04,0-.1-.01,0,0,.01,0,.08.01.15.03.22.05.14.03.27.08.4.13.2.08.39.19.57.31.17.11.41.03.51-.13.11-.18.03-.4-.13-.51-.73-.48-1.59-.69-2.46-.56-.47.07-.93.23-1.37.4s-.85.36-1.26.56c-.57.29-1.12.63-1.65.99-.17.12-.24.33-.13.51.1.16.35.25.51.13h0Z"/><path d="M970.19,679.06c.58-.6,1.23-1.07,2-1.41s1.64-.58,2.5-.46c.5.07.97.25,1.4.52s.79-.4.38-.65c-.93-.57-2.02-.76-3.1-.57-.94.17-1.88.58-2.66,1.12-.38.27-.74.57-1.06.91s.2.88.53.53h0Z"/><path d="M961.93,691.55c1.25,1.36,3.15,2.08,4.98,1.85,1.39-.17,2.8-.83,3.78-1.85.67-.69-.39-1.76-1.06-1.06-.09.09-.18.17-.27.25-.04.03-.08.07-.12.1-.12.1.02,0-.04.03-.11.08-.23.16-.35.24-.62.4-1.3.69-2.04.8-.84.12-1.74-.02-2.49-.41-.56-.28-.92-.56-1.34-1.01-.65-.71-1.71.35-1.06,1.06h0Z" style="fill:#cc4054;"/><path d="M965.97,681.8c.33.81.77,1.56,1.37,2.2.2.21.42.4.62.6.14.14-.05-.08.01.02.07.12-.06-.17-.01-.03.05.17,0-.16,0-.08,0,.02,0,.05,0,.07,0,.16.06-.22,0,0-.06.19.1-.15-.01.04-.04.07-.09.14-.14.21-.08.12.11-.12.01-.02-.04.04-.08.1-.13.14-.09.09-.18.18-.28.27-.06.06-.13.11-.19.16,0,0-.18.14-.07.06-.35.27-.72.5-1.09.73-.35.21-.48.67-.27,1.03s.68.48,1.03.27c.68-.42,1.38-.87,1.94-1.45.36-.38.66-.83.7-1.37.04-.59-.31-1.01-.72-1.38-.3-.28-.58-.57-.8-.91-.13-.19-.24-.39-.35-.59-.04-.09-.09-.17-.13-.26-.02-.04-.04-.08-.05-.12.04.09.04.09,0,.02-.15-.38-.5-.64-.92-.52-.36.1-.68.54-.52.92h0Z" style="fill:#bc8557;"/><path d="M1098.5,700.08c-.3,1.35-.9,3.27-2.18,5.24-1.76,2.72-3.2,3.14-3.39,4.8-.29,2.61,2.18,4.73,4.63,5.66,2.76,1.04,5.83,1.26,8.7.6,1.88-.43,3.65-1.21,5.37-2.07,2.41-1.22,4.98-2.96,5.36-5.64-.71-.19-3.67-1.09-5.6-4.11-2.06-3.21-1.47-6.5-1.34-7.17-3.86.89-7.71,1.79-11.57,2.68Z" style="fill:#e0af86;"/><rect x="1079.75" y="729.03" width="8.05" height="21.14" transform="translate(22.62 -32.11) rotate(1.72)" style="fill:#e0af86;"/><rect x="1125.38" y="719.63" width="8.95" height="25.58" transform="translate(-164.51 361.43) rotate(-16.96)" style="fill:#e0af86;"/><rect x="1095.72" y="788.7" width="8.03" height="22.03" style="fill:#e0af86;"/><rect x="1111.79" y="788.7" width="8.03" height="22.03" style="fill:#e0af86;"/><path d="M1090.31,680.92c-1.67-.69-3.36.29-3.51.38-.93.55-1.43,1.35-2.18,3.01-1.23,2.71-1.95,4.29-2.43,7.03-.67,3.83.12,4.23-.5,6.33-.52,1.76-1.86,4.16-5.73,6.48.41.52,2.55,3.16,6.05,3.38,3.17.2,5.38-1.71,6.57-2.73,3.41-2.94,4.23-6.86,4.86-9.87.14-.68,1.22-6.16-.8-11.17-.55-1.37-1.21-2.39-2.32-2.84Z" style="fill:#ba7e06;"/><path d="M1120.67,682.66c-.17,7.8-6.12,13.06-8.03,14.74-1.99,1.76-4.81,4.24-8.81,4.28-3.56.03-6.15-1.89-8.09-3.37-2.24-1.71-10.17-7.76-9.75-17.13.38-8.51,7.57-17.85,17.49-17.77,10.5.08,17.38,10.63,17.19,19.24Z" style="fill:#e0af86; stroke:#bc8557; stroke-miterlimit:10;"/><path d="M1086.24,687.05c.01-.35.05-.87.13-1.49.09-.71.69-6.86,5.39-10.26,2.33-1.69,4.16-1.49,6.44-3.34,3.09-2.5,4.15-6.3,4.56-9.08.18,1.95,1.94,3.39,3.75,4.13,2.57,1.05,3.86,1.54,5.55,1.89,2.22.46,5.23,3.36,8.73,14,.53-1.79,1.2-4.96.42-8.63-1.76-8.28-10.07-15.33-19.16-15.14-6.81.14-11.3,4.28-12.02,4.97-5.99,5.71-5.65,13.58-5.57,15.35.14,3.29,1.04,5.92,1.77,7.61Z" style="fill:#ba7e06;"/><path d="M1093.97,707.3c-1.48.41-9.89,2.88-14.33,11.98-2.56,5.24-2.62,10.25-2.49,12.66,4.41.23,8.83.46,13.24.69.85-9.33,1.47-13.32,1.92-13.3.45.02.76,4.15.88,13.77-3.53,8.38-7.21,18.85-10.05,31.2-2.62,11.37-3.91,21.68-4.5,30.36,19-.56,38-1.13,57-1.69-.88-8.54-2.42-18.3-5.07-28.92-2.93-11.73-6.58-21.93-10.2-30.47-2-9.8-2.78-14.77-2.33-14.92.39-.12,1.68,3.3,3.87,10.28,4.58-.98,9.16-1.96,13.73-2.95-.96-2.7-2.86-6.98-6.53-11.03-5.05-5.59-10.67-7.66-13.39-8.44-.24.49-3.38,6.72-9.9,7.42-4.7.5-9.29-2.07-11.83-6.62Z" style="fill:#cc7240;"/><rect x="1087.76" y="810.74" width="16" height="5.49" style="fill:#e0af86;"/><rect x="1111.79" y="810.74" width="16.47" height="5.49" style="fill:#e0af86;"/><path d="M1093.96,679.45c.55-.18.95-.17,2-.2.73-.02,1.81-.06,3.15-.13-.04-.24-.08-.48-.12-.72-1.23-.31-2.24-.33-2.89-.3-1.29.07-2.96.15-3.79,1.33-.4.57-.48,1.2-.48,1.58.41-.52,1.1-1.23,2.14-1.57Z" style="fill:#ba7e06;"/><path d="M1112.49,678.42c-.57-.07-.97.01-2,.18-.72.12-1.79.29-3.12.47,0-.24-.01-.49-.02-.73,1.15-.54,2.14-.75,2.79-.84,1.28-.18,2.93-.41,3.98.59.5.48.69,1.09.77,1.46-.5-.43-1.31-1-2.4-1.13Z" style="fill:#ba7e06;"/><path d="M1092.56,683.23c.53-.5,1.5-1.27,2.91-1.67.93-.27,2.62-.76,3.45.15.55.59.62,1.67.19,2.35-.82,1.33-3.44,1.18-5.1.32-.68-.36-1.16-.81-1.46-1.15Z" style="fill:#e5cbb5;"/><path d="M1107.71,682.82c.53-.5,1.5-1.27,2.91-1.67.93-.27,2.62-.76,3.45.15.55.59.62,1.67.19,2.35-.82,1.33-3.44,1.18-5.1.32-.68-.36-1.16-.81-1.46-1.15Z" style="fill:#e5cbb5;"/><circle cx="1097.61" cy="683.41" r="1.63" style="fill:#2d190b;"/><circle cx="1112.64" cy="682.9" r="1.67" style="fill:#2d190b;"/><path d="M1092.75,683.44c.45-.31.92-.6,1.4-.86.21-.11.42-.22.64-.32.18-.08.35-.16.5-.22.43-.17.86-.33,1.31-.43.09-.02.18-.04.27-.05-.06,0,.02,0,.04,0,.04,0,.09,0,.13-.01.15,0,.29,0,.44.01.01,0,.03,0,.04,0-.1-.01,0,0,.01,0,.08.01.15.03.22.05.14.03.27.08.4.13.2.08.39.19.57.31.17.11.41.03.51-.13.11-.18.03-.4-.13-.51-.73-.48-1.59-.69-2.46-.56-.47.07-.93.23-1.37.4s-.85.36-1.26.56c-.57.29-1.12.63-1.65.99-.17.12-.24.33-.13.51.1.16.35.25.51.13h0Z"/><path d="M1108.05,683.02c.58-.6,1.23-1.07,2-1.41s1.64-.58,2.5-.46c.5.07.97.25,1.4.52s.79-.4.38-.65c-.93-.57-2.02-.76-3.1-.57-.94.17-1.88.58-2.66,1.12-.38.27-.74.57-1.06.91s.2.88.53.53h0Z"/><path d="M1099.8,695.51c1.25,1.36,3.15,2.08,4.98,1.85,1.39-.17,2.8-.83,3.78-1.85.67-.69-.39-1.76-1.06-1.06-.09.09-.18.17-.27.25-.04.03-.08.07-.12.1-.12.1.02,0-.04.03-.11.08-.23.16-.35.24-.62.4-1.3.69-2.04.8-.84.12-1.74-.02-2.49-.41-.56-.28-.92-.56-1.34-1.01-.65-.71-1.71.35-1.06,1.06h0Z" style="fill:#cc4054;"/><path d="M1103.84,685.76c.33.81.77,1.56,1.37,2.2.2.21.42.4.62.6.14.14-.05-.08.01.02.07.12-.06-.17-.01-.03.05.17,0-.16,0-.08,0,.02,0,.05,0,.07,0,.16.06-.22,0,0-.06.19.1-.15-.01.04-.04.07-.09.14-.14.21-.08.12.11-.12.01-.02-.04.04-.08.1-.13.14-.09.09-.18.18-.28.27-.06.06-.13.11-.19.16,0,0-.18.14-.07.06-.35.27-.72.5-1.09.73-.35.21-.48.67-.27,1.03s.68.48,1.03.27c.68-.42,1.38-.87,1.94-1.45.36-.38.66-.83.7-1.37.04-.59-.31-1.01-.72-1.38-.3-.28-.58-.57-.8-.91-.13-.19-.24-.39-.35-.59-.04-.09-.09-.17-.13-.26-.02-.04-.04-.08-.05-.12.04.09.04.09,0,.02-.15-.38-.5-.64-.92-.52-.36.1-.68.54-.52.92h0Z" style="fill:#bc8557;"/><rect x="-3.79" y="919.06" width="1920" height="161.7" style="fill:#191919;"/></svg>