<?xml version="1.0" encoding="UTF-8"?><svg id="a" xmlns="http://www.w3.org/2000/svg" width="112.3" height="126.66" viewBox="0 0 112.3 126.66"><rect x="-1566.29" y="-3833.62" width="1665.04" height="5406.01" style="fill:none;"/><line x1="57.57" y1="126.66" x2="57.57" y2="28.05" style="fill:none; stroke:#32492f; stroke-miterlimit:10; stroke-width:10px;"/><path d="M52.49,31.06c-13.32.94-27.12,1.82-39.65-2.8C5.85,25.69-1.39,19.49.23,12.23,1.4,6.93,7.14,3.65,12.56,3.51c5.43-.14,10.59,2.15,15.48,4.51,9.24,4.46,18.28,9.35,27.07,14.64,2.17,1.31,4.65,3.78,3.31,5.93C63.18,9.29,85.17-3.88,104.43,1.03c3,.77,6.21,2.18,7.4,5.04,1.42,3.4-.64,7.22-2.94,10.09-12.17,15.19-34.06,21.77-52.59,15.82" style="fill:#32492f;"/></svg>