<?xml version="1.0" encoding="UTF-8"?><svg id="a" xmlns="http://www.w3.org/2000/svg" viewBox="0 0 1920 683.73"><path d="M499.63,197.8c226.51-7.72,303.77,202.16,548.68,170.23,182.74-23.82,207.1-175.59,394.73-178.06,141.55-1.86,298.8,82.25,301.27,165.3,2.37,79.71-137.5,170.67-344.71,207.5-467.62,0-935.25,0-1402.87,0,.35-61.5.69-123.01,1.04-184.51,31.66-1.46,78.41-5.39,133.62-16.99,205.93-43.27,245.99-159.3,368.24-163.47Z" style="fill:#7b8267;"/><path d="M876.66,256.31c130.82-.88,244.96,51.64,301.38,78.92,171.54,82.95,200.31,174.32,286.33,162.06,109.53-15.62,118.41-170.72,266.61-222,73.61-25.47,144.56-12.47,189.02.28,0,140.26,0,280.52,0,420.78H0V210.66c36.28-4.18,95.67-6.07,157.91,19.63,133.34,55.06,125.65,173.09,218.43,209.18,138.93,54.05,241.15-181.43,500.33-183.17Z" style="fill:#5b6046;"/><rect x="0" y="497.29" width="1920" height="199.06" style="fill:#47433d;"/><path d="M1282.02,565.53c-138.9-39.45-222.01,66.35-366.67,24.74-75.67-21.77-169.06-84.11-169.35-160.23-.22-56.03,49.97-117.48,105.24-131.69,53.45-13.74,90.39,21.83,182.54,8.43,22.38-3.26,40.51-8.31,52.67-12.21,9.29,4.01,18.57,8.03,27.86,12.04-12.58,9.43-34.24,23.58-63.74,32.11-75.53,21.84-122-16.41-166.05,12.83-24.71,16.4-42.05,49.61-36,75.77,12.03,52.02,114.03,64.62,133.47,67.02,102.37,12.65,126.74-32.25,233.18-42.07,23.75-2.19,181.41-14.4,299.8,88.93,56.07,48.94,83.7,106.66,97.27,142.53h-169.22c-31.7-41.72-83.98-96.34-160.98-118.21Z" style="fill:#1a3047;"/><rect x="348.03" y="279.09" width="235.3" height="131.41" style="fill:#fff;"/><rect x="1547.13" y="-3.77" width="235.3" height="131.41" style="fill:#fff;"/><line x1="350.03" y1="411.87" x2="350.03" y2="575.46" style="fill:none; stroke:#000; stroke-miterlimit:10; stroke-width:5px;"/><line x1="1778.43" y1="127.64" x2="1778.43" y2="291.23" style="fill:none; stroke:#000; stroke-miterlimit:10; stroke-width:5px;"/><rect x="1705.11" y="-3.77" width="77.32" height="131.41" style="fill:#1b5b1b;"/><rect x="1547.13" y="-3.77" width="77.32" height="131.41" style="fill:#1b5b1b;"/><rect x="348.03" y="275.11" width="235.3" height="29.64" style="fill:#e09214;"/><rect x="348.03" y="381.77" width="235.3" height="29.64" style="fill:#1b5b1b;"/><circle cx="465.68" cy="343.26" r="21.67" style="fill:#e09214;"/></svg>