<?xml version="1.0" encoding="UTF-8"?><svg id="a" xmlns="http://www.w3.org/2000/svg" viewBox="0 0 3838.63 1080"><path d="M2942.19,581.45c239.35-15.93,313.09,187.69,548.68,170.23,156.94-11.63,276.65-113.3,348.97-189.96.77,128.23,1.55,256.47,2.32,384.7h-1922.16c.86-124.35,1.72-248.71,2.57-373.06,50.65,33.56,101.3,67.12,151.95,100.68,21.71,10.61,54.64,25.59,96.01,40.08,0,0,130.97,45.53,269.79,47.79,230.78,3.76,288.2-166.24,501.86-180.46Z" style="fill:#3d4230;"/><path d="M3319.21,639.96c138.57-.93,255.53,54.63,301.38,78.92,88.13,46.7,162.97,107.25,221.56,162.06v199.06h-1920c-.72-66.35-1.44-132.7-2.16-199.06,27.39-.47,68.84-3.34,117.14-15.89,76.98-20,119.27-51.06,170.04-76.68,0,0,100.72-50.83,239.32-63.88,182.23-17.16,209.13,92.57,372.38,98.64,216.24,8.05,249.5-181.49,500.33-183.17Z" style="fill:#555947;"/><path d="M833.89,619.07c-135.2-11.23-334.11,14.11-597.22,190.47-79.61,45.63-159.22,91.26-238.83,136.9h1922.16c.86-124.35,1.72-248.71,2.57-373.06-17.27-11.36-51.45-30.3-97.88-33.36-83.59-5.52-141.71,44.69-153.77,55.59,0,0-125.84,107.64-271.25,166.33-184.66,74.53-272.48-118.48-565.79-142.85Z" style="fill:#3d4230;"/><path d="M1399.21,639.96c129.93,31.24,216.23,89.46,216.23,89.46,77.21,52.09,127.21,114.12,231.81,140.57,31.26,7.9,57.83,10.21,74.91,10.96v199.06H0c-.72-171.13-1.44-342.26-2.16-513.38,60.53-24.69,162.03-56.79,282.89-44.53,262.14,26.58,314.1,231.24,545.16,268.21,236.75,37.89,327.16-209.53,573.32-150.34Z" style="fill:#555947;"/><rect x="-1.15" y="880.94" width="1921.15" height="200.14" style="fill:#47433d;"/><rect x="1920" y="880.94" width="1920" height="199.06" style="fill:#47433d;"/><path d="M3840,1080c-143.59-63.33-257.59-71.41-333.46-67.84-136.97,6.46-192.97,45.86-312.98,23.23-88.16-16.62-194.12-78.17-196.81-151.7-1.95-53.44,50.76-109.5,105.24-131.69,106.1-43.23,202.16,27.93,252.84-22.75,22.51-22.51,24.2-58.14,21.49-86.57,9.73,1.23,19.45,2.47,29.18,3.7-1.15,32.41-8.34,74.05-38.37,99.27-64.76,54.38-170.69-19.34-237.81,36.9-28.84,24.17-41.8,68.66-30.07,98.4,20.63,52.29,118.11,55.57,170.84,57.4,103.26,3.59,165.88-20.76,230.42-34.56,76.35-16.33,188.63-25.01,338.1,15.04.46,53.72.91,107.44,1.37,161.16Z" style="fill:#1a3047;"/></svg>