<?xml version="1.0" encoding="UTF-8"?><svg id="a" xmlns="http://www.w3.org/2000/svg" viewBox="0 0 1920 560.61"><path d="M2942.19,62.06c239.35-15.93,313.09,187.69,548.68,170.23,156.94-11.63,276.65-113.3,348.97-189.96.77,128.23,1.55,256.47,2.32,384.7h-1922.16c.86-124.35,1.72-248.71,2.57-373.06,50.65,33.56,101.3,67.12,151.95,100.68,21.71,10.61,54.64,25.59,96.01,40.08,0,0,130.97,45.53,269.79,47.79,230.78,3.76,288.2-166.24,501.86-180.46Z" style="fill:#3d4230;"/><path d="M3319.21,120.57c138.57-.93,255.53,54.63,301.38,78.92,88.13,46.7,162.97,107.25,221.56,162.06v199.06h-1920c-.72-66.35-1.44-132.7-2.16-199.06,27.39-.47,68.84-3.34,117.14-15.89,76.98-20,119.27-51.06,170.04-76.68,0,0,100.72-50.83,239.32-63.88,182.23-17.16,209.13,92.57,372.38,98.64,216.24,8.05,249.5-181.49,500.33-183.17Z" style="fill:#555947;"/><path d="M833.89,99.68c-135.2-11.23-334.11,14.11-597.22,190.47-79.61,45.63-159.22,91.26-238.83,136.9h1922.16c.86-124.35,1.72-248.71,2.57-373.06-17.27-11.36-51.45-30.3-97.88-33.36-83.59-5.52-141.71,44.69-153.77,55.59,0,0-125.84,107.64-271.25,166.33-184.66,74.53-272.48-118.48-565.79-142.85Z" style="fill:#3d4230;"/><path d="M1399.21,120.57c129.93,31.24,216.23,89.46,216.23,89.46,77.21,52.09,127.21,114.12,231.81,140.57,31.26,7.9,57.83,10.21,74.91,10.96v199.06H0C-.72,389.48-1.44,218.35-2.16,47.23,58.37,22.53,159.87-9.56,280.74,2.7c262.14,26.58,314.1,231.24,545.16,268.21,236.75,37.89,327.16-209.53,573.32-150.34Z" style="fill:#555947;"/><rect x="-1.15" y="361.55" width="1921.15" height="200.14" style="fill:#47433d;"/><rect x="1920" y="361.55" width="1920" height="199.06" style="fill:#47433d;"/></svg>